<?xml version="1.0" encoding="UTF-8"?>
<svg id="Layer_2" data-name="Layer 2" xmlns="http://www.w3.org/2000/svg" viewBox="0 0 1200 1200">
  <g>
    <polygon points="945.19 535.35 945.19 388.29 892.23 388.29 880.82 363 1035.7 363 1024.18 388.29 971.28 388.29 971.28 535.35 945.19 535.35" style="fill: #123f6d;"/>
    <path d="M607.71,535.27c-26.77,0-48.04-7.78-64.98-23.77l16.96-17.06c14.39,10.06,29.76,14.76,48.28,14.76s36.77-8.91,36.77-25.43-19.27-21.76-34.76-25.66c-31.03-7.58-61.32-17.77-61.32-50.99,0-14.68,6.29-27.01,18.19-35.66,10.73-7.81,25.33-12.11,41.12-12.11,1.98,0,3.97.05,5.95.15,10.77.55,21.01,2.69,30.46,6.36,4.74,1.85,9.48,4.15,14.09,6.85,1.27.74,8.91,5.99,11,7.99-1.39,1.4-5.45,5.48-17.19,17.29-13.9-9.03-26.41-12.57-44.3-12.57-12.41,0-30.88,5.71-30.88,21.43,0,14.27,14.07,18.9,35.53,24.33,30.33,7.43,61.32,19.48,61.32,52.58,0,16.28-7.21,29.77-20.86,39.01-11.9,8.06-28.01,12.49-45.37,12.49Z" style="fill: #123f6d;"/>
    <path d="M443.6,535.27c-26.77,0-48.04-7.78-64.98-23.77l16.96-17.06c14.39,10.06,29.76,14.76,48.28,14.76s36.77-8.91,36.77-25.43-19.27-21.76-34.76-25.66c-31.03-7.59-61.32-17.77-61.32-50.99,0-14.68,6.29-27.01,18.19-35.66,10.73-7.81,25.33-12.11,41.12-12.11,1.98,0,3.97.05,5.95.15,10.77.55,21.02,2.69,30.46,6.36,4.74,1.85,9.48,4.15,14.09,6.85,1.26.74,8.91,5.99,11,7.99-1.39,1.4-5.45,5.48-17.19,17.29-13.9-9.03-26.41-12.57-44.3-12.57-12.41,0-30.88,5.71-30.88,21.43,0,14.27,14.07,18.9,35.53,24.33,30.33,7.43,61.32,19.48,61.32,52.58,0,16.28-7.21,29.77-20.86,39.01-11.9,8.06-28.01,12.49-45.37,12.49Z" style="fill: #123f6d;"/>
    <g>
      <polygon points="718.86 535.35 718.86 363 849.43 362.96 837.92 388.25 743.76 388.25 743.76 510.09 838.02 510.09 849.43 535.38 718.86 535.35" style="fill: #123f6d;"/>
      <rect x="762.68" y="437" width="57.59" height="25.29" style="fill: #123f6d;"/>
    </g>
    <polygon points="277.04 363 242.09 363 164.35 535.35 193.87 535.35 259.56 389.69 292.28 462.29 247.62 462.29 236.11 487.81 303.79 487.81 325.26 535.35 354.77 535.35 277.04 363" style="fill: #123f6d;"/>
  </g>
  <g>
    <g>
      <path d="M559.01,655.98c4.16,2.06,11.31,2.3,15.57.49,2.45-1.04,4.55-2.47,6.41-4.34,1.8-1.85,3.16-3.92,4.2-6.32.97-2.32,1.46-4.86,1.46-7.55s-.5-5.2-1.48-7.6c-1.02-2.37-2.38-4.42-4.21-6.29-1.8-1.82-3.83-3.2-6.18-4.24-2.29-1-4.79-1.49-7.46-1.49s-5.12.5-7.47,1.51c-2.34,1.02-4.38,2.41-6.2,4.25-1.79,1.84-3.15,3.91-4.19,6.3-.97,2.35-1.45,4.83-1.45,7.56s.49,5.25,1.46,7.58c1.02,2.37,2.38,4.44,4.21,6.31,1.56,1.58,3.32,2.84,5.32,3.84Z" style="fill: #123f6d;"/>
      <path d="M583.18,816.74v-137.18h-31.68v161.09h39.54c-.18-.23-.35-.45-.52-.68-4.87-6.53-7.34-14.79-7.34-23.23Z" style="fill: #123f6d;"/>
    </g>
    <path d="M1027.78,765.46l-.59,1.52c-9.63,24.64-30.98,37.39-37.28,40.71-3.49,1.74-6.79,3.17-10.09,4.38-8.9,3.28-18.13,4.95-27.44,4.95-12.19,0-23.75-2.92-33.45-8.45-9.8-5.57-18.36-13.38-25.44-23.23-14.69-20.2-22.16-49.5-22.11-77.82v-5.14h159.48c-.51-7.73-2.27-17.58-6.48-28.35-4.43-10.72-10.69-20.25-18.6-28.33-7.95-8.15-17.6-14.76-28.68-19.65-11.04-4.85-23.34-7.32-36.57-7.32-15.12,0-28.96,2.99-41.12,8.89-12.16,5.88-22.76,14.17-31.52,24.64-8.72,10.48-15.58,23.15-20.39,37.65-4.82,14.62-7.27,30.73-7.27,47.9,0,14.04,2.65,27.46,7.87,39.89,5.22,12.52,12.43,23.53,21.42,32.73,8.95,9.21,19.65,16.62,31.83,22.04,12.19,5.43,24.84,8.18,37.6,8.18,32.26-.07,64.11-19.63,83.75-48.5,4.24-6.23,7.79-12.97,10.57-20.03l2.19-5.6-7.69-1.05ZM871.6,689.08c.33-4.96,1.52-8.88,2.9-13.42l.89-2.95c5.96-20.43,24.12-37.52,45.18-42.54,4.13-.98,8.36-1.48,12.58-1.48,19.55,0,37.69,10.68,47.33,27.87,3.27,5.82,5.69,11.9,7.19,18.07,1.52,6.21,1.9,11.36,2.04,18.54h-118.38l.27-4.08Z" style="fill: #123f6d;"/>
    <polygon points="400.16 785.18 387.73 757.12 450.86 623.23 440.49 623.23 382.67 745.71 347.55 666.41 366.38 623.23 342.53 623.23 267.03 785.18 254.39 757.09 317.51 623.23 307.15 623.23 249.3 745.77 194.17 623.23 164.3 623.23 262.36 840.64 269.66 840.64 334.91 694.81 397.78 840.64 405.08 840.64 505.52 623.23 475.66 623.23 400.16 785.18" style="fill: #123f6d;"/>
    <path d="M791.31,756.5c-3.25-6.36-7.61-12.05-12.97-16.91-5.49-4.99-11.88-9.48-18.99-13.35-7.47-4.08-15.02-7.83-22.44-11.16l-22.72-10.22c-7.71-3.45-14.67-7.28-20.69-11.4-5.88-4.01-10.81-8.63-14.64-13.71-8.27-11.44-4.92-22.57-4.77-23.03,3.04-9.21,11.22-25.06,31.84-27.81.04,0,4.11-.98,10.4-.98,9.52,0,23.59,2.21,36.61,12.76.14.11,13.95,11.35,18.47,22.66l1.08,2.7,12.76-11.47-1.17-1.57c-.58-.78-14.25-19.17-29.58-26.61-.53-.3-.72-.37-.73-.36-5.44-2.68-11.06-4.51-16.7-5.45-5.69-.94-11.62-1.42-17.62-1.42-10.69,0-21.01,1.55-29.03,4.37-8.28,2.91-15.48,6.97-21.4,12.05-5.83,5-10.45,11.06-13.73,18-3.23,6.86-4.88,14.4-4.88,22.41,0,8.64,1.48,16.2,4.41,22.46,3,6.45,7.01,12.22,11.91,17.14,5,5.02,10.8,9.48,17.24,13.25,6.89,4.03,13.81,7.79,20.57,11.16,7.07,3.54,13.99,6.98,20.79,10.29,6.98,3.43,13.38,7.28,19,11.46,5.68,4.25,10.36,9.16,13.92,14.6,3.27,4.7,5.71,13.72,5.04,20.9-1.43,10.59-6.01,18.7-13.64,24.1-9.24,6.54-20.23,10-31.79,10-16.45.39-32.09-7.39-43.56-18.92-6.97-6.99-13.26-17.04-17.84-25.77l-2.62-4.88-15.47,13.16c7.43,9.19,14.71,18.4,23.9,25.88,8.46,6.88,18.05,12.33,28.4,15.65,9.83,3.15,20.22,4.16,30.49,4.16,11.87,0,23.23-1.75,32.86-5.05,9.5-3.26,17.46-7.73,23.66-13.28,6.13-5.47,10.78-12,13.81-19.42,4.09-10.66,7.52-29.78-.16-46.39Z" style="fill: #123f6d;"/>
  </g>
</svg>