<?xml version="1.0" encoding="UTF-8"?>
<svg id="Layer_1" data-name="Layer 1" xmlns="http://www.w3.org/2000/svg" viewBox="0 0 669.97 197.8">
  <defs>
    <style>
      .cls-1 {
        fill: #123f6d;
      }
    </style>
  </defs>
  <g>
    <polygon class="cls-1" points="325.86 127.66 325.86 78.02 307.7 78.02 303.79 69.48 356.89 69.48 352.95 78.02 334.81 78.02 334.81 127.66 325.86 127.66"/>
    <path class="cls-1" d="M210.16,127.64c-9.18,0-16.47-2.63-22.28-8.02l5.81-5.76c4.93,3.4,10.2,4.98,16.55,4.98s12.61-3.01,12.61-8.58-6.61-7.35-11.92-8.66c-10.64-2.56-21.02-6-21.02-17.21,0-4.95,2.16-9.12,6.24-12.04,3.68-2.64,8.68-4.09,14.1-4.09.68,0,1.36.02,2.04.05,3.69.18,7.2.91,10.44,2.15,1.63.62,3.25,1.4,4.83,2.31.43.25,3.05,2.02,3.77,2.7-.48.47-1.87,1.85-5.89,5.84-4.77-3.05-9.06-4.24-15.19-4.24-4.26,0-10.59,1.93-10.59,7.24,0,4.82,4.82,6.38,12.18,8.21,10.4,2.51,21.02,6.58,21.02,17.75,0,5.5-2.47,10.05-7.15,13.17-4.08,2.72-9.6,4.22-15.55,4.22Z"/>
    <path class="cls-1" d="M153.89,127.64c-9.18,0-16.47-2.63-22.28-8.02l5.81-5.76c4.93,3.4,10.2,4.98,16.55,4.98s12.61-3.01,12.61-8.58-6.61-7.35-11.92-8.66c-10.64-2.56-21.02-6-21.02-17.21,0-4.95,2.16-9.12,6.24-12.04,3.68-2.64,8.68-4.09,14.1-4.09.68,0,1.36.02,2.04.05,3.69.18,7.21.91,10.44,2.15,1.63.62,3.25,1.4,4.83,2.31.43.25,3.05,2.02,3.77,2.7-.48.47-1.87,1.85-5.89,5.84-4.77-3.05-9.06-4.24-15.19-4.24-4.26,0-10.59,1.93-10.59,7.24,0,4.82,4.82,6.38,12.18,8.21,10.4,2.51,21.02,6.58,21.02,17.75,0,5.5-2.47,10.05-7.15,13.17-4.08,2.72-9.6,4.22-15.55,4.22Z"/>
    <g>
      <polygon class="cls-1" points="248.27 127.66 248.27 69.48 293.03 69.46 289.09 78 256.81 78 256.81 119.14 289.12 119.14 293.03 127.68 248.27 127.66"/>
      <rect class="cls-1" x="263.29" y="94.46" width="19.74" height="8.54"/>
    </g>
    <polygon class="cls-1" points="96.79 69.48 84.81 69.48 58.16 127.66 68.28 127.66 90.8 78.49 102.01 103 86.71 103 82.76 111.61 105.96 111.61 113.32 127.66 123.44 127.66 96.79 69.48"/>
  </g>
  <g>
    <g>
      <g>
        <path class="cls-1" d="M479.56,78.24c1.13.55,3.07.62,4.23.13.67-.28,1.24-.66,1.74-1.16.49-.49.86-1.05,1.14-1.69.26-.62.4-1.3.4-2.02s-.14-1.39-.4-2.03c-.28-.63-.65-1.18-1.14-1.68-.49-.49-1.04-.86-1.68-1.13-.62-.27-1.3-.4-2.03-.4s-1.39.13-2.03.4c-.64.27-1.19.65-1.68,1.14-.49.49-.86,1.05-1.14,1.69-.26.63-.39,1.29-.39,2.02s.13,1.41.4,2.03c.28.63.65,1.19,1.14,1.69.42.42.9.76,1.45,1.03Z"/>
        <path class="cls-1" d="M486.13,121.27v-36.71h-8.61v43.11h10.75c-.05-.06-.1-.12-.14-.18-1.32-1.75-2-3.96-2-6.22Z"/>
      </g>
      <path class="cls-1" d="M606.96,107.54l-.16.41c-2.62,6.59-8.42,10.01-10.13,10.9-.95.47-1.85.85-2.74,1.17-2.42.88-4.93,1.32-7.46,1.32-3.31,0-6.46-.78-9.09-2.26-2.66-1.49-4.99-3.58-6.91-6.22-3.99-5.41-6.02-13.25-6.01-20.83v-1.38h43.34c-.14-2.07-.62-4.71-1.76-7.59-1.2-2.87-2.9-5.42-5.06-7.58-2.16-2.18-4.78-3.95-7.79-5.26-3-1.3-6.34-1.96-9.94-1.96-4.11,0-7.87.8-11.18,2.38-3.3,1.57-6.19,3.79-8.57,6.59-2.37,2.81-4.23,6.2-5.54,10.08-1.31,3.91-1.97,8.22-1.97,12.82,0,3.76.72,7.35,2.14,10.68,1.42,3.35,3.38,6.3,5.82,8.76,2.43,2.46,5.34,4.45,8.65,5.9,3.31,1.45,6.75,2.19,10.22,2.19,8.77-.02,17.42-5.25,22.76-12.98,1.15-1.67,2.12-3.47,2.87-5.36l.6-1.5-2.09-.28ZM564.52,87.1c.09-1.33.41-2.38.79-3.59l.24-.79c1.62-5.47,6.55-10.04,12.28-11.39,1.12-.26,2.27-.4,3.42-.4,5.31,0,10.24,2.86,12.86,7.46.89,1.56,1.55,3.19,1.95,4.84.41,1.66.52,3.04.55,4.96h-32.17l.07-1.09Z"/>
      <polygon class="cls-1" points="436.39 112.82 433.01 105.31 450.17 69.48 447.35 69.48 431.64 102.26 422.09 81.03 427.21 69.48 420.72 69.48 400.2 112.82 396.77 105.3 413.93 69.48 411.11 69.48 395.39 102.27 380.4 69.48 372.29 69.48 398.94 127.66 400.92 127.66 418.66 88.64 435.74 127.66 437.72 127.66 465.02 69.48 456.91 69.48 436.39 112.82"/>
    </g>
    <path class="cls-1" d="M542.7,105.14c-.88-1.7-2.07-3.23-3.52-4.53-1.49-1.34-3.23-2.54-5.16-3.57-2.03-1.09-4.08-2.1-6.1-2.99l-6.17-2.73c-2.09-.92-3.99-1.95-5.62-3.05-1.6-1.07-2.94-2.31-3.98-3.67-2.25-3.06-1.34-6.04-1.3-6.16.83-2.46,3.05-6.71,8.65-7.44.01,0,1.12-.26,2.83-.26,2.59,0,6.41.59,9.95,3.42.04.03,3.79,3.04,5.02,6.07l.29.72,3.47-3.07-.32-.42c-.16-.21-3.87-5.13-8.04-7.12-.14-.08-.2-.1-.2-.1-1.48-.72-3-1.21-4.54-1.46-1.55-.25-3.16-.38-4.79-.38-2.91,0-5.71.42-7.89,1.17-2.25.78-4.21,1.86-5.82,3.22-1.58,1.34-2.84,2.96-3.73,4.82-.88,1.84-1.33,3.85-1.33,6,0,2.31.4,4.33,1.2,6.01.82,1.73,1.91,3.27,3.24,4.59,1.36,1.34,2.94,2.54,4.68,3.55,1.87,1.08,3.75,2.08,5.59,2.99,1.92.95,3.8,1.87,5.65,2.75,1.9.92,3.64,1.95,5.16,3.07,1.54,1.14,2.82,2.45,3.78,3.91.89,1.26,1.55,3.67,1.37,5.59-.39,2.83-1.63,5-3.71,6.45-2.51,1.75-5.5,2.68-8.64,2.68-4.47.1-8.72-1.98-11.84-5.06-1.89-1.87-3.6-4.56-4.85-6.9l-.71-1.31-4.21,3.52c2.02,2.46,4,4.92,6.5,6.93,2.3,1.84,4.91,3.3,7.72,4.19,2.67.84,5.49,1.11,8.29,1.11,3.23,0,6.31-.47,8.93-1.35,2.58-.87,4.74-2.07,6.43-3.56,1.67-1.46,2.93-3.21,3.75-5.2,1.11-2.85,2.04-7.97-.04-12.42Z"/>
  </g>
</svg>