<svg width="145" height="137" viewBox="0 0 145 137" fill="none" xmlns="http://www.w3.org/2000/svg">
<g clip-path="url(#clip0_2725_79040)">
<path d="M125.161 127.421C124.733 130.311 121.843 132.612 118.793 132.612H27.5486C24.4446 132.612 21.5548 130.257 21.0732 127.421L5.98176 35.8023C5.50011 32.966 7.64074 30.6113 10.7446 30.6113H134.205C137.309 30.6113 139.45 32.966 139.022 35.8023L125.161 127.421Z" fill="#455A64"/>
<path d="M102.309 0H25.4609V108.209H119.434V17.3926L102.309 0Z" fill="#A48346"/>
<path d="M102.309 0L119.541 17.232H102.309V0Z" fill="#8B6828"/>
<path d="M98.5094 34.2502L90.8566 26.5439L72.5008 44.8998L54.1449 26.5439L46.4922 34.2502L64.848 52.6061L46.4922 70.9084L54.1449 78.6146L72.5008 60.2588L90.8566 78.6146L98.5094 70.9084L80.1535 52.6061L98.5094 34.2502Z" fill="#EBBF6D"/>
<path d="M81.4381 62.0242C79.0299 62.0242 76.4611 60.1512 75.7119 57.7965L72.1799 46.3977C71.4842 44.0965 68.9154 42.1699 66.4537 42.1699H3.89395C1.48574 42.1699 -0.17324 44.0965 0.254885 46.5047L15.5068 132.611C15.935 135.02 18.2361 136.946 20.6979 136.946H129.12C131.529 136.946 133.83 134.966 134.204 132.611L144.694 66.3055C145.068 63.8973 143.409 61.9707 141.001 61.9707L81.4381 62.0242Z" fill="#3B3B3B"/>
<path d="M66.1855 102.375C66.1855 99.0033 67.5234 96.4346 70.1992 94.5615L71.4836 93.6518C72.7145 92.849 73.5707 92.2068 73.9988 91.7252C74.4805 91.19 74.6945 90.6014 74.6945 89.8521C74.6945 87.9256 73.0891 87.0158 69.9316 87.0158C68.4332 87.0158 66.9348 87.2299 65.3293 87.6045C63.7773 87.9791 62.2789 88.5678 60.834 89.2635V81.6643C63.8309 80.2729 67.2559 79.5771 71.002 79.5771C75.0156 79.5771 78.2266 80.4334 80.6348 82.0924C82.9895 83.8049 84.1668 86.1061 84.1668 89.1029C84.1668 90.7619 83.7922 92.1533 83.043 93.1701C82.2938 94.1869 81.0094 95.3643 79.1898 96.6486C77.959 97.5584 77.1027 98.2006 76.5141 98.6822C75.9789 99.1639 75.5508 99.699 75.2832 100.288C75.0156 100.876 74.8551 101.626 74.8551 102.482V103.445H66.1855V102.375ZM67.2023 114.202C66.3461 113.346 65.918 112.275 65.918 110.991C65.918 109.653 66.3461 108.583 67.2023 107.726C68.0586 106.87 69.1824 106.442 70.4668 106.442C71.7512 106.442 72.8215 106.87 73.7312 107.726C74.641 108.583 75.0691 109.653 75.0691 110.937C75.0691 112.222 74.641 113.292 73.7312 114.148C72.8215 115.004 71.7512 115.433 70.4668 115.433C69.1289 115.486 68.0586 115.058 67.2023 114.202Z" fill="white"/>
<path opacity="0.47" d="M141.055 61.9707H134.258C134.419 63.5227 134.472 65.1281 134.472 66.6801C134.472 102.214 96.4227 131.059 49.4894 131.059C36.9133 131.059 24.9793 128.972 14.2227 125.28L15.507 132.611C15.9352 135.02 18.2363 136.946 20.698 136.946H129.121C131.529 136.946 133.83 134.966 134.205 132.611L144.694 66.3055C145.122 63.8973 143.463 61.9707 141.055 61.9707Z" fill="black"/>
<g opacity="0.3">
<path d="M10.7979 55.0138C11.119 57.1545 11.4401 59.3486 11.7612 61.4892C12.5104 66.6267 13.3131 71.7642 14.0623 76.9017C14.9721 83.163 15.9354 89.4244 16.8451 95.6857C17.6479 101.037 18.4506 106.442 19.2533 111.794C19.5209 113.56 19.7885 115.379 20.0561 117.145C20.1631 118.002 20.2701 118.858 20.4307 119.661C20.4307 119.714 20.4307 119.714 20.4307 119.768C20.5377 120.517 21.4475 120.892 22.1432 120.731C22.9459 120.517 23.2135 119.768 23.1065 119.019C22.7854 116.878 22.4643 114.684 22.1432 112.543C21.394 107.406 20.5912 102.268 19.842 97.1306C18.9323 90.8693 17.969 84.608 17.0592 78.3466C16.2565 72.9951 15.4537 67.59 14.651 62.2384C14.3834 60.4724 14.1158 58.6529 13.8483 56.8869C13.7412 56.0306 13.6342 55.1744 13.4737 54.3716C13.4737 54.3181 13.4737 54.3181 13.4737 54.2646C13.3666 53.5154 12.4569 53.1408 11.7612 53.3013C10.9584 53.5154 10.6908 54.2646 10.7979 55.0138Z" fill="white"/>
</g>
</g>
<defs>
<clipPath id="clip0_2725_79040">
<rect width="144.599" height="137" fill="white" transform="translate(0.201172)"/>
</clipPath>
</defs>
</svg>
