<svg width="145" height="137" viewBox="0 0 145 137" fill="none" xmlns="http://www.w3.org/2000/svg">
<g clip-path="url(#clip0_3078_56815)">
<path d="M125.157 127.421C124.729 130.311 121.839 132.612 118.789 132.612H27.5446C24.4407 132.612 21.5509 130.257 21.0693 127.421L5.97785 35.8023C5.49621 32.966 7.63683 30.6113 10.7407 30.6113H134.201C137.305 30.6113 139.446 32.966 139.018 35.8023L125.157 127.421Z" fill="#455A64"/>
<path d="M102.305 0H25.457V108.209H119.43V17.3926L102.305 0Z" fill="#A48346"/>
<path d="M102.305 0L119.537 17.232H102.305V0Z" fill="#8B6828"/>
<path d="M98.5055 34.2502L90.8527 26.5439L72.4969 44.8998L54.141 26.5439L46.4883 34.2502L64.8441 52.6061L46.4883 70.9084L54.141 78.6146L72.4969 60.2588L90.8527 78.6146L98.5055 70.9084L80.1496 52.6061L98.5055 34.2502Z" fill="#EBBF6D"/>
<path d="M81.4342 62.0242C79.026 62.0242 76.4572 60.1512 75.708 57.7965L72.176 46.3977C71.4803 44.0965 68.9115 42.1699 66.4498 42.1699H3.89004C1.48184 42.1699 -0.177146 44.0965 0.250979 46.5047L15.5029 132.611C15.9311 135.02 18.2322 136.946 20.6939 136.946H129.117C131.525 136.946 133.826 134.966 134.201 132.611L144.69 66.3055C145.064 63.8973 143.405 61.9707 140.997 61.9707L81.4342 62.0242Z" fill="#DEDEDE"/>
<path d="M66.1836 102.375C66.1836 99.0033 67.5215 96.4346 70.1973 94.5615L71.4816 93.6518C72.7125 92.849 73.5687 92.2068 73.9969 91.7252C74.4785 91.19 74.6926 90.6014 74.6926 89.8521C74.6926 87.9256 73.0871 87.0158 69.9297 87.0158C68.4313 87.0158 66.9328 87.2299 65.3273 87.6045C63.7754 87.9791 62.277 88.5678 60.832 89.2635V81.6643C63.8289 80.2729 67.2539 79.5771 71 79.5771C75.0137 79.5771 78.2246 80.4334 80.6328 82.0924C82.9875 83.8049 84.1648 86.1061 84.1648 89.1029C84.1648 90.7619 83.7902 92.1533 83.041 93.1701C82.2918 94.1869 81.0074 95.3643 79.1879 96.6486C77.957 97.5584 77.1008 98.2006 76.5121 98.6822C75.977 99.1639 75.5488 99.699 75.2813 100.288C75.0137 100.876 74.8531 101.626 74.8531 102.482V103.445H66.1836V102.375ZM67.2004 114.202C66.3441 113.346 65.916 112.275 65.916 110.991C65.916 109.653 66.3441 108.583 67.2004 107.726C68.0566 106.87 69.1805 106.442 70.4648 106.442C71.7492 106.442 72.8195 106.87 73.7293 107.726C74.6391 108.583 75.0672 109.653 75.0672 110.937C75.0672 112.222 74.6391 113.292 73.7293 114.148C72.8195 115.004 71.7492 115.433 70.4648 115.433C69.127 115.486 68.0566 115.058 67.2004 114.202Z" fill="white"/>
<path opacity="0.47" d="M141.051 61.9707H134.254C134.415 63.5227 134.468 65.1281 134.468 66.6801C134.468 102.214 96.4187 131.059 49.4855 131.059C36.9094 131.059 24.9754 128.972 14.2188 125.28L15.5031 132.611C15.9312 135.02 18.2324 136.946 20.6941 136.946H129.117C131.525 136.946 133.826 134.966 134.201 132.611L144.69 66.3055C145.118 63.8973 143.459 61.9707 141.051 61.9707Z" fill="black" fill-opacity="0.13"/>
<g opacity="0.3">
<path d="M10.792 55.0138C11.1131 57.1545 11.4342 59.3486 11.7553 61.4892C12.5045 66.6267 13.3073 71.7642 14.0565 76.9017C14.9662 83.163 15.9295 89.4244 16.8393 95.6857C17.642 101.037 18.4448 106.442 19.2475 111.794C19.5151 113.56 19.7826 115.379 20.0502 117.145C20.1573 118.002 20.2643 118.858 20.4248 119.661C20.4248 119.714 20.4248 119.714 20.4248 119.768C20.5319 120.517 21.4416 120.892 22.1373 120.731C22.9401 120.517 23.2076 119.768 23.1006 119.019C22.7795 116.878 22.4584 114.684 22.1373 112.543C21.3881 107.406 20.5854 102.268 19.8362 97.1306C18.9264 90.8693 17.9631 84.608 17.0533 78.3466C16.2506 72.9951 15.4479 67.59 14.6451 62.2384C14.3776 60.4724 14.11 58.6529 13.8424 56.8869C13.7354 56.0306 13.6283 55.1744 13.4678 54.3716C13.4678 54.3181 13.4678 54.3181 13.4678 54.2646C13.3608 53.5154 12.451 53.1408 11.7553 53.3013C10.9526 53.5154 10.685 54.2646 10.792 55.0138Z" fill="white"/>
</g>
</g>
<defs>
<clipPath id="clip0_3078_56815">
<rect width="144.599" height="137" fill="white" transform="translate(0.199219)"/>
</clipPath>
</defs>
</svg>
