<svg width="250" height="244" viewBox="0 0 250 244" fill="none" xmlns="http://www.w3.org/2000/svg">
<g clip-path="url(#clip0_43_23893)">
<path d="M71.5645 1.89648H3.57031V114.458H71.5645V1.89648Z" fill="#4D4D4D"/>
<path d="M69.334 1.89648H1.33984V114.458H69.334V1.89648Z" fill="#3C3C3C"/>
<path d="M66.4912 4.18359H4.24219V112.227H66.4912V4.18359Z" fill="#1D1D1D"/>
<path d="M54.3306 18.2393H16.0664V98.1701H54.3306V18.2393Z" fill="#3C3C3C"/>
<path d="M16.0668 69.8907C16.011 62.4164 22.7044 55.1094 30.123 54.1053C33.637 53.6033 37.3742 54.3285 40.6651 52.934C46.5219 50.5355 48.4184 42.7265 54.3309 40.3838L54.6098 98.1705H16.0668V69.8907Z" fill="#4D4D4D"/>
<path d="M221.035 33.2865L215.457 33.3164L215.606 61.0942L221.184 61.0643L221.035 33.2865Z" fill="#4D4D4D"/>
<path d="M181.517 33.3182L167.07 33.3955L167.152 48.7346L181.599 48.6574L181.517 33.3182Z" fill="#3C3C3C"/>
<path d="M195.908 33.2625L181.461 33.3398L181.543 48.679L195.99 48.6016L195.908 33.2625Z" fill="#5E5E5E"/>
<path d="M167.11 37.6517C176.704 37.7075 186.353 37.6517 195.947 37.5402C196.171 37.5402 196.171 37.2613 195.947 37.2055C186.353 37.1497 176.704 37.2055 167.11 37.3728C166.943 37.3728 166.943 37.6517 167.11 37.6517Z" fill="#4D4D4D"/>
<path d="M184.369 48.4023L158.098 48.543L158.165 61.0374L184.436 60.8967L184.369 48.4023Z" fill="#3C3C3C"/>
<path d="M210.475 48.2909L184.203 48.4316L184.27 60.9261L210.542 60.7853L210.475 48.2909Z" fill="#5E5E5E"/>
<path d="M158.075 52.0418C175.533 52.2649 193.048 52.0418 210.451 51.7629C210.674 51.7629 210.674 51.484 210.451 51.4282C192.992 51.3166 175.478 51.3724 158.075 51.7071C157.907 51.7629 157.907 52.0418 158.075 52.0418Z" fill="#4D4D4D"/>
<path d="M249.998 61.0781H148.258V65.5404H249.998V61.0781Z" fill="#4D4D4D"/>
<path d="M169.065 63.1973H164.938V78.4806H169.065V63.1973Z" fill="#4D4D4D"/>
<path d="M230.698 63.1973H226.57V78.4806H230.698V63.1973Z" fill="#4D4D4D"/>
<path d="M226.472 22.9115L220.895 22.9414L221.099 61.1498L226.677 61.1199L226.472 22.9115Z" fill="#3C3C3C"/>
<path d="M235.248 30.0421L226.547 30.0889L226.713 61.046L235.415 60.9993L235.248 30.0421Z" fill="#5E5E5E"/>
<path d="M235.162 35.9779C235.162 36.0337 233.21 36.1452 230.812 36.1452C228.413 36.1452 226.461 36.0894 226.461 35.9779C226.461 35.9221 228.413 35.8105 230.812 35.8105C233.21 35.8105 235.162 35.9221 235.162 35.9779Z" fill="#4D4D4D"/>
<path d="M235.162 34.6947C235.162 34.7505 233.21 34.862 230.812 34.862C228.413 34.862 226.461 34.8062 226.461 34.6947C226.461 34.6389 228.413 34.5273 230.812 34.5273C233.21 34.5273 235.162 34.5831 235.162 34.6947Z" fill="#4D4D4D"/>
<path d="M235.162 56.3363C235.162 56.3921 233.21 56.5036 230.812 56.5036C228.413 56.5036 226.461 56.4478 226.461 56.3363C226.461 56.2805 228.413 56.1689 230.812 56.1689C233.21 56.1689 235.162 56.2247 235.162 56.3363Z" fill="#4D4D4D"/>
<path d="M235.162 54.9984C235.162 55.0542 233.21 55.1657 230.812 55.1657C228.413 55.1657 226.461 55.1099 226.461 54.9984C226.461 54.9426 228.413 54.8311 230.812 54.8311C233.21 54.8868 235.162 54.9426 235.162 54.9984Z" fill="#4D4D4D"/>
<path d="M230.925 52.1536C230.869 52.1536 230.758 49.03 230.758 45.1813C230.758 41.3326 230.814 38.209 230.925 38.209C230.981 38.209 231.092 41.3326 231.092 45.1813C231.092 49.03 231.037 52.1536 230.925 52.1536Z" fill="#4D4D4D"/>
<path d="M244.641 37.5957H235.215V60.967H244.641V37.5957Z" fill="#3C3C3C"/>
<path d="M225.177 29.4516C225.177 30.344 224.451 31.0691 223.559 31.0691C222.667 31.0691 221.941 30.344 221.941 29.4516C221.941 28.5591 222.667 27.834 223.559 27.834C224.507 27.834 225.177 28.5591 225.177 29.4516Z" fill="#4D4D4D"/>
<path d="M224.117 33.8584H223.113V56.5603H224.117V33.8584Z" fill="#4D4D4D"/>
<path d="M81.3795 211.122C81.3795 211.122 76.2479 215.026 81.1564 220.158C81.268 220.269 81.3796 220.269 81.4911 220.269L126.17 219.991C126.17 219.991 129.963 215.696 126.839 210.787L81.3795 211.122Z" fill="#3C3C3C"/>
<path d="M116.295 215.194C116.295 215.249 110.717 215.305 103.857 215.305C96.9958 215.305 91.418 215.249 91.418 215.194C91.418 215.138 96.9958 215.082 103.857 215.082C110.773 215.138 116.295 215.138 116.295 215.194Z" fill="#4D4D4D"/>
<path d="M109.381 216.811C109.381 216.867 106.76 216.922 103.525 216.922C100.29 216.922 97.668 216.867 97.668 216.811C97.668 216.755 100.29 216.699 103.525 216.699C106.76 216.755 109.381 216.755 109.381 216.811Z" fill="#4D4D4D"/>
<path d="M120.869 219.935C120.814 219.935 120.981 219.433 121.092 218.596C121.204 217.759 121.371 216.588 121.371 215.361C121.371 214.078 121.204 212.907 121.037 212.126C120.869 211.289 120.758 210.787 120.758 210.787C120.758 210.787 120.814 210.899 120.869 211.122C120.925 211.345 121.037 211.68 121.148 212.07C121.316 212.907 121.483 214.078 121.539 215.361C121.539 216.644 121.371 217.815 121.204 218.652C121.092 219.042 121.037 219.377 120.981 219.6C120.925 219.767 120.925 219.935 120.869 219.935Z" fill="#4D4D4D"/>
<path d="M124.219 210.787C124.219 210.787 124.275 210.899 124.442 211.122C124.498 211.233 124.553 211.345 124.665 211.512C124.721 211.68 124.832 211.847 124.888 212.07C125.055 212.46 125.167 212.962 125.334 213.576C125.446 214.134 125.502 214.803 125.502 215.473C125.502 216.142 125.446 216.755 125.334 217.369C125.223 217.927 125.111 218.429 124.944 218.875C124.888 219.098 124.777 219.265 124.721 219.433C124.665 219.6 124.609 219.712 124.553 219.823C124.442 220.046 124.386 220.158 124.386 220.158C124.33 220.158 124.609 219.656 124.888 218.819C125 218.429 125.167 217.927 125.223 217.369C125.334 216.811 125.39 216.198 125.39 215.528C125.39 214.859 125.334 214.245 125.223 213.688C125.111 213.13 125 212.628 124.832 212.237C124.442 211.289 124.219 210.787 124.219 210.787Z" fill="#4D4D4D"/>
<path d="M88.4626 219.991C88.4626 219.991 88.351 219.879 88.2395 219.712C88.1837 219.6 88.1279 219.489 88.0164 219.321C87.9606 219.154 87.849 218.987 87.7932 218.819C87.6259 218.429 87.4586 217.927 87.347 217.425C87.2355 216.867 87.1797 216.253 87.1797 215.64C87.1797 214.97 87.2912 214.413 87.4028 213.855C87.5144 213.297 87.6817 212.851 87.849 212.46C87.9048 212.293 88.0164 212.126 88.1279 211.958C88.1837 211.791 88.2953 211.68 88.351 211.568C88.4626 211.345 88.5742 211.289 88.5742 211.289C88.6299 211.289 88.2953 211.735 88.0164 212.516C87.849 212.907 87.7375 213.353 87.5701 213.911C87.4586 214.468 87.4028 215.026 87.347 215.696C87.347 216.309 87.4028 216.923 87.5144 217.48C87.6259 218.038 87.7375 218.485 87.9048 218.875C88.1837 219.489 88.4626 219.935 88.4626 219.991Z" fill="#4D4D4D"/>
<path d="M83.6115 221.051C83.6115 221.051 83.4999 220.939 83.3884 220.716C83.3326 220.604 83.221 220.493 83.1653 220.27C83.1095 220.102 82.9979 219.935 82.8864 219.712C82.719 219.266 82.4959 218.764 82.3844 218.15C82.2728 217.537 82.1612 216.867 82.1055 216.142C82.1055 215.417 82.1612 214.748 82.2728 214.134C82.3844 213.521 82.5517 212.963 82.719 212.517C82.7748 212.293 82.8864 212.126 82.9421 211.903C82.9979 211.736 83.1095 211.568 83.1653 211.457C83.2768 211.234 83.3884 211.122 83.3884 211.122C83.4442 211.122 83.1095 211.624 82.8306 212.517C82.6633 212.963 82.5517 213.521 82.4401 214.078C82.3286 214.692 82.2728 215.361 82.2728 216.086C82.2728 216.811 82.3844 217.481 82.4959 218.094C82.6075 218.708 82.7748 219.21 82.9421 219.656C83.3326 220.549 83.6673 221.051 83.6115 221.051Z" fill="#4D4D4D"/>
<path d="M124.555 233.656C124.555 233.991 124.555 242.19 124.555 242.19H107.988V233.656H124.555Z" fill="#3C3C3C"/>
<path d="M71.1173 238.007C71.1173 238.063 71.1173 238.174 71.1173 238.23C71.2288 240.796 73.46 242.804 76.0258 242.804H125.278V242.19H113.565C111.222 242.19 109.27 240.294 109.27 237.895C109.27 235.553 111.166 233.6 113.565 233.6H125.278V232.708L75.97 232.875C73.2369 232.931 71.0057 235.218 71.1173 238.007Z" fill="#4D4D4D"/>
<path d="M124.555 238.063C124.555 238.118 121.152 238.174 116.969 238.174C112.785 238.174 109.383 238.118 109.383 238.063C109.383 238.007 112.785 237.951 116.969 237.951C121.152 237.951 124.555 238.007 124.555 238.063Z" fill="#4D4D4D"/>
<path d="M124.328 239.959C124.328 240.015 121.093 240.071 117.133 240.071C113.173 240.071 109.938 240.015 109.938 239.959C109.938 239.903 113.173 239.848 117.133 239.848C121.093 239.903 124.328 239.903 124.328 239.959Z" fill="#4D4D4D"/>
<path d="M124.554 241.744C124.554 241.8 121.653 241.856 118.084 241.856C114.514 241.856 111.613 241.8 111.613 241.744C111.613 241.689 114.514 241.633 118.084 241.633C121.653 241.633 124.554 241.689 124.554 241.744Z" fill="#4D4D4D"/>
<path d="M124.552 236.333C124.552 236.389 121.205 236.445 117.133 236.445C113.006 236.445 109.715 236.389 109.715 236.333C109.715 236.277 113.062 236.222 117.133 236.222C121.205 236.222 124.552 236.277 124.552 236.333Z" fill="#4D4D4D"/>
<path d="M124.33 234.605C124.33 234.661 121.374 234.716 117.692 234.716C114.011 234.716 111.055 234.661 111.055 234.605C111.055 234.549 114.011 234.493 117.692 234.493C121.374 234.493 124.33 234.549 124.33 234.605Z" fill="#4D4D4D"/>
<path d="M77.0849 233.043C77.0849 233.043 76.5829 233.433 76.0251 234.27C75.4673 235.107 74.9095 236.39 74.9095 237.951C74.9095 239.458 75.5231 240.796 76.1367 241.577C76.6944 242.414 77.2522 242.748 77.1964 242.804C77.1964 242.804 77.0849 242.748 76.8618 242.525C76.6387 242.358 76.3598 242.023 76.0251 241.633C75.4115 240.852 74.7422 239.513 74.7422 237.896C74.7422 236.334 75.3558 234.939 75.9693 234.159C76.2482 233.768 76.5829 233.433 76.7502 233.266C76.9733 233.155 77.0849 233.043 77.0849 233.043Z" fill="#5E5E5E"/>
<path d="M75.413 232.875C75.413 232.931 74.911 233.265 74.3532 234.102C73.7954 234.939 73.2377 236.222 73.2377 237.784C73.2377 239.29 73.8512 240.628 74.4648 241.409C75.0226 242.246 75.5804 242.58 75.5246 242.636C75.5246 242.636 75.413 242.58 75.1899 242.357C74.9668 242.19 74.6879 241.855 74.3532 241.465C73.7397 240.684 73.0703 239.345 73.0703 237.728C73.0703 236.166 73.6839 234.771 74.2974 233.991C74.5763 233.6 74.911 233.265 75.0783 233.098C75.3015 232.987 75.413 232.875 75.413 232.875Z" fill="#5E5E5E"/>
<path d="M108.936 233.043C108.936 233.043 108.434 233.433 107.877 234.27C107.319 235.107 106.761 236.39 106.761 237.951C106.761 239.458 107.375 240.796 107.988 241.577C108.546 242.414 109.104 242.748 109.048 242.804C109.048 242.804 108.936 242.748 108.713 242.525C108.49 242.358 108.211 242.023 107.877 241.633C107.263 240.852 106.594 239.513 106.594 237.896C106.594 236.334 107.207 234.939 107.821 234.159C108.1 233.768 108.434 233.433 108.602 233.266C108.769 233.155 108.881 233.043 108.936 233.043Z" fill="#5E5E5E"/>
<path d="M107.261 232.875C107.261 232.931 106.759 233.265 106.201 234.102C105.643 234.939 105.085 236.222 105.085 237.784C105.085 239.29 105.699 240.628 106.312 241.409C106.87 242.246 107.428 242.58 107.372 242.636C107.372 242.636 107.261 242.58 107.038 242.357C106.814 242.19 106.536 241.855 106.201 241.465C105.587 240.684 104.918 239.345 104.918 237.728C104.918 236.166 105.532 234.771 106.145 233.991C106.424 233.6 106.759 233.265 106.926 233.098C107.093 232.987 107.261 232.875 107.261 232.875Z" fill="#5E5E5E"/>
<path d="M82.7182 239.234C82.7182 238.063 82.6624 236.892 82.6624 235.776C82.6624 235.497 82.6624 235.162 82.5508 234.884C82.4393 234.605 82.2162 234.326 81.8815 234.326C81.4353 234.158 80.7659 234.493 80.487 234.995C80.2081 235.497 80.1523 236.111 80.1523 236.724C80.1523 237.617 80.2081 238.565 80.2639 239.457C80.3197 239.904 80.3755 240.35 80.5986 240.74C80.8217 241.131 81.2121 241.41 81.6584 241.354C82.1046 241.298 82.4393 240.963 82.6066 240.573C82.7182 240.071 82.7182 239.625 82.7182 239.234Z" fill="#5E5E5E"/>
<path d="M101.851 238.23C101.851 238.286 98.2813 238.341 93.8748 238.341C89.4683 238.341 85.8984 238.286 85.8984 238.23C85.8984 238.174 89.4683 238.118 93.8748 238.118C98.2813 238.118 101.851 238.174 101.851 238.23Z" fill="#5E5E5E"/>
<path d="M79.428 232.708L79.3164 224.62H83.7229L83.8903 232.708H79.428Z" fill="#5E5E5E"/>
<path d="M83.444 226.071C83.444 226.126 82.5516 226.182 81.3802 226.182C80.2646 226.182 79.3164 226.126 79.3164 226.071C79.3164 226.015 80.2089 225.959 81.3802 225.959C82.5516 225.959 83.444 226.015 83.444 226.071Z" fill="#4D4D4D"/>
<path d="M83.444 227.297C83.444 227.353 82.5516 227.409 81.3802 227.409C80.2646 227.409 79.3164 227.353 79.3164 227.297C79.3164 227.241 80.2089 227.186 81.3802 227.186C82.5516 227.241 83.444 227.241 83.444 227.297Z" fill="#4D4D4D"/>
<path d="M83.444 228.58C83.444 228.636 82.5516 228.692 81.3802 228.692C80.2646 228.692 79.3164 228.636 79.3164 228.58C79.3164 228.525 80.2089 228.469 81.3802 228.469C82.5516 228.469 83.444 228.525 83.444 228.58Z" fill="#4D4D4D"/>
<path d="M83.444 229.808C83.444 229.864 82.5516 229.919 81.3802 229.919C80.2646 229.919 79.3164 229.864 79.3164 229.808C79.3164 229.752 80.2089 229.696 81.3802 229.696C82.5516 229.696 83.444 229.752 83.444 229.808Z" fill="#4D4D4D"/>
<path d="M83.444 231.09C83.444 231.146 82.5516 231.202 81.3802 231.202C80.2646 231.202 79.3164 231.146 79.3164 231.09C79.3164 231.034 80.2089 230.979 81.3802 230.979C82.5516 230.979 83.444 231.034 83.444 231.09Z" fill="#4D4D4D"/>
<path d="M79.0938 224.396H128.012C128.625 227.074 128.514 230.03 128.012 233.154H79.3169V232.54H82.2731C83.054 232.54 83.6676 231.927 83.6676 231.146V226.293C83.6676 225.512 83.054 224.899 82.2731 224.899H79.0938V224.396Z" fill="#3C3C3C"/>
<path d="M90.6418 228.803H91.4785C91.5343 228.803 91.5343 228.803 91.5901 228.803C91.6458 228.859 91.7016 228.915 91.7016 228.971V229.026C91.7016 229.082 91.6458 229.138 91.6458 229.25C91.5343 229.64 91.3669 229.919 91.1438 230.198C90.9207 230.421 90.6976 230.532 90.4745 230.532C90.4187 230.532 90.4187 230.532 90.3629 230.532C90.1398 230.477 89.9725 230.365 89.8051 230.142C89.6378 229.863 89.582 229.528 89.582 229.138C89.582 228.915 89.6378 228.692 89.6936 228.413C89.8051 228.022 89.9725 227.744 90.1956 227.465C90.4187 227.186 90.6976 227.074 90.9207 227.074C91.0323 227.074 91.1438 227.074 91.2554 227.13C91.4785 227.242 91.6458 227.409 91.7574 227.744V227.799C91.7574 227.855 91.7574 227.855 91.7574 227.911C91.7016 227.967 91.6458 228.022 91.5901 228.022H91.5343C91.4785 228.022 91.4227 227.967 91.4227 227.911C91.4227 227.855 91.3669 227.799 91.3112 227.744C91.1996 227.576 91.0881 227.52 90.9207 227.52C90.8092 227.52 90.7534 227.576 90.6418 227.632C90.4745 227.744 90.3072 227.967 90.1956 228.246C90.084 228.58 90.0283 228.859 90.0283 229.194C90.0283 229.473 90.084 229.752 90.1956 229.919C90.3072 230.142 90.4187 230.254 90.6418 230.254C90.7534 230.254 90.9207 230.198 91.0323 230.03C91.1996 229.863 91.3669 229.584 91.4785 229.25C91.0881 229.25 90.9207 229.25 90.9207 229.25C90.8092 229.25 90.7534 229.138 90.6976 229.026V228.971C90.4745 228.803 90.5303 228.803 90.6418 228.803Z" fill="#1D1D1D"/>
<path d="M93.4294 227.186V227.241C93.4852 227.353 93.6526 228.357 93.9872 230.253V230.309C93.9872 230.365 93.9872 230.365 93.9872 230.421C93.9315 230.477 93.9315 230.532 93.8199 230.532C93.8199 230.532 93.8199 230.532 93.7641 230.532C93.7083 230.532 93.6526 230.477 93.6526 230.421L93.4852 229.417H92.4812L91.9792 230.421C91.9792 230.421 91.9792 230.421 91.9792 230.477C91.9234 230.532 91.8676 230.588 91.8119 230.588C91.7561 230.588 91.7561 230.588 91.7003 230.532C91.6445 230.477 91.6445 230.421 91.6445 230.365V230.309C91.7003 230.253 91.7003 230.142 91.8119 229.975C92.537 228.413 92.9274 227.52 93.0948 227.241C93.1506 227.186 93.2063 227.13 93.2621 227.13C93.3179 227.13 93.3737 227.13 93.4294 227.186ZM93.2063 227.855L92.6486 228.971H93.4294L93.2063 227.855Z" fill="#1D1D1D"/>
<path d="M96.1644 230.532H94.7142C94.6584 230.532 94.6584 230.532 94.6027 230.477C94.5469 230.421 94.5469 230.365 94.5469 230.309C94.5469 230.253 94.6584 229.249 94.9373 227.297V227.241C94.9931 227.186 94.9931 227.13 95.1047 227.13C95.1604 227.13 95.1604 227.13 95.1604 227.13C95.2162 227.186 95.272 227.241 95.272 227.297C95.272 227.409 95.2162 227.688 95.1604 228.134C94.9931 229.417 94.8815 230.086 94.8815 230.198H96.1087C96.1645 230.198 96.1645 230.198 96.2202 230.198C96.276 230.253 96.3318 230.309 96.3318 230.365V230.421C96.276 230.477 96.2202 230.477 96.1644 230.532Z" fill="#1D1D1D"/>
<path d="M98.1716 227.186V227.241C98.2274 227.353 98.3947 228.357 98.7294 230.253V230.309C98.7294 230.365 98.7294 230.365 98.7294 230.421C98.6736 230.477 98.6736 230.532 98.5621 230.532C98.5621 230.532 98.5621 230.532 98.5063 230.532C98.4505 230.532 98.3947 230.477 98.3947 230.421L98.2274 229.417H97.2234L96.7214 230.421C96.7214 230.421 96.7214 230.421 96.7214 230.477C96.6656 230.532 96.6098 230.588 96.5541 230.588C96.4983 230.588 96.4983 230.588 96.4425 230.532C96.3867 230.477 96.3867 230.421 96.3867 230.365V230.309C96.4425 230.253 96.4425 230.142 96.5541 229.975C97.2792 228.413 97.6696 227.52 97.837 227.241C97.8927 227.186 97.9485 227.13 98.0043 227.13C98.0601 227.13 98.1159 227.13 98.1716 227.186ZM97.9485 227.855L97.3907 228.971H98.1716L97.9485 227.855Z" fill="#1D1D1D"/>
<path d="M100.513 228.915C100.624 229.25 100.736 229.473 100.792 229.64C100.959 230.086 101.015 230.309 101.015 230.309C101.015 230.365 101.015 230.365 100.959 230.421C100.903 230.477 100.847 230.477 100.792 230.477C100.736 230.477 100.68 230.421 100.624 230.365C100.624 230.309 100.624 230.309 100.624 230.309C100.569 230.142 100.401 229.807 100.234 229.25L99.3972 230.365C99.3414 230.421 99.2856 230.477 99.2298 230.477C99.1741 230.477 99.1741 230.477 99.1183 230.477C99.0625 230.421 99.0625 230.421 99.0625 230.309C99.0625 230.309 99.0625 230.309 99.0625 230.254C99.0625 230.254 99.1183 230.198 99.1741 230.086C99.4529 229.752 99.7876 229.305 100.122 228.803C100.067 228.692 100.067 228.636 100.011 228.525C99.6761 227.688 99.5645 227.242 99.5645 227.242C99.5645 227.186 99.5645 227.186 99.5645 227.13C99.6203 227.074 99.6203 227.019 99.7318 227.019C99.7876 227.019 99.8434 227.074 99.8992 227.13L100.401 228.469L101.405 227.13C101.461 227.074 101.517 227.074 101.573 227.074C101.628 227.074 101.628 227.074 101.628 227.074C101.684 227.13 101.74 227.186 101.74 227.242V227.297L100.513 228.915Z" fill="#1D1D1D"/>
<path d="M104.139 227.13H104.195C104.251 227.186 104.306 227.186 104.306 227.297C104.083 229.194 103.916 230.254 103.916 230.365C103.86 230.7 103.749 230.979 103.581 231.146C103.358 231.481 103.023 231.648 102.577 231.648C102.466 231.648 102.298 231.592 102.131 231.537C101.852 231.425 101.685 231.258 101.629 231.09C101.629 231.09 101.629 231.035 101.629 230.979C101.629 230.923 101.629 230.923 101.629 230.867C101.685 230.812 101.74 230.756 101.796 230.756C101.852 230.756 101.908 230.756 101.908 230.811C102.131 231.09 102.354 231.258 102.689 231.258C102.912 231.258 103.135 231.146 103.246 230.979C103.414 230.756 103.525 230.421 103.581 230.031C103.525 230.142 103.47 230.198 103.358 230.254C103.191 230.365 103.023 230.421 102.856 230.421C102.8 230.421 102.8 230.421 102.744 230.421C102.521 230.365 102.354 230.254 102.187 230.031C102.019 229.752 101.964 229.417 101.964 229.027C101.964 228.859 101.964 228.636 101.964 228.469C101.964 228.19 102.075 227.744 102.187 227.186V227.13C102.242 227.074 102.242 227.019 102.354 227.019C102.41 227.019 102.41 227.019 102.466 227.019C102.521 227.074 102.577 227.074 102.577 227.186C102.577 227.297 102.577 227.521 102.521 227.855C102.466 228.357 102.41 228.748 102.41 228.859C102.41 229.194 102.466 229.473 102.521 229.64C102.633 229.863 102.744 229.975 102.968 229.975H103.023C103.191 229.919 103.302 229.807 103.47 229.64C103.637 229.417 103.749 229.138 103.86 228.803L104.083 227.13V227.074C104.027 227.13 104.083 227.13 104.139 227.13Z" fill="#1D1D1D"/>
<path d="M126.115 233.266C126.06 233.266 126.004 231.258 126.004 228.748C126.004 226.238 126.06 224.229 126.115 224.229C126.171 224.229 126.227 226.238 126.227 228.748C126.227 231.258 126.171 233.266 126.115 233.266Z" fill="#5E5E5E"/>
<path d="M86.1233 233.266C86.0675 233.266 86.0117 231.258 86.0117 228.748C86.0117 226.238 86.0675 224.229 86.1233 224.229C86.1791 224.229 86.2348 226.238 86.2348 228.748C86.2348 231.258 86.1791 233.266 86.1233 233.266Z" fill="#4D4D4D"/>
<path d="M127.006 233.266C126.95 233.266 126.895 231.258 126.895 228.748C126.895 226.238 126.95 224.229 127.006 224.229C127.062 224.229 127.118 226.238 127.118 228.748C127.062 231.258 127.062 233.266 127.006 233.266Z" fill="#5E5E5E"/>
<path d="M85.342 233.266C85.2862 233.266 85.2305 231.258 85.2305 228.748C85.2305 226.238 85.2862 224.229 85.342 224.229C85.3978 224.229 85.4536 226.238 85.4536 228.748C85.3978 231.258 85.3978 233.266 85.342 233.266Z" fill="#4D4D4D"/>
<path d="M114.29 225.792C115.629 226.852 117.414 228.302 119.477 229.92L119.533 229.975H119.477C119.254 230.031 119.031 230.087 118.808 230.143C117.246 230.533 115.74 230.924 114.457 231.314C112.84 230.645 111.445 230.031 110.497 229.641C109.995 229.418 109.66 229.25 109.382 229.139C109.27 229.083 109.158 229.027 109.103 229.027C109.047 229.027 109.047 229.027 109.047 228.971C109.047 228.971 109.103 228.971 109.103 229.027C109.158 229.083 109.27 229.083 109.382 229.139C109.66 229.25 110.051 229.418 110.497 229.585C111.445 229.975 112.84 230.589 114.457 231.258C115.74 230.924 117.246 230.533 118.808 230.087C119.031 230.031 119.254 229.975 119.477 229.92V229.975C117.414 228.358 115.573 226.852 114.29 225.792Z" fill="#4D4D4D"/>
<path d="M118.972 229.25L119.251 229.529L119.642 229.473L119.474 229.808L119.642 230.142L119.251 230.087L119.028 230.366L118.972 229.975L118.582 229.864L118.917 229.64L118.972 229.25Z" fill="#4D4D4D"/>
<path d="M114.008 230.923L114.231 231.09L114.455 231.034L114.343 231.258L114.51 231.425H114.231L114.064 231.648L114.008 231.369L113.785 231.313L114.008 231.146V230.923Z" fill="#4D4D4D"/>
<path d="M108.543 228.692H108.822L109.045 228.469L109.101 228.748L109.38 228.859L109.157 229.027V229.305L108.878 229.138L108.599 229.194L108.71 228.915L108.543 228.692Z" fill="#4D4D4D"/>
<path d="M121.316 225.847H121.595L121.763 225.624L121.874 225.903L122.153 226.014L121.874 226.182V226.461L121.651 226.293L121.372 226.349L121.484 226.07L121.316 225.847Z" fill="#4D4D4D"/>
<path d="M114.008 225.624H114.231L114.342 225.513L114.398 225.68L114.566 225.736L114.398 225.847V226.07L114.231 225.903L114.064 225.959L114.119 225.792L114.008 225.624Z" fill="#4D4D4D"/>
<path d="M121.705 226.07C121.705 226.07 120.031 226.014 117.968 225.958C115.904 225.847 114.23 225.791 114.23 225.735C114.23 225.735 115.904 225.791 117.968 225.847C120.031 225.958 121.705 226.014 121.705 226.07Z" fill="#4D4D4D"/>
<path d="M123.607 224.342H74.0196C73.3503 222.891 73.1829 221.441 74.0196 220.214H123.607C124.276 221.72 124.22 223.059 123.607 224.342Z" fill="#4D4D4D"/>
<path d="M111.167 221.385H84.2812V222.891H111.167V221.385Z" fill="#3C3C3C"/>
<path d="M75.9179 224.341C75.9179 224.341 75.7506 224.174 75.5275 223.839C75.3044 223.505 75.137 223.003 75.0812 222.389C75.0255 221.775 75.137 221.218 75.2486 220.883C75.3601 220.493 75.5275 220.325 75.5275 220.325C75.5275 220.325 75.4717 220.548 75.3601 220.939C75.2486 221.329 75.1928 221.831 75.2486 222.389C75.3044 222.947 75.4717 223.449 75.639 223.783C75.8064 224.118 75.9179 224.341 75.9179 224.341Z" fill="#4D4D4D"/>
<path d="M76.9765 224.341C76.9765 224.341 76.8092 224.174 76.5861 223.839C76.363 223.505 76.1956 223.003 76.1398 222.389C76.0841 221.775 76.1956 221.218 76.3072 220.883C76.4187 220.493 76.5861 220.325 76.5861 220.325C76.5861 220.325 76.5303 220.548 76.4187 220.939C76.3072 221.329 76.2514 221.831 76.3072 222.389C76.363 222.947 76.5303 223.449 76.6976 223.783C76.865 224.118 77.0323 224.341 76.9765 224.341Z" fill="#4D4D4D"/>
<path d="M121.599 224.229C121.543 224.229 121.934 223.337 121.934 222.221C121.934 221.106 121.543 220.213 121.599 220.213C121.655 220.158 122.101 221.05 122.101 222.221C122.101 223.449 121.599 224.285 121.599 224.229Z" fill="#5E5E5E"/>
<path d="M120.65 224.23C120.594 224.23 120.817 223.337 120.817 222.277C120.817 221.162 120.594 220.325 120.65 220.325C120.705 220.325 120.984 221.162 120.984 222.277C120.984 223.393 120.705 224.285 120.65 224.23Z" fill="#5E5E5E"/>
<path d="M151.941 205.098L82.2734 205.042C73.9066 205.042 67.1016 198.237 67.1016 189.871L67.1573 15.1718C67.1573 6.805 73.9623 0 82.3291 0L151.997 0.0557787C160.363 0.0557787 167.168 6.86078 167.168 15.2276L167.113 189.926C167.113 198.293 160.308 205.098 151.941 205.098Z" fill="#263238"/>
<path d="M151.773 6.2473H138.275C136.49 6.2473 134.984 7.8091 134.984 9.6498V12.1041C134.984 14.0005 133.534 15.5066 131.693 15.5066H105.365C103.581 15.5066 102.075 13.9448 102.075 12.0483V9.59402C102.075 7.69755 100.624 6.19152 98.7836 6.13574H94.0424H82.2173C76.3606 6.13574 71.5636 10.8769 71.5636 16.7895L71.5078 187.305C71.5078 193.162 76.249 197.959 82.1058 197.959L151.662 198.014C157.519 198.014 162.315 193.273 162.315 187.361L162.371 16.8452C162.371 11.0443 157.63 6.30308 151.773 6.2473Z" fill="#3E3E3E"/>
<path d="M163.153 33.3558C163.153 33.4116 142.627 33.5231 117.303 33.5231C91.9797 33.5231 71.4531 33.4674 71.4531 33.3558C71.4531 33.3 91.9797 33.1885 117.303 33.1885C142.627 33.2443 163.153 33.3 163.153 33.3558Z" fill="white"/>
<path d="M81.0461 27.0526C80.9903 27.0526 80.9346 27.0526 80.8788 26.9968L78.2014 24.6541C78.1456 24.5983 78.0898 24.5425 78.0898 24.431C78.0898 24.3752 78.1456 24.2636 78.2014 24.2079L80.8788 22.0325C80.9903 21.9209 81.1577 21.9767 81.2692 22.0883C81.3808 22.1998 81.325 22.3672 81.2135 22.4787L78.815 24.4868L81.2135 26.6063C81.325 26.7179 81.325 26.8852 81.2135 26.9968C81.2135 26.9968 81.1019 27.0526 81.0461 27.0526Z" fill="white"/>
<path d="M138.888 24.264C138.888 24.3198 130.242 24.4314 119.588 24.4314C108.935 24.4314 100.289 24.3756 100.289 24.264C100.289 24.2082 108.935 24.0967 119.588 24.0967C130.242 24.1525 138.888 24.2082 138.888 24.264Z" fill="white"/>
<path d="M150.043 24.2638C150.043 24.8216 149.597 25.2678 149.039 25.2678C148.481 25.2678 148.035 24.8216 148.035 24.2638C148.035 23.706 148.481 23.2598 149.039 23.2598C149.597 23.2598 150.043 23.706 150.043 24.2638Z" fill="#263238"/>
<path d="M152.946 24.2638C152.946 24.8216 152.499 25.2678 151.942 25.2678C151.384 25.2678 150.938 24.8216 150.938 24.2638C150.938 23.706 151.384 23.2598 151.942 23.2598C152.499 23.2598 152.946 23.706 152.946 24.2638Z" fill="white"/>
<path d="M155.789 24.2638C155.789 24.8216 155.343 25.2678 154.785 25.2678C154.227 25.2678 153.781 24.8216 153.781 24.2638C153.781 23.706 154.227 23.2598 154.785 23.2598C155.343 23.2598 155.789 23.706 155.789 24.2638Z" fill="#263238"/>
<path d="M108.602 70.8388C108.602 71.5081 108.323 71.8986 107.877 71.8986C107.654 71.8986 107.487 71.787 107.375 71.5639C107.208 71.787 106.985 71.8986 106.706 71.8986C106.204 71.8986 105.813 71.5081 105.813 70.9503C105.813 70.3925 106.204 70.0021 106.706 70.0021C106.985 70.0021 107.208 70.1137 107.319 70.281V70.0579H107.71V71.3408C107.71 71.5081 107.821 71.6197 107.877 71.6197C108.1 71.6197 108.212 71.3966 108.212 70.9503C108.212 70.1694 107.654 69.6116 106.761 69.6116C105.869 69.6116 105.311 70.1694 105.311 71.0061C105.311 71.8428 105.869 72.4006 106.761 72.4006C106.985 72.4006 107.263 72.3448 107.487 72.2332L107.598 72.5121C107.375 72.6237 107.04 72.6795 106.761 72.6795C105.702 72.6795 104.977 71.9543 104.977 70.9503C104.977 69.9463 105.702 69.277 106.761 69.277C107.877 69.1654 108.602 69.8905 108.602 70.8388ZM107.375 70.8946C107.375 70.5041 107.152 70.3368 106.817 70.3368C106.483 70.3368 106.259 70.5599 106.259 70.8946C106.259 71.2292 106.483 71.5081 106.817 71.5081C107.152 71.5081 107.375 71.285 107.375 70.8946Z" fill="white"/>
<path d="M129.686 71.8431C129.686 71.8989 125.67 72.0105 120.649 72.0105C115.685 72.0105 111.613 71.9547 111.613 71.8431C111.613 71.7873 115.629 71.6758 120.649 71.6758C125.67 71.6758 129.686 71.7316 129.686 71.8431Z" fill="white"/>
<path d="M94.0441 97.3334C94.0441 97.3891 93.4863 97.5007 92.817 97.5007C92.1476 97.5007 91.5898 97.4449 91.5898 97.3334C91.5898 97.2776 92.1476 97.166 92.817 97.166C93.4863 97.166 94.0441 97.2776 94.0441 97.3334Z" fill="white"/>
<path d="M99.9555 103.358C99.9555 103.414 96.9434 103.525 93.2063 103.525C89.4691 103.525 86.457 103.469 86.457 103.358C86.457 103.246 89.4691 103.19 93.2063 103.19C96.9434 103.246 99.9555 103.302 99.9555 103.358Z" fill="white"/>
<path d="M121.154 97.3334C121.154 97.3891 119.425 97.5007 117.306 97.5007C115.186 97.5007 113.457 97.4449 113.457 97.3334C113.457 97.2776 115.186 97.166 117.306 97.166C119.425 97.166 121.154 97.2776 121.154 97.3334Z" fill="white"/>
<path d="M123.384 103.078C123.384 103.134 120.316 103.246 116.467 103.246C112.674 103.246 109.551 103.19 109.551 103.078C109.551 103.023 112.619 102.911 116.467 102.911C120.316 102.911 123.384 102.967 123.384 103.078Z" fill="white"/>
<path d="M146.142 97.389C146.142 97.4448 143.855 97.5563 141.011 97.5563C138.166 97.5563 135.879 97.5006 135.879 97.389C135.879 97.3332 138.166 97.2217 141.011 97.2217C143.799 97.2775 146.142 97.3332 146.142 97.389Z" fill="white"/>
<path d="M148.037 103.301C148.037 103.357 145.081 103.468 141.399 103.468C137.718 103.468 134.762 103.413 134.762 103.301C134.762 103.245 137.718 103.134 141.399 103.134C145.081 103.134 148.037 103.19 148.037 103.301Z" fill="white"/>
<path d="M128.794 120.705H90.9765C90.1956 120.705 89.582 120.091 89.582 119.31V110.441C89.582 109.66 90.1956 109.047 90.9765 109.047H128.794C129.575 109.047 130.189 109.66 130.189 110.441V119.31C130.189 120.091 129.575 120.705 128.794 120.705Z" fill="#A48346"/>
<path d="M122.49 115.071C122.49 115.126 117.246 115.238 110.776 115.238C104.306 115.238 99.0625 115.182 99.0625 115.071C99.0625 115.015 104.306 114.903 110.776 114.903C117.302 114.903 122.49 114.959 122.49 115.071Z" fill="white"/>
<path d="M143.854 120.76H134.874C134.149 120.76 133.535 120.146 133.535 119.421V110.106C133.535 109.381 134.149 108.768 134.874 108.768H143.854C144.579 108.768 145.193 109.381 145.193 110.106V119.421C145.193 120.202 144.579 120.76 143.854 120.76Z" fill="#3C3C3C"/>
<path d="M138.109 114.179H140.619L139.448 115.908L138.109 114.179Z" fill="white"/>
<path d="M130.186 129.406C130.186 129.461 123.716 129.573 115.74 129.573C107.763 129.573 101.293 129.517 101.293 129.406C101.293 129.35 107.763 129.238 115.74 129.238C123.716 129.238 130.186 129.294 130.186 129.406Z" fill="white"/>
<path d="M138.611 134.817C138.611 134.873 129.128 134.984 117.415 134.984C105.701 134.984 96.2188 134.928 96.2188 134.817C96.2188 134.705 105.701 134.649 117.415 134.649C129.128 134.705 138.611 134.761 138.611 134.817Z" fill="white"/>
<path d="M162.983 144.244C162.983 144.299 142.624 144.411 117.58 144.411C92.4792 144.411 72.1758 144.355 72.1758 144.244C72.1758 144.132 92.4792 144.076 117.58 144.076C142.624 144.132 162.983 144.188 162.983 144.244Z" fill="#263238"/>
<path d="M118.472 154.841C118.416 154.841 118.305 152.554 118.305 149.71C118.305 146.865 118.36 144.578 118.472 144.578C118.528 144.578 118.639 146.865 118.639 149.71C118.584 152.554 118.528 154.841 118.472 154.841Z" fill="#263238"/>
<path d="M118.196 198.014H81.3817C75.9154 198.014 71.4531 193.552 71.4531 188.086V154.842H118.196V198.014Z" fill="#3C3C3C"/>
<path d="M152.165 198.126L117.75 198.014V154.842H162.484V187.807C162.484 193.329 157.688 198.126 152.165 198.126Z" fill="#455A64"/>
<path d="M162.983 154.841C162.983 154.897 142.624 155.008 117.58 155.008C92.4792 155.008 72.1758 154.953 72.1758 154.841C72.1758 154.73 92.4792 154.674 117.58 154.674C142.624 154.674 162.983 154.785 162.983 154.841Z" fill="#263238"/>
<path d="M116.855 180.11C116.855 180.11 116.8 180.11 116.744 180.054C116.632 179.998 116.521 179.886 116.409 179.775C116.075 179.552 115.628 179.217 115.071 178.771C113.899 177.878 112.226 176.596 110.218 175.089C109.214 174.309 108.098 173.416 106.871 172.524C106.258 172.133 105.421 172.133 104.807 172.579C104.528 172.803 104.249 173.137 103.915 173.416C103.636 173.695 103.301 174.03 103.022 174.309C100.624 176.707 98.0023 179.384 95.2133 182.173C95.046 182.341 94.8787 182.508 94.7113 182.675L94.5998 182.787L94.4882 182.731C92.9264 181.56 91.4204 180.444 89.9702 179.384C89.245 178.827 88.5199 178.325 87.8506 177.767C87.237 177.209 86.3445 177.042 85.6194 177.376C85.2847 177.544 85.0059 177.823 84.6712 178.102C84.3923 178.38 84.0576 178.659 83.7787 178.938C83.2209 179.496 82.6631 179.998 82.1054 180.5C81.0456 181.504 80.0416 182.452 79.0933 183.289C77.2526 184.962 75.7466 186.357 74.7426 187.305C74.2406 187.751 73.8501 188.142 73.5712 188.365C73.4597 188.476 73.3481 188.588 73.2366 188.644C73.2923 188.588 73.4039 188.476 73.5154 188.365C73.7943 188.086 74.1848 187.695 74.6868 187.249C75.7466 186.245 77.1968 184.851 78.9818 183.177C79.8742 182.341 80.8782 181.392 81.9938 180.333C82.5516 179.831 83.1094 179.329 83.6672 178.771C83.9461 178.492 84.225 178.213 84.5596 177.934C84.727 177.823 84.8385 177.655 85.0058 177.488C85.1732 177.321 85.3405 177.209 85.5636 177.098C85.9541 176.874 86.4003 176.819 86.8465 176.93C87.0697 176.986 87.2928 177.042 87.5159 177.153C87.739 177.265 87.9063 177.376 88.0737 177.544C88.7988 178.046 89.4681 178.604 90.1933 179.161C91.6435 180.221 93.1495 181.392 94.7113 182.508H94.544C94.7113 182.341 94.8787 182.173 95.046 182.006C97.8349 179.217 100.457 176.54 102.855 174.141C103.134 173.862 103.469 173.528 103.747 173.249C104.026 172.97 104.305 172.635 104.64 172.412C105.365 171.91 106.313 171.91 106.983 172.356C108.21 173.249 109.325 174.141 110.329 174.922C112.337 176.484 113.955 177.767 115.126 178.715C115.684 179.161 116.13 179.496 116.409 179.775C116.521 179.886 116.632 179.998 116.744 180.054C116.855 180.054 116.855 180.11 116.855 180.11Z" fill="#263238"/>
<path d="M98.6146 165.606C98.5588 165.606 98.6146 165.272 98.4473 164.658C98.28 164.045 97.8895 163.152 96.9413 162.483C96.495 162.148 95.9372 161.869 95.2679 161.758C94.5986 161.646 93.8734 161.702 93.2041 161.925C92.5347 162.148 91.8654 162.65 91.3634 163.319C90.8614 163.933 90.6383 164.77 90.5825 165.606C90.5825 166.443 90.8614 167.28 91.3634 167.893C91.8096 168.563 92.479 169.009 93.2041 169.288C93.8734 169.567 94.5986 169.567 95.2679 169.455C95.9372 169.344 96.495 169.065 96.9413 168.73C97.8337 168.061 98.28 167.168 98.4473 166.555C98.6146 165.941 98.6146 165.606 98.6146 165.606C98.6146 165.606 98.6146 165.718 98.6146 165.885C98.6146 166.053 98.6146 166.332 98.5031 166.61C98.3915 167.224 98.0011 168.172 97.0528 168.897C96.6066 169.232 95.993 169.567 95.3237 169.678C94.6543 169.79 93.8734 169.79 93.1483 169.511C92.4232 169.232 91.6981 168.73 91.1961 168.061C90.694 167.391 90.3594 166.499 90.3594 165.606C90.3594 164.714 90.6383 163.821 91.1961 163.152C91.6981 162.483 92.4232 161.981 93.1483 161.702C93.8734 161.423 94.6543 161.423 95.3237 161.535C95.993 161.646 96.6066 161.981 97.0528 162.315C98.0011 163.041 98.3915 163.989 98.5031 164.602C98.5588 164.937 98.6146 165.16 98.6146 165.327C98.6146 165.495 98.6146 165.606 98.6146 165.606Z" fill="#263238"/>
<path d="M161.143 178.771C161.143 178.771 161.087 178.771 161.032 178.715C160.92 178.659 160.808 178.548 160.697 178.436C160.362 178.213 159.972 177.878 159.414 177.432C158.298 176.54 156.681 175.257 154.729 173.695C153.724 172.914 152.665 172.022 151.493 171.129C150.88 170.739 150.043 170.794 149.485 171.241C149.206 171.464 148.928 171.798 148.649 172.077C148.37 172.356 148.091 172.691 147.812 172.97C145.525 175.368 143.015 178.046 140.338 180.835C140.17 181.002 140.003 181.169 139.891 181.337L139.78 181.448L139.668 181.392C138.162 180.221 136.712 179.105 135.318 178.046C134.592 177.488 133.923 176.986 133.254 176.428C132.64 175.87 131.748 175.703 131.078 176.093C130.744 176.261 130.465 176.595 130.186 176.818C129.907 177.097 129.628 177.376 129.349 177.655C128.791 178.213 128.234 178.715 127.732 179.217C126.672 180.221 125.724 181.169 124.831 182.006C123.046 183.679 121.652 185.074 120.648 186.022C120.146 186.468 119.755 186.859 119.476 187.082C119.365 187.193 119.253 187.305 119.197 187.361C119.142 187.416 119.086 187.472 119.086 187.472C119.086 187.472 119.086 187.416 119.197 187.361C119.253 187.305 119.365 187.193 119.476 187.082C119.755 186.803 120.09 186.412 120.592 185.966C121.596 184.962 122.99 183.623 124.72 181.894C125.612 181.058 126.56 180.109 127.564 179.105C128.066 178.603 128.624 178.101 129.182 177.544C129.461 177.265 129.74 176.986 130.019 176.707C130.186 176.595 130.297 176.428 130.465 176.261C130.632 176.093 130.799 175.982 130.967 175.87C131.357 175.647 131.803 175.591 132.25 175.647C132.473 175.703 132.696 175.759 132.863 175.87C133.086 175.982 133.254 176.093 133.421 176.261C134.09 176.763 134.76 177.32 135.485 177.878C136.879 178.938 138.33 180.109 139.836 181.225H139.668C139.836 181.058 139.947 180.89 140.114 180.723C142.792 177.934 145.302 175.312 147.589 172.858C147.868 172.579 148.147 172.245 148.426 171.966C148.704 171.687 148.928 171.352 149.318 171.129C149.987 170.627 150.936 170.627 151.605 171.018C152.832 171.91 153.836 172.802 154.84 173.639C156.792 175.201 158.354 176.54 159.47 177.432C159.972 177.878 160.418 178.213 160.697 178.492C160.808 178.603 160.92 178.715 161.032 178.771C161.087 178.715 161.143 178.715 161.143 178.771Z" fill="#263238"/>
<path d="M142.181 164.38C142.125 164.38 142.181 164.045 142.014 163.432C141.846 162.818 141.456 161.926 140.508 161.256C140.061 160.922 139.504 160.643 138.834 160.531C138.165 160.42 137.44 160.475 136.77 160.698C136.101 160.922 135.432 161.424 134.93 162.093C134.428 162.706 134.205 163.543 134.149 164.38C134.149 165.216 134.428 166.053 134.93 166.667C135.376 167.336 136.045 167.782 136.77 168.061C137.44 168.34 138.165 168.34 138.834 168.229C139.504 168.117 140.061 167.838 140.508 167.503C141.4 166.834 141.846 165.942 142.014 165.328C142.125 164.714 142.125 164.38 142.181 164.38C142.181 164.38 142.181 164.491 142.181 164.659C142.181 164.826 142.181 165.105 142.069 165.384C141.958 165.997 141.567 166.946 140.619 167.671C140.173 168.005 139.559 168.34 138.89 168.452C138.221 168.563 137.44 168.563 136.715 168.284C135.99 168.005 135.264 167.503 134.762 166.834C134.26 166.165 133.926 165.272 133.926 164.38C133.926 163.487 134.205 162.595 134.762 161.926C135.264 161.256 135.99 160.754 136.715 160.475C137.44 160.196 138.221 160.196 138.89 160.308C139.559 160.42 140.173 160.754 140.619 161.089C141.567 161.814 141.958 162.762 142.069 163.376C142.125 163.71 142.181 163.934 142.181 164.101C142.181 164.268 142.181 164.38 142.181 164.38Z" fill="#263238"/>
<path d="M118.476 67.2133C125.623 67.2133 131.416 61.4196 131.416 54.2727C131.416 47.1258 125.623 41.332 118.476 41.332C111.329 41.332 105.535 47.1258 105.535 54.2727C105.535 61.4196 111.329 67.2133 118.476 67.2133Z" fill="#5E5E5E"/>
<path d="M126.843 64.0337C126.453 60.0734 123.106 56.6709 118.476 56.6709C113.902 56.6709 110.723 60.1292 110.109 64.0337C110.109 64.0337 112.954 67.1573 118.476 67.1015C123.998 67.1015 126.843 64.0337 126.843 64.0337Z" fill="#4D4D4D"/>
<path d="M123.493 53.3369C123.94 50.5695 122.06 47.9631 119.292 47.5154C116.525 47.0677 113.918 48.9482 113.471 51.7157C113.023 54.4831 114.904 57.0895 117.671 57.5372C120.438 57.9849 123.045 56.1043 123.493 53.3369Z" fill="#4D4D4D"/>
<path d="M126.785 63.5872C126.729 63.5872 126.729 62.6389 126.004 61.1887C125.614 60.4636 125.056 59.6827 124.163 58.9575C123.327 58.2324 122.211 57.5631 120.872 57.1168L120.594 57.0053L120.817 56.8937C121.598 56.4475 122.378 55.7782 122.825 54.8857C123.327 53.9932 123.55 52.8777 123.383 51.8179C123.215 50.7023 122.657 49.6425 121.821 48.8616C120.928 48.0807 119.757 47.5787 118.53 47.5787C117.303 47.5787 116.131 48.0249 115.239 48.8058C114.346 49.5867 113.789 50.6465 113.621 51.7621C113.454 52.8777 113.677 53.9375 114.123 54.8299C114.346 55.2762 114.681 55.6666 115.016 56.0013C115.35 56.3359 115.741 56.6148 116.131 56.838L116.354 57.0053L116.076 57.0611C114.737 57.4515 113.565 58.1209 112.785 58.9018C111.948 59.6827 111.446 60.5194 111.055 61.2445C110.665 61.9696 110.498 62.5832 110.386 62.9736C110.33 63.1967 110.275 63.3641 110.275 63.4756C110.275 63.5872 110.219 63.643 110.219 63.643C110.219 63.643 110.219 63.5872 110.219 63.4756C110.219 63.3641 110.275 63.1967 110.33 62.9736C110.442 62.5274 110.609 61.9138 110.944 61.1887C111.279 60.4636 111.836 59.5711 112.673 58.7902C113.51 58.0093 114.625 57.2842 116.02 56.8937L115.964 57.1168C115.573 56.8937 115.127 56.6148 114.793 56.2244C114.458 55.8897 114.123 55.4435 113.844 54.9973C113.342 54.049 113.119 52.9335 113.287 51.7621C113.454 50.5907 114.012 49.4752 114.96 48.6385C115.852 47.8018 117.135 47.2998 118.418 47.2998C119.701 47.2998 120.984 47.8018 121.876 48.6385C122.825 49.4752 123.383 50.5907 123.55 51.7621C123.717 52.9335 123.494 54.049 122.992 54.9973C122.49 55.9455 121.709 56.6706 120.872 57.1168V56.8937C122.267 57.34 123.383 58.0651 124.219 58.846C125.112 59.6269 125.669 60.4636 126.06 61.1887C126.227 61.5791 126.395 61.9138 126.45 62.1927C126.562 62.4716 126.618 62.7505 126.618 62.9736C126.673 63.1967 126.673 63.3083 126.673 63.4756C126.785 63.5314 126.785 63.5872 126.785 63.5872Z" fill="white"/>
<path d="M131.36 54.2724C131.36 54.2724 131.36 54.2166 131.36 54.0493C131.36 53.8819 131.36 53.7146 131.304 53.4357C131.304 53.3242 131.304 53.1568 131.249 52.9895C131.249 52.8222 131.193 52.6548 131.137 52.4317C131.081 52.0413 131.025 51.595 130.858 51.093C130.635 50.089 130.133 48.9176 129.408 47.6905C128.683 46.4634 127.567 45.1805 126.117 44.0649C124.667 42.9493 122.826 42.0569 120.706 41.6664C118.587 41.3317 116.244 41.3875 113.957 42.2242C113.399 42.3915 112.842 42.6704 112.284 42.9493C111.782 43.284 111.224 43.5629 110.722 43.9533C110.22 44.288 109.774 44.7342 109.272 45.1805C108.825 45.6825 108.379 46.1287 108.045 46.6865C107.264 47.7463 106.594 48.9176 106.204 50.2006C105.813 51.4835 105.59 52.8221 105.535 54.2166C105.535 55.6111 105.758 56.9498 106.204 58.2327C106.594 59.5156 107.264 60.6869 108.045 61.7467C108.435 62.3045 108.881 62.7508 109.272 63.2528C109.774 63.699 110.22 64.1452 110.722 64.4799C111.224 64.8703 111.782 65.1492 112.284 65.4839C112.842 65.7628 113.399 66.0417 113.957 66.209C116.188 67.0457 118.587 67.1573 120.706 66.7668C122.826 66.3764 124.667 65.4839 126.117 64.3683C127.567 63.2528 128.627 61.9699 129.408 60.7427C130.133 59.5156 130.635 58.3442 130.858 57.3402C131.025 56.8382 131.081 56.392 131.137 56.0015C131.193 55.8342 131.193 55.6111 131.249 55.4437C131.249 55.2764 131.248 55.1091 131.304 54.9975C131.304 54.7186 131.36 54.5513 131.36 54.384C131.36 54.3282 131.36 54.2724 131.36 54.2724C131.36 54.2724 131.36 54.3282 131.36 54.4955C131.36 54.6628 131.36 54.8302 131.36 55.1091C131.36 55.2206 131.36 55.388 131.36 55.5553C131.36 55.7226 131.304 55.89 131.304 56.1131C131.248 56.5035 131.193 56.9498 131.081 57.4518C130.858 58.4558 130.412 59.6829 129.687 60.9101C128.962 62.193 127.846 63.4759 126.396 64.6472C124.946 65.7628 123.049 66.711 120.929 67.1015C118.81 67.4919 116.356 67.4362 114.069 66.5437C113.455 66.3764 112.953 66.0417 112.34 65.8186C111.782 65.4839 111.224 65.205 110.722 64.8146C110.164 64.4241 109.718 63.9779 109.216 63.5317C108.77 63.0296 108.323 62.5834 107.933 62.0256C107.152 60.9658 106.483 59.7387 106.037 58.4C105.59 57.0613 105.367 55.6669 105.367 54.2724C105.367 52.8779 105.59 51.4835 106.037 50.1448C106.427 48.8061 107.152 47.6347 107.933 46.5192C108.323 45.9614 108.77 45.5151 109.216 45.0131C109.718 44.5669 110.164 44.1207 110.722 43.7302C111.224 43.3398 111.782 43.0051 112.34 42.7262C112.897 42.4473 113.455 42.1684 114.069 42.0011C116.356 41.1086 118.81 41.0529 120.929 41.4433C123.105 41.8338 124.946 42.782 126.396 43.8976C127.846 45.0131 128.962 46.3518 129.687 47.6347C130.412 48.9176 130.858 50.089 131.081 51.093C131.249 51.595 131.248 52.0413 131.304 52.4317C131.304 52.6548 131.36 52.8222 131.36 52.9895C131.36 53.1568 131.36 53.3242 131.36 53.4357C131.36 53.7146 131.36 53.8819 131.36 54.0493C131.416 54.1608 131.416 54.2724 131.36 54.2724Z" fill="white"/>
<path d="M65.0385 112.952C58.2335 116.466 53.0461 122.49 49.3089 129.184C45.5717 135.821 43.1732 143.128 40.7747 150.435L38.7109 187.863C46.6315 174.42 52.9345 158.635 54.6636 143.184C52.9345 143.017 51.1496 142.85 49.4204 142.738C52.9345 142.18 55.8908 139.67 57.7872 136.602C59.6837 133.59 60.632 130.076 61.5802 126.674C59.4606 127.008 57.2852 127.287 55.1656 127.622C60.1299 124.164 63.7556 118.809 65.0385 112.952Z" fill="#455A64"/>
<path d="M65.0385 112.952C58.2335 116.466 53.0461 122.49 49.3089 129.184C45.5717 135.821 43.1732 143.128 40.7747 150.435L38.7109 187.863C46.6315 174.42 52.9345 158.635 54.6636 143.184C52.9345 143.017 51.1496 142.85 49.4204 142.738C52.9345 142.18 55.8908 139.67 57.7872 136.602C59.6837 133.59 60.632 130.076 61.5802 126.674C59.4606 127.008 57.2852 127.287 55.1656 127.622C60.1299 124.164 63.7556 118.809 65.0385 112.952Z" fill="#455A64"/>
<path d="M37.5391 196.564C37.5391 196.564 20.4151 176.038 20.5824 156.459H27.499C27.499 156.459 19.9689 151.495 20.5824 148.762C21.196 145.973 21.3633 135.486 21.3633 135.486L27.6663 137.048C27.6663 137.048 22.9251 134.65 22.3116 130.913C21.698 127.175 23.706 109.772 23.706 109.772C23.706 109.772 31.4035 117.86 33.802 126.171C36.2005 134.482 42.3919 144.188 40.5512 169.456C38.7663 194.835 37.5391 196.564 37.5391 196.564Z" fill="#455A64"/>
<path d="M46.1858 198.516C46.1858 198.516 64.7601 186.133 68.8877 170.348L63.3099 168.842C63.3099 168.842 70.4495 166.499 70.5611 164.156C70.6727 161.814 72.848 153.335 72.848 153.335L67.4375 153.224C67.4375 153.224 71.7882 152.331 73.0711 149.487C74.354 146.642 76.5852 132.195 76.5852 132.195C76.5852 132.195 68.6088 137.048 64.8717 143.184C61.1345 149.319 53.9948 155.79 49.9788 176.539C45.9627 197.289 46.1858 198.516 46.1858 198.516Z" fill="#455A64"/>
<path d="M28.4477 127.733C28.4477 127.733 28.4477 127.789 28.5034 127.957C28.5592 128.124 28.615 128.347 28.6708 128.57C28.7823 129.128 29.0055 129.965 29.2286 131.024C29.4517 132.084 29.7306 133.367 30.0652 134.873C30.3441 136.379 30.7346 138.108 31.0693 140.005C31.7944 143.798 32.5753 148.372 33.3562 153.392C34.1371 158.467 34.918 164.045 35.5873 169.902C36.2567 175.759 36.7587 181.392 37.2049 186.468C37.5954 191.6 37.8743 196.174 38.0416 200.023C38.1531 201.975 38.2089 203.704 38.2089 205.266C38.2647 206.828 38.2647 208.11 38.3205 209.226C38.3205 210.286 38.3205 211.123 38.3763 211.736C38.3763 212.015 38.3763 212.238 38.3763 212.405C38.3763 212.238 38.3763 212.015 38.3205 211.736C38.3205 211.178 38.2647 210.342 38.2647 209.226C38.2089 208.166 38.2089 206.828 38.0974 205.266C38.0416 203.704 37.9858 201.975 37.8743 200.023C37.7069 196.174 37.3723 191.544 36.9818 186.468C36.5913 181.392 36.0336 175.759 35.3642 169.902C34.6949 164.045 33.914 158.467 33.1331 153.392C32.3522 148.316 31.627 143.798 30.9019 140.005C30.5673 138.108 30.2326 136.379 29.9537 134.873C29.6748 133.367 29.3959 132.084 29.1728 131.024C28.9497 129.965 28.7823 129.128 28.6708 128.57C28.615 128.291 28.5592 128.068 28.5592 127.957C28.4477 127.789 28.3919 127.733 28.4477 127.733Z" fill="#263238"/>
<path d="M35.1406 209.114C35.1406 209.114 19.4668 191.321 14.614 180.555L18.2954 178.994C15.618 179.44 12.8849 178.268 10.8211 176.539C8.75725 174.81 7.25123 172.523 5.7452 170.236L10.5979 169.4C6.19143 168.173 2.3427 165.16 0 161.2C5.68942 162.148 10.8768 165.272 15.116 169.177C18.5743 172.356 21.4748 176.037 24.2637 179.83C25.6582 181.671 26.8295 183.623 27.8336 185.687C30.5109 191.209 35.1406 202.588 35.1406 209.114Z" fill="#455A64"/>
<path d="M69.1112 142.515C69.1112 142.515 69.1112 142.57 69.0555 142.682C68.9997 142.794 68.8881 142.961 68.8324 143.184C68.6092 143.63 68.2746 144.3 67.8841 145.136C67.4379 145.973 66.9359 147.033 66.3781 148.26C65.8203 149.487 65.0952 150.881 64.4258 152.387C62.9756 155.455 61.3022 159.137 59.5173 163.32C57.7324 167.448 55.8359 172.022 53.9952 176.874C52.1545 181.727 50.4254 186.357 48.9751 190.652C47.5249 194.891 46.242 198.74 45.238 202.031C44.736 203.648 44.2897 205.154 43.8993 206.437C43.5088 207.72 43.1742 208.835 42.8953 209.784C42.6164 210.676 42.449 211.401 42.2817 211.903C42.2259 212.126 42.1702 212.294 42.1144 212.461C42.1702 212.35 42.1702 212.126 42.2817 211.903C42.3933 211.401 42.6164 210.676 42.8395 209.784C43.0626 208.891 43.3973 207.72 43.7877 206.437C44.1782 205.154 44.5686 203.648 45.0706 202.031C46.0747 198.795 47.3018 194.891 48.752 190.652C50.2023 186.412 51.8756 181.727 53.7721 176.874C55.6686 172.022 57.5651 167.448 59.35 163.32C61.1349 159.192 62.864 155.511 64.3143 152.443C65.0394 150.881 65.7087 149.543 66.3223 148.316C66.9359 147.088 67.4379 146.084 67.8841 145.192C68.3303 144.355 68.665 143.686 68.8881 143.24C68.9997 143.017 69.1112 142.849 69.167 142.738C69.1112 142.57 69.1112 142.515 69.1112 142.515Z" fill="#263238"/>
<path d="M36.4804 216.756C36.4804 216.756 36.4246 216.644 36.4246 216.421C36.3689 216.198 36.3131 215.863 36.2573 215.473C36.2015 215.082 36.1457 214.58 36.0342 213.967C35.9226 213.409 35.8111 212.74 35.6437 212.015C35.3648 210.564 34.9744 208.835 34.4724 206.939C33.9704 205.042 33.301 202.978 32.5201 200.859C31.7392 198.739 30.8468 196.787 30.0101 195.002C29.1176 193.217 28.3367 191.711 27.5558 190.428C27.2212 189.759 26.8307 189.201 26.5518 188.699C26.2729 188.197 25.994 187.751 25.7709 187.416C25.5478 187.082 25.3805 186.803 25.2689 186.635C25.1573 186.468 25.1016 186.356 25.1016 186.356C25.1016 186.356 25.1573 186.468 25.3247 186.635C25.492 186.858 25.6593 187.082 25.8825 187.416C26.1056 187.751 26.4403 188.197 26.7191 188.699C27.0538 189.201 27.3885 189.759 27.7789 190.372C28.5598 191.655 29.3965 193.217 30.289 194.946C31.1814 196.731 32.0181 198.684 32.8548 200.803C33.6357 202.923 34.305 204.987 34.8071 206.883C35.3091 208.779 35.6995 210.509 35.9226 211.959C36.09 212.684 36.1457 213.353 36.2573 213.967C36.3689 214.525 36.4246 215.082 36.4246 215.473C36.4804 215.863 36.4804 216.198 36.5362 216.421C36.4804 216.644 36.4804 216.756 36.4804 216.756Z" fill="#263238"/>
<path d="M57.1164 212.572H22.8125V219.545H57.1164V212.572Z" fill="#A48346"/>
<path d="M26.1055 219.601L29.8426 243.139H50.5365L53.9948 219.601H26.1055Z" fill="#A48346"/>
<path d="M55.0518 219.601C55.0518 219.657 48.5815 219.768 40.5493 219.768C32.5172 219.768 26.0469 219.712 26.0469 219.601C26.0469 219.545 32.5172 219.434 40.5493 219.434C48.5815 219.434 55.0518 219.489 55.0518 219.601Z" fill="#263238"/>
<g opacity="0.3">
<path d="M65.0385 112.952C58.2335 116.466 53.0461 122.49 49.3089 129.184C45.5717 135.821 43.1732 143.128 40.7747 150.435L38.7109 187.863C46.6315 174.42 52.9345 158.635 54.6636 143.184C52.9345 143.017 51.1496 142.85 49.4204 142.738C52.9345 142.18 55.8908 139.67 57.7872 136.602C59.6837 133.59 60.632 130.076 61.5802 126.674C59.4606 127.008 57.2852 127.287 55.1656 127.622C60.1299 124.164 63.7556 118.809 65.0385 112.952Z" fill="black"/>
</g>
<path d="M224.787 143.128C224.787 143.128 230.477 152.554 231.313 161.59C232.15 170.571 226.182 243.25 226.182 243.25H155.398C155.398 243.25 174.363 153.558 180.555 147.757L181.001 141.789L224.787 143.128Z" fill="#263238"/>
<path d="M227.801 150.323C227.801 150.323 227.856 150.769 227.801 151.606C227.745 152.443 227.577 153.67 227.131 155.176C226.685 156.682 225.848 158.467 224.51 160.252C223.84 161.144 223.004 162.037 222 162.818C220.996 163.599 219.88 164.324 218.653 165.049C217.426 165.774 216.143 166.443 214.804 167.28C213.521 168.117 212.183 169.009 211.123 170.236C210.063 171.463 209.171 172.969 208.613 174.643C208.055 176.316 207.72 178.101 207.441 179.942C207.162 181.782 207.051 183.679 206.772 185.631C206.493 187.583 206.158 189.536 205.433 191.488C204.708 193.384 203.593 195.225 202.031 196.62C200.469 198.07 198.573 199.13 196.62 200.022C192.716 201.807 188.588 202.978 185.13 205.042C183.401 206.102 181.895 207.385 180.723 208.947C179.552 210.508 178.827 212.293 178.269 214.022C177.154 217.537 176.652 221.106 175.703 224.286C175.592 224.676 175.48 225.067 175.369 225.457C175.257 225.848 175.09 226.238 174.978 226.628C174.644 227.354 174.365 228.079 174.03 228.804C173.695 229.529 173.305 230.143 172.914 230.756C172.691 231.035 172.468 231.37 172.301 231.649L171.966 232.095L171.631 232.485C169.902 234.716 167.95 236.39 166.054 237.617C164.157 238.844 162.428 239.681 160.922 240.183C159.416 240.685 158.245 240.964 157.408 241.131C157.017 241.187 156.683 241.242 156.46 241.298C156.683 241.242 156.962 241.187 157.408 241.131C158.245 240.964 159.416 240.685 160.866 240.127C162.316 239.569 164.101 238.732 165.942 237.505C167.783 236.278 169.735 234.549 171.464 232.374L171.799 231.983L172.078 231.537C172.301 231.258 172.468 230.923 172.691 230.645C173.082 230.031 173.472 229.362 173.807 228.692C174.197 228.023 174.476 227.298 174.755 226.573C174.867 226.182 175.034 225.792 175.146 225.457C175.257 225.067 175.369 224.676 175.48 224.286C176.373 221.106 176.875 217.592 177.99 214.022C178.548 212.238 179.329 210.453 180.5 208.835C181.672 207.273 183.233 205.879 184.963 204.819C188.477 202.699 192.548 201.528 196.453 199.743C198.405 198.851 200.246 197.791 201.752 196.396C203.258 195.002 204.429 193.217 205.099 191.376C205.824 189.48 206.158 187.528 206.437 185.631C206.716 183.679 206.884 181.782 207.107 179.942C207.386 178.101 207.72 176.316 208.278 174.587C208.892 172.914 209.784 171.408 210.844 170.125C211.959 168.898 213.298 167.949 214.581 167.113C215.92 166.332 217.203 165.607 218.43 164.937C219.657 164.212 220.772 163.543 221.776 162.706C222.781 161.925 223.561 161.033 224.287 160.196C225.625 158.411 226.462 156.682 226.964 155.176C227.466 153.67 227.633 152.443 227.689 151.662C227.745 151.271 227.745 150.937 227.745 150.714C227.801 150.435 227.801 150.323 227.801 150.323Z" fill="#455A64"/>
<path d="M229.808 156.961C229.808 156.961 229.864 157.072 229.92 157.24C229.976 157.407 230.087 157.686 230.143 158.077C230.31 158.857 230.422 160.029 230.087 161.479C229.753 162.929 229.083 164.658 227.745 166.276C226.462 167.949 224.677 169.567 222.613 171.184C220.605 172.858 218.262 174.643 216.533 177.153C215.641 178.436 214.971 179.886 214.637 181.504C214.302 183.121 214.19 184.794 214.079 186.524C213.967 188.253 213.8 190.038 213.354 191.823C212.907 193.608 212.238 195.337 211.346 197.01C209.561 200.357 206.883 203.425 203.481 205.656C200.078 207.887 196.23 208.947 192.883 210.62C191.21 211.457 189.592 212.461 188.309 213.688C187.026 214.971 186.022 216.477 185.297 218.039C183.847 221.218 183.289 224.509 182.452 227.465C182.062 228.971 181.616 230.421 181.114 231.76C180.556 233.099 179.942 234.326 179.161 235.442C178.38 236.557 177.544 237.45 176.651 238.23C176.205 238.621 175.759 238.956 175.313 239.346C174.866 239.625 174.42 239.96 173.918 240.238C172.077 241.298 170.348 241.856 168.898 242.191C167.448 242.525 166.276 242.525 165.496 242.525C165.105 242.525 164.826 242.47 164.603 242.47C164.38 242.47 164.324 242.47 164.324 242.47C164.324 242.47 164.436 242.47 164.603 242.47C164.826 242.47 165.105 242.47 165.496 242.47C166.276 242.414 167.392 242.414 168.842 242.079C170.293 241.745 171.966 241.187 173.807 240.127C174.253 239.904 174.699 239.569 175.145 239.234C175.592 238.9 176.038 238.565 176.484 238.175C177.376 237.394 178.213 236.446 178.938 235.386C179.663 234.326 180.333 233.099 180.835 231.76C181.337 230.421 181.783 228.971 182.173 227.521C182.954 224.565 183.568 221.218 184.962 218.039C185.687 216.421 186.691 214.915 187.974 213.632C189.313 212.349 190.931 211.345 192.604 210.508C196.006 208.835 199.855 207.72 203.202 205.544C206.549 203.369 209.17 200.301 210.955 197.01C211.848 195.337 212.517 193.608 212.963 191.878C213.409 190.149 213.633 188.364 213.688 186.635C213.8 184.906 213.911 183.177 214.246 181.559C214.581 179.942 215.306 178.436 216.198 177.153C217.983 174.587 220.326 172.802 222.39 171.129C224.454 169.455 226.239 167.894 227.521 166.276C228.804 164.658 229.529 162.929 229.864 161.535C230.199 160.085 230.087 158.969 229.976 158.188C229.976 157.351 229.808 156.961 229.808 156.961Z" fill="#455A64"/>
<path d="M157.965 106.425C157.965 106.425 162.539 138.108 169.623 141.175C173.192 142.737 176.037 141.399 177.989 137.829C179.942 134.259 184.906 108.378 184.906 108.378L171.184 108.043L170.682 113.175L165.383 103.302L157.965 106.425Z" fill="#936760"/>
<path d="M178.213 127.064C178.213 127.064 178.157 126.953 178.101 126.841C177.99 126.674 177.878 126.451 177.711 126.172C177.376 125.558 176.874 124.666 176.317 123.662C175.145 121.542 173.528 118.53 171.743 115.239C170.014 111.948 168.396 108.992 167.225 106.817C166.667 105.757 166.221 104.92 165.886 104.251C165.719 103.972 165.607 103.749 165.495 103.582C165.384 103.414 165.384 103.358 165.328 103.358C165.328 103.358 165.328 103.47 165.44 103.637C165.551 103.805 165.663 104.084 165.774 104.362C166.053 104.976 166.499 105.868 167.057 106.984C168.173 109.159 169.735 112.171 171.52 115.462C173.304 118.753 174.922 121.71 176.149 123.829C176.763 124.889 177.265 125.726 177.599 126.339C177.767 126.618 177.934 126.841 178.046 127.009C178.157 127.009 178.213 127.12 178.213 127.064Z" fill="#6F4C47"/>
<path d="M226.126 113.845L222.166 131.359L224.062 143.129H180.945L183.734 88.1865L194.5 87.2383L220.771 91.7006L226.126 113.845Z" fill="#A48346"/>
<path d="M215.137 91.3662C215.137 91.3662 226.348 90.3622 231.703 97.9481C234.994 102.634 239.568 113.343 239.568 113.343L224.619 115.909L215.137 91.3662Z" fill="#A48346"/>
<g opacity="0.3">
<path d="M221.944 114.012C220.494 110.888 217.091 108.824 213.633 108.88C212.908 108.88 212.071 109.103 211.625 109.717C211.179 110.386 211.458 111.223 211.737 112.004C212.127 112.952 212.629 113.956 213.521 114.402C214.191 114.737 214.972 114.737 215.697 114.96C216.589 115.239 217.314 115.852 217.984 116.41C218.542 116.912 219.155 117.358 219.49 118.028C219.769 118.53 219.936 119.143 220.103 119.701C220.828 122.546 221.386 128.458 222.111 131.359L222.892 128.905C222.892 126.562 222.948 124.163 222.948 121.821C223.06 119.199 223.06 116.41 221.944 114.012Z" fill="black"/>
</g>
<path d="M208.555 128.627C208.555 128.571 209.168 128.682 210.061 128.738C211.009 128.794 212.292 128.85 213.742 128.627C215.192 128.459 216.419 128.069 217.312 127.79C218.204 127.455 218.762 127.232 218.762 127.288C218.762 127.288 218.651 127.399 218.428 127.511C218.204 127.623 217.87 127.79 217.423 127.957C216.531 128.292 215.248 128.682 213.798 128.905C212.348 129.073 211.009 129.073 210.061 128.905C209.559 128.85 209.224 128.794 208.945 128.738C208.666 128.738 208.555 128.682 208.555 128.627Z" fill="#263238"/>
<path d="M189.758 129.407C189.758 129.351 195.894 131.08 203.368 133.311C210.898 135.542 216.922 137.383 216.922 137.439C216.922 137.494 210.787 135.765 203.312 133.534C195.782 131.359 189.702 129.518 189.758 129.407Z" fill="#263238"/>
<g opacity="0.3">
<path d="M208.836 128.737C209.896 130.355 211.96 131.303 213.912 131.08C215.864 130.857 217.37 129.574 218.039 127.733C215.083 128.961 212.015 129.128 208.836 128.737Z" fill="black"/>
</g>
<g opacity="0.3">
<path d="M215.248 136.881L215.081 136.937C211.232 137.606 207.606 136.937 203.925 135.598C200.244 134.316 196.785 132.419 193.383 130.467C200.69 132.642 207.997 134.762 215.248 136.881Z" fill="black"/>
</g>
<path d="M183.736 88.1861C183.736 88.1861 176.652 89.0786 173.863 95.1027C171.13 101.183 169.066 108.434 169.066 108.434L183.569 111.669C183.569 111.669 185.856 99.3976 186.023 95.1027C186.246 90.3615 186.414 88.0188 183.736 88.1861Z" fill="#A48346"/>
<path d="M182.397 113.621C182.341 113.621 182.285 111.781 182.285 109.549C182.285 107.318 182.341 105.478 182.453 105.478C182.508 105.478 182.564 107.318 182.564 109.549C182.508 111.836 182.453 113.621 182.397 113.621Z" fill="#263238"/>
<path d="M190.264 49.3084C194.113 44.623 199.245 41.9456 205.324 41.8341C208.727 41.7783 210.177 42.5034 212.631 43.1728C215.086 43.8421 217.317 45.1808 218.767 47.2446C220.496 49.6989 222.002 52.4878 222.281 55.4999C222.616 58.5677 222.95 61.6913 222.727 64.8149C222.504 67.9385 221.668 71.0621 219.827 73.5721L211.962 74.9666C207.611 75.1339 203.205 75.2455 198.966 74.2415C194.726 73.2375 190.599 70.9506 188.312 67.2692C185.133 61.9702 186.415 53.9938 190.264 49.3084Z" fill="#263238"/>
<path d="M217.426 77.9224C217.426 77.9224 217.537 78.0897 217.872 78.3129C218.207 78.536 218.764 78.7591 219.49 78.8706C220.215 78.9264 221.107 78.8706 222 78.3686C222.892 77.8666 223.561 76.9742 223.896 75.8586C224.175 74.743 224.063 73.5717 223.506 72.735C223.004 71.8983 222.279 71.3405 221.609 71.0058C220.94 70.727 220.326 70.6154 219.936 70.6712C219.545 70.6712 219.322 70.7827 219.322 70.7827C219.322 70.8943 220.215 70.6712 221.498 71.2847C222.111 71.6194 222.725 72.1214 223.171 72.9023C223.617 73.6832 223.729 74.6872 223.45 75.6913C223.171 76.6953 222.557 77.4762 221.777 77.9224C220.996 78.3686 220.215 78.4802 219.49 78.4802C218.207 78.4802 217.482 77.8666 217.426 77.9224Z" fill="#4D4D4D"/>
<path d="M182.621 72.1782C182.845 70.3932 183.737 68.6641 185.299 67.7159C186.861 66.8234 188.98 66.8792 190.263 68.1621L191.49 69.6123C193.443 70.449 194.67 72.6244 194.447 74.744C194.223 76.8636 192.606 78.7043 190.598 79.3178C188.59 79.9314 186.247 79.3178 184.741 77.9234C183.124 76.5289 182.398 74.2977 182.621 72.1782Z" fill="#263238"/>
<path d="M184.182 77.5324C184.238 77.5324 183.68 76.9746 183.736 75.9706C183.792 74.9666 184.517 73.6279 185.521 72.4008C186.525 71.1736 187.752 70.337 188.7 69.8907C189.648 69.3887 190.262 69.2214 190.262 69.1656C190.262 69.1098 189.593 69.2214 188.589 69.6676C187.585 70.1138 186.302 70.9505 185.242 72.1776C184.684 72.7912 184.294 73.4605 183.959 74.1299C183.624 74.7435 183.457 75.4128 183.457 75.9706C183.457 76.5284 183.624 76.9746 183.792 77.1977C184.015 77.4766 184.182 77.5324 184.182 77.5324Z" fill="#455A64"/>
<path d="M187.975 79.8747C188.087 79.8747 187.585 77.4762 188.31 74.6873C189.035 71.8426 190.653 70.0576 190.541 69.9461C190.486 69.8903 190.039 70.3365 189.481 71.1174C188.924 71.8983 188.31 73.1255 187.92 74.5757C187.529 76.026 187.529 77.3646 187.585 78.3687C187.752 79.3169 187.975 79.8747 187.975 79.8747Z" fill="#455A64"/>
<path d="M211.961 87.6842C211.906 84.8953 211.85 82.6642 211.85 82.6642C211.85 82.6642 218.264 81.939 220.049 73.6838C220.942 69.5562 221.109 62.8069 221.053 57.2291C220.998 52.209 216.758 45.404 210.567 45.404L207.834 45.0693L197.292 49.2527C195.786 49.3085 194.558 50.5356 194.503 52.0974L194.168 87.2938L204.32 112.004L211.627 102.131L211.961 87.6842Z" fill="#936760"/>
<path d="M207.669 71.7874C207.724 71.3412 207.948 70.9507 208.282 70.7276C208.896 70.2256 209.788 70.1698 210.458 70.616C211.127 71.0623 211.517 72.0105 211.35 72.8472C210.96 73.3492 210.402 73.6839 209.788 73.7396C209.677 73.7396 209.565 73.7396 209.509 73.7396C209.007 73.7396 208.561 73.5723 208.171 73.2376C207.836 72.8472 207.613 72.2894 207.669 71.7874Z" fill="#6F4C47"/>
<path d="M216.929 62.9191C216.929 63.4768 216.427 63.9231 215.814 63.9231C215.2 63.9231 214.754 63.4768 214.754 62.9191C214.754 62.3613 215.256 61.915 215.814 61.915C216.483 61.915 216.985 62.3613 216.929 62.9191Z" fill="#263238"/>
<path d="M218.991 60.2974C218.824 60.409 218.098 59.7954 216.927 59.7397C215.756 59.6839 214.919 60.1859 214.807 60.0743C214.752 60.0185 214.919 59.7397 215.254 59.5165C215.644 59.2934 216.258 59.0703 216.983 59.0703C217.708 59.1261 218.266 59.405 218.6 59.6839C218.935 60.0185 219.047 60.2417 218.991 60.2974Z" fill="#263238"/>
<path d="M211.796 68.9982C211.796 68.9425 212.521 68.8309 213.693 68.7751C213.971 68.7751 214.25 68.7193 214.306 68.4962C214.362 68.2731 214.306 67.9384 214.139 67.6038C213.916 66.8786 213.637 66.0977 213.414 65.3168C212.41 62.0817 211.629 59.4043 211.796 59.3485C211.908 59.2928 212.856 61.9143 213.916 65.1495C214.139 65.9304 214.418 66.7113 214.641 67.4364C214.752 67.7711 214.92 68.1616 214.752 68.6078C214.641 68.8309 214.418 68.9425 214.25 68.9982C214.083 69.054 213.916 69.054 213.748 69.054C212.521 69.1098 211.796 69.1098 211.796 68.9982Z" fill="#263238"/>
<path d="M211.852 82.6646C211.852 82.6646 206.218 82.7203 200.863 79.0947C200.863 79.0947 203.541 85.0073 211.907 84.7284L211.852 82.6646Z" fill="#6F4C47"/>
<path d="M208.337 69.6123C208.505 69.6123 208.449 70.8394 209.453 71.7877C210.457 72.7359 211.796 72.6801 211.796 72.8475C211.796 72.9032 211.461 73.0706 210.903 73.0706C210.346 73.0706 209.565 72.8475 208.951 72.2339C208.337 71.6761 208.114 70.8952 208.059 70.3932C208.114 69.8912 208.282 69.6123 208.337 69.6123Z" fill="#263238"/>
<path d="M218.77 56.0023C218.547 56.2812 217.71 56.0581 216.65 56.0581C215.59 56.0581 214.754 56.337 214.531 56.0581C214.419 55.9465 214.586 55.6676 214.921 55.3887C215.311 55.1098 215.925 54.8867 216.594 54.8867C217.319 54.8867 217.933 55.1098 218.323 55.3329C218.714 55.6118 218.881 55.835 218.77 56.0023Z" fill="#263238"/>
<path d="M203.598 62.6395C203.542 63.1973 204.044 63.6993 204.602 63.7551C205.216 63.8108 205.718 63.3646 205.718 62.8068C205.773 62.249 205.271 61.747 204.714 61.6912C204.1 61.6355 203.598 62.0817 203.598 62.6395Z" fill="#263238"/>
<path d="M203.263 59.9067C203.375 60.074 204.212 59.4605 205.383 59.4605C206.554 59.4605 207.391 60.074 207.503 59.9067C207.558 59.8509 207.447 59.572 207.056 59.2931C206.722 59.0142 206.108 58.7354 205.383 58.7354C204.658 58.7354 204.044 58.9585 203.71 59.2374C203.319 59.572 203.208 59.8509 203.263 59.9067Z" fill="#263238"/>
<path d="M202.593 57.4526C202.816 57.7315 203.709 57.4526 204.768 57.4526C205.828 57.4526 206.721 57.6757 206.944 57.3968C207.055 57.2853 206.888 57.0064 206.498 56.7275C206.107 56.4486 205.494 56.2812 204.713 56.2812C203.987 56.2812 203.318 56.5044 202.983 56.7833C202.649 57.0622 202.481 57.2853 202.593 57.4526Z" fill="#263238"/>
<path d="M195.953 66.0425C196.009 65.4289 195.34 63.9229 194.726 63.8113C193.109 63.4767 190.152 63.4209 189.873 67.6043C189.539 73.2937 195.284 72.457 195.284 72.2897C195.34 72.1224 195.842 68.1621 195.953 66.0425Z" fill="#936760"/>
<path d="M193.891 70.1141C193.891 70.1141 193.779 70.1699 193.612 70.2257C193.444 70.2814 193.165 70.3372 192.887 70.1699C192.329 69.891 191.883 68.9428 191.883 67.883C191.883 67.381 192.05 66.879 192.273 66.4885C192.496 66.0981 192.775 65.8192 193.054 65.7634C193.333 65.7076 193.556 65.9307 193.612 66.0423C193.667 66.2096 193.612 66.3212 193.667 66.3212C193.667 66.3212 193.779 66.2096 193.779 65.9865C193.779 65.8749 193.723 65.7076 193.556 65.596C193.444 65.4845 193.221 65.4287 192.998 65.4287C192.552 65.4287 192.161 65.8192 191.938 66.2654C191.659 66.7116 191.492 67.2694 191.492 67.8272C191.436 68.9985 191.994 70.0583 192.775 70.3372C193.165 70.4488 193.5 70.393 193.667 70.2257C193.891 70.2257 193.891 70.1141 193.891 70.1141Z" fill="#6F4C47"/>
<path d="M194.501 63.8108L195.952 65.3168C202.199 59.3485 214.303 44.4556 213.633 45.348C213.633 45.348 209.394 43.6189 204.765 44.3998C200.135 45.1807 191.378 47.5234 191.489 52.9339C191.601 58.4002 194.501 63.8108 194.501 63.8108Z" fill="#263238"/>
<path d="M194.613 77.9224C194.613 77.9224 194.502 78.0897 194.167 78.3129C193.832 78.536 193.275 78.7591 192.55 78.8706C191.824 78.9264 190.932 78.8706 190.04 78.3686C189.147 77.8666 188.478 76.9742 188.143 75.8586C187.864 74.743 187.976 73.5717 188.534 72.735C189.036 71.8983 189.761 71.3405 190.43 71.0058C191.099 70.727 191.713 70.6154 192.103 70.6712C192.494 70.6712 192.717 70.7827 192.717 70.7827C192.717 70.8943 191.824 70.6712 190.542 71.2847C189.928 71.6194 189.314 72.1214 188.868 72.9023C188.422 73.6832 188.31 74.6872 188.589 75.6913C188.868 76.6953 189.482 77.4762 190.263 77.9224C191.044 78.3686 191.824 78.4802 192.55 78.4802C193.888 78.4802 194.558 77.8666 194.613 77.9224Z" fill="#4D4D4D"/>
<path d="M186.246 62.5841C186.246 62.5841 186.246 62.4725 186.358 62.2494C186.413 62.0263 186.525 61.7474 186.748 61.3569C187.139 60.6318 187.919 59.6278 189.091 58.6796C190.318 57.7313 191.936 57.0062 193.888 56.3926C195.784 55.7791 197.904 55.2771 200.023 54.3846C202.143 53.4921 204.04 52.3766 205.601 51.261C207.219 50.0896 208.502 48.8625 209.562 47.8027C210.566 46.7429 211.347 45.7389 211.849 45.0696C212.072 44.7349 212.295 44.5118 212.406 44.2887C212.518 44.1213 212.629 44.0098 212.629 44.0098C212.629 44.0098 212.574 44.1213 212.462 44.2887C212.351 44.456 212.183 44.7349 211.96 45.1253C211.458 45.7947 210.733 46.7987 209.729 47.9143C208.725 49.0298 207.386 50.257 205.769 51.4283C204.151 52.5997 202.255 53.7153 200.135 54.6077C198.015 55.5002 195.84 56.0022 193.944 56.6157C192.047 57.1735 190.43 57.8987 189.202 58.8469C187.975 59.7393 187.25 60.6876 186.804 61.4127C186.413 62.1378 186.302 62.5841 186.246 62.5841Z" fill="#455A64"/>
<path d="M187.919 63.4757C187.919 63.4757 187.863 63.0295 188.142 62.2486C188.421 61.4677 189.09 60.4079 190.261 59.5712C191.433 58.6788 193.162 58.121 195.003 57.7305C196.843 57.3401 198.907 56.7823 200.859 55.8898C202.867 54.9416 204.652 53.8818 206.102 52.6547C207.608 51.4833 208.78 50.2004 209.672 49.1406C210.621 48.025 211.234 47.0768 211.68 46.4074C211.848 46.0728 212.015 45.8497 212.182 45.6265C212.294 45.4592 212.35 45.3477 212.35 45.3477C212.35 45.3477 212.294 45.4592 212.238 45.6265C212.127 45.8497 211.959 46.1286 211.792 46.4632C211.346 47.1326 210.788 48.1924 209.84 49.3079C208.947 50.4235 207.72 51.7064 206.27 52.9336C204.82 54.1607 202.979 55.2763 200.971 56.2245C198.963 57.1727 196.899 57.6747 195.058 58.0652C193.218 58.4556 191.544 59.0134 190.373 59.8501C189.202 60.6868 188.532 61.635 188.253 62.4159C187.919 62.9737 187.919 63.4757 187.919 63.4757Z" fill="#455A64"/>
<path d="M158.523 109.494C158.188 109.382 157.798 104.864 157.798 104.864C157.798 104.864 153.28 101.238 152.666 99.7881C152.053 98.3378 152.164 94.8238 152.164 94.8238L159.527 89.8037C159.527 89.8037 163.878 93.7082 165.049 95.27C165.663 96.1067 166.165 98.5052 166.499 100.402C166.778 102.019 166.834 103.693 166.667 105.366L166.555 106.649C166.611 106.593 163.599 111.39 158.523 109.494Z" fill="#936760"/>
<path d="M153.001 100.681C153.001 100.681 152.443 100.179 151.495 99.1749C150.547 98.1152 149.487 97.1669 150.38 96.0513C150.937 95.382 151.551 95.4378 151.551 95.4378C151.551 95.4378 150.993 94.4895 151.495 93.876C151.997 93.2624 152.667 93.3182 152.667 93.3182C152.667 93.3182 151.941 91.9237 152.611 90.9755C153.447 89.8041 154.842 90.083 154.842 90.083C154.842 90.083 151.83 84.0031 151.662 83.6685C150.993 82.4971 151.049 81.27 152.388 81.1027C152.89 81.0469 153.28 81.4373 154.563 83.3338C155.846 85.2303 157.965 88.4654 157.965 88.4654C157.965 88.4654 160.308 90.4177 161.48 91.5333C162.651 92.6488 165.105 95.2147 165.496 95.9956C166.555 98.0036 166.332 101.239 166.332 101.239L157.854 104.864C157.798 104.864 153.559 101.183 153.001 100.681Z" fill="#936760"/>
<path d="M151.831 95.6611C151.831 95.6611 152.222 95.8842 152.835 96.3305C153.17 96.5536 153.505 96.8325 153.895 97.1114C154.118 97.2787 154.285 97.4461 154.509 97.6134C154.676 97.8365 154.899 98.0596 154.899 98.3943C154.955 98.6732 154.843 99.0636 154.564 99.231C154.341 99.3983 154.007 99.4541 153.728 99.3983C153.449 99.3983 153.226 99.2867 153.003 99.231C152.779 99.1752 152.612 99.1194 152.389 99.0636C152.054 98.9521 151.72 98.8405 151.552 98.729C151.329 98.6732 151.273 98.6174 151.273 98.5616C151.273 98.5616 151.72 98.6732 152.445 98.8963C152.779 99.0079 153.226 99.1194 153.728 99.1752C153.951 99.1752 154.23 99.1752 154.397 99.0079C154.564 98.8405 154.676 98.6174 154.62 98.3385C154.564 98.0596 154.453 97.8365 154.285 97.6692C154.118 97.5018 153.895 97.3345 153.728 97.1672C153.337 96.8883 153.003 96.6094 152.668 96.3305C152.166 95.9958 151.775 95.6611 151.831 95.6611Z" fill="#6F4C47"/>
<path d="M159.194 93.876C159.138 93.876 158.859 93.2624 158.803 92.4815C158.692 91.7006 158.859 91.0312 158.915 91.0312C158.97 91.0312 158.915 91.7006 159.026 92.4815C159.082 93.2066 159.249 93.8202 159.194 93.876Z" fill="#6F4C47"/>
<path d="M163.316 94.4895C162.257 93.9875 161.029 93.8759 159.858 94.0432C158.687 94.2106 157.571 94.601 156.511 95.103C155.675 95.4935 154.726 96.107 154.615 96.9995C154.503 97.9477 155.396 98.8402 156.344 99.0075C157.292 99.1749 158.241 98.8402 159.133 98.4497C160.025 98.0593 160.862 97.5573 161.81 97.3342" fill="#936760"/>
<path d="M161.812 97.3342C161.812 97.3342 161.533 97.39 161.143 97.5574C160.697 97.7247 160.083 98.0036 159.358 98.394C158.968 98.5614 158.577 98.7845 158.075 98.8961C157.573 99.0634 157.071 99.1192 156.458 99.0634C155.9 99.0076 155.286 98.6729 154.896 98.1709C154.673 97.9478 154.561 97.6131 154.505 97.2785C154.45 96.9438 154.505 96.6091 154.673 96.3302C155.007 95.7167 155.565 95.382 156.123 95.1031C156.681 94.8242 157.183 94.6011 157.74 94.4338C158.8 94.0433 159.804 93.876 160.641 93.876C161.478 93.876 162.147 94.0433 162.593 94.1549C162.816 94.2106 162.984 94.3222 163.095 94.378C163.207 94.4338 163.263 94.4895 163.263 94.4895C163.263 94.4895 163.039 94.378 162.593 94.2664C162.147 94.1549 161.478 93.9875 160.641 94.0433C159.804 94.0433 158.8 94.2664 157.796 94.6569C157.294 94.8242 156.736 95.1031 156.234 95.3262C155.732 95.6051 155.175 95.9398 154.896 96.4976C154.728 96.7765 154.673 97.0554 154.728 97.3342C154.784 97.6131 154.896 97.892 155.063 98.1151C155.398 98.5614 155.956 98.8403 156.458 98.9518C157.015 99.0076 157.517 98.9518 157.964 98.8403C158.41 98.7287 158.856 98.5056 159.246 98.3383C160.027 98.0036 160.641 97.6689 161.087 97.5574C161.31 97.5016 161.478 97.4458 161.589 97.4458C161.757 97.3342 161.812 97.3342 161.812 97.3342Z" fill="#6F4C47"/>
<path d="M151.941 95.7166C153.336 96.7764 154.73 98.0036 156.013 99.1749C156.404 99.5096 156.794 99.9 157.296 100.012C157.687 100.123 158.356 99.4538 158.691 99.1749L154.117 94.3779" fill="#936760"/>
<path d="M154.116 94.4336C154.116 94.4336 154.283 94.5451 154.506 94.7683C154.785 95.0472 155.064 95.3818 155.51 95.7723C156.347 96.609 157.462 97.8361 158.801 99.1748L158.857 99.2306L158.801 99.2863C158.578 99.4537 158.299 99.7326 158.02 99.8999C157.909 99.9557 157.797 100.067 157.686 100.067C157.63 100.067 157.574 100.123 157.462 100.123C157.407 100.123 157.295 100.123 157.239 100.123C156.96 100.067 156.737 99.8999 156.514 99.7883C156.124 99.4537 155.789 99.119 155.454 98.8401C154.785 98.2265 154.171 97.6688 153.669 97.2225C153.167 96.7763 152.721 96.4416 152.442 96.1627C152.163 95.9396 151.996 95.7723 151.996 95.7723C151.996 95.7723 152.163 95.8838 152.498 96.107C152.833 96.3301 153.223 96.6647 153.781 97.111C154.283 97.5572 154.952 98.115 155.622 98.6728C155.956 98.9517 156.291 99.3421 156.681 99.621C156.849 99.7883 157.072 99.8999 157.295 99.9557C157.518 100.011 157.741 99.8999 157.909 99.7326C158.188 99.5652 158.411 99.3421 158.69 99.119V99.2863C157.407 97.9476 156.291 96.7205 155.454 95.8838C155.064 95.4376 154.729 95.1029 154.506 94.824C154.227 94.5451 154.116 94.4336 154.116 94.4336Z" fill="#6F4C47"/>
<path d="M152.832 92.983C154.338 94.7121 155.9 96.4413 157.406 98.1704C157.741 98.5609 158.075 98.8955 158.466 99.1744C158.912 99.3975 159.414 99.5091 159.86 99.286C160.474 98.9513 160.641 98.1704 160.418 97.5011C160.195 96.8317 159.749 96.3297 159.302 95.8277C157.908 94.2659 156.681 92.5368 155.509 90.8076" fill="#936760"/>
<path d="M155.566 90.6963C155.566 90.6963 155.622 90.7521 155.678 90.8636C155.789 90.9752 155.901 91.1425 156.013 91.3656C156.291 91.8119 156.738 92.3696 157.295 93.0948C157.853 93.8199 158.523 94.6566 159.303 95.6048C159.694 96.051 160.14 96.4973 160.419 97.1666C160.531 97.5013 160.642 97.836 160.586 98.1706C160.531 98.5053 160.419 98.8957 160.14 99.1189C159.861 99.3978 159.471 99.4535 159.08 99.3978C158.746 99.342 158.411 99.1746 158.132 99.0073C157.574 98.5611 157.24 98.0591 156.793 97.6128C156.013 96.7204 155.287 95.8837 154.674 95.2144C154.116 94.545 153.614 93.9872 153.279 93.5968C153.112 93.4294 153 93.2621 152.889 93.1505C152.777 93.039 152.777 92.9832 152.777 92.9832C152.777 92.9832 152.833 93.039 152.945 93.1505C153.056 93.2621 153.168 93.4294 153.335 93.5968C153.726 93.9872 154.172 94.545 154.785 95.2144C155.399 95.8837 156.124 96.7204 156.905 97.6128C157.295 98.0591 157.686 98.5611 158.188 98.9515C158.467 99.1189 158.746 99.2862 159.08 99.342C159.415 99.3978 159.75 99.342 159.973 99.1189C160.196 98.8957 160.363 98.5611 160.363 98.2822C160.419 97.9475 160.363 97.6686 160.196 97.3339C159.917 96.7204 159.471 96.2742 159.08 95.8279C158.299 94.9355 157.63 94.043 157.072 93.3179C156.515 92.5928 156.124 91.9792 155.845 91.533C155.734 91.3099 155.622 91.1425 155.566 91.031C155.622 90.8078 155.566 90.6963 155.566 90.6963Z" fill="#6F4C47"/>
<path d="M162.594 102.577C162.594 102.577 162.371 102.689 162.036 102.689C161.702 102.689 161.2 102.633 160.698 102.466C160.196 102.242 159.805 101.964 159.582 101.685C159.359 101.406 159.247 101.238 159.303 101.238C159.359 101.183 159.805 101.908 160.754 102.298C161.758 102.689 162.594 102.521 162.594 102.577Z" fill="#6F4C47"/>
<path d="M221.05 88.0191L219.433 108.267C219.377 108.992 218.764 109.55 218.038 109.494L206.715 108.769C205.99 108.713 205.432 108.044 205.488 107.319L207.329 87.0709C207.385 86.3458 207.998 85.8438 208.723 85.8438L219.768 86.5689C220.548 86.6247 221.106 87.2382 221.05 88.0191Z" fill="#455A64"/>
<path d="M237.228 113.789C237.228 113.789 240.631 136.603 240.463 139.67C240.352 142.738 236.894 149.543 232.208 150.213C227.523 150.882 223.172 146.643 223.005 141.009C222.893 135.431 222.168 117.694 222.168 117.694L225.626 115.797L237.228 113.789Z" fill="#936760"/>
<path d="M217.982 94.9355C217.982 94.9355 221.496 97.1109 222.5 97.6687C223.504 98.2265 223.392 102.41 223.392 102.41L229.249 116.076L222.165 118.641C222.165 118.641 219.655 113.845 218.93 113.231C218.205 112.617 217.257 112.394 217.257 112.394C217.257 112.394 216.866 113.733 215.806 113.119C214.691 112.506 213.519 111.056 213.519 111.056C213.519 111.056 212.571 111.669 212.181 110.944C211.79 110.219 211.233 108.657 211.233 108.657C211.233 108.657 213.296 105.98 214.133 105.98C214.97 105.98 219.32 106.203 219.32 106.203C219.32 106.203 219.097 105.812 217.87 105.366C216.643 104.864 209.448 102.745 209.113 102.633C208.611 102.41 208.053 101.127 209.615 101.015C211.177 100.904 220.046 102.466 220.046 102.466C220.046 102.466 220.548 100.179 220.157 99.6767C219.767 99.1747 216.643 97.1109 217.982 94.9355Z" fill="#936760"/>
<path d="M213.518 110.944C213.518 110.944 213.462 110.553 213.574 109.94C213.629 109.661 213.797 109.27 214.131 108.936C214.466 108.601 214.968 108.545 215.414 108.545C216.363 108.49 217.199 108.545 217.813 108.657C218.426 108.768 218.761 108.824 218.761 108.88C218.761 108.936 217.255 108.713 215.414 108.824C214.968 108.824 214.522 108.88 214.243 109.159C213.964 109.382 213.797 109.717 213.741 109.996C213.574 110.553 213.574 110.944 213.518 110.944Z" fill="#6F4C47"/>
<path d="M214.914 111.39C214.97 111.334 215.528 111.725 216.253 112.004C216.978 112.338 217.648 112.506 217.648 112.561C217.648 112.617 216.922 112.561 216.142 112.227C215.361 111.892 214.859 111.446 214.914 111.39Z" fill="#6F4C47"/>
<path d="M219.656 102.41C219.656 102.355 220.325 102.466 220.883 103.024C221.441 103.582 221.608 104.251 221.552 104.251C221.497 104.307 221.218 103.693 220.716 103.191C220.214 102.689 219.6 102.466 219.656 102.41Z" fill="#6F4C47"/>
<path d="M159.305 224.398C159.25 224.398 162.262 211.569 166.11 195.783C169.959 179.998 173.139 167.225 173.194 167.225C173.25 167.225 170.238 180.054 166.389 195.839C162.541 211.68 159.361 224.454 159.305 224.398Z" fill="#455A64"/>
<path d="M242.748 243.028C242.748 243.083 189.535 243.195 123.884 243.195C58.2324 243.195 5.01953 243.139 5.01953 243.028C5.01953 242.916 58.2324 242.86 123.884 242.86C189.535 242.916 242.748 242.972 242.748 243.028Z" fill="#263238"/>
<path d="M215.083 41.89L216.7 35.9775C215.139 33.4674 214.246 30.5112 214.246 27.3318C214.246 18.2399 221.609 10.8213 230.757 10.8213C239.849 10.8213 247.267 18.1841 247.267 27.3318C247.267 36.4237 239.904 43.8423 230.757 43.8423C226.964 43.8423 223.45 42.5594 220.661 40.384L215.083 41.89Z" fill="#3E3E3E"/>
<path d="M215.084 41.8902C215.084 41.8902 215.195 41.8344 215.474 41.7786C215.753 41.7228 216.088 41.6113 216.534 41.4997C217.482 41.2208 218.877 40.8304 220.662 40.3284L220.606 40.4399C220.606 40.3842 220.606 40.3842 220.606 40.3284H220.662C222.391 41.6671 224.901 43.0615 228.192 43.5635C229.809 43.8424 231.65 43.8424 233.491 43.5078C235.332 43.1731 237.284 42.5037 239.069 41.444C240.854 40.3842 242.527 38.8781 243.921 37.0374C245.26 35.1967 246.32 33.0214 246.766 30.6229C247.212 28.2244 247.157 25.6586 246.543 23.1486C246.264 21.9214 245.706 20.6943 245.093 19.5229C244.423 18.4074 243.698 17.2918 242.75 16.2878C241.858 15.2838 240.854 14.4471 239.794 13.722C238.678 13.0526 237.563 12.3833 236.336 11.9928C233.937 11.1004 231.427 10.8215 229.029 11.0446C226.63 11.2677 224.343 12.0486 222.391 13.2199C220.439 14.3913 218.821 15.8973 217.538 17.5149C215.028 20.8616 214.136 24.7661 214.247 28.0571C214.359 31.348 215.474 34.0254 216.646 35.9219V35.9776C216.088 37.8741 215.697 39.3244 215.419 40.3284C215.251 40.8304 215.14 41.2208 215.084 41.444C215.084 41.7786 215.084 41.8902 215.084 41.8902C215.084 41.8902 215.084 41.7786 215.195 41.4997C215.251 41.2208 215.363 40.8862 215.474 40.3842C215.753 39.3801 216.144 37.8741 216.646 35.9219V35.9776C215.474 34.0812 214.359 31.4038 214.191 28.0571C214.024 24.7661 214.917 20.8058 217.482 17.3476C218.765 15.6742 220.383 14.1124 222.391 12.9411C224.343 11.7697 226.686 10.9888 229.14 10.7099C231.594 10.4868 234.16 10.7657 236.614 11.6581C237.842 12.0486 239.013 12.7179 240.128 13.4431C241.188 14.224 242.248 15.0606 243.141 16.0647C244.089 17.0687 244.814 18.1843 245.483 19.3556C246.097 20.527 246.599 21.7541 246.933 23.037C247.603 25.547 247.659 28.1686 247.157 30.6229C246.655 33.0772 245.595 35.3083 244.256 37.149C242.862 38.9897 241.188 40.4957 239.348 41.6113C237.507 42.6711 235.555 43.3404 233.658 43.6751C231.762 44.0098 229.921 44.0098 228.303 43.7309C225.012 43.2289 222.447 41.7786 220.718 40.4399L220.829 40.3284C220.829 40.3284 220.829 40.3842 220.829 40.4399C218.988 40.9419 217.594 41.2766 216.646 41.5555C216.199 41.6671 215.809 41.7786 215.586 41.8344C215.195 41.8902 215.084 41.8902 215.084 41.8902Z" fill="#263238"/>
<path d="M223.395 27.7225L225.291 25.7703L229.028 29.117L236.335 22.0889L238.12 23.9853L228.749 32.8542L223.395 27.7225Z" fill="#A48346"/>
<rect y="238.175" width="249.888" height="5.02008" fill="#4E4E4E"/>
</g>
<defs>
<clipPath id="clip0_43_23893">
<rect width="250" height="243.195" fill="white"/>
</clipPath>
</defs>
</svg>
