<svg width="250" height="244" viewBox="0 0 250 244" fill="none" xmlns="http://www.w3.org/2000/svg">
<g clip-path="url(#clip0_315_38576)">
<path d="M71.564 1.89648H3.56982V114.458H71.564V1.89648Z" fill="#4D4D4D"/>
<path d="M69.3328 1.89648H1.33862V114.458H69.3328V1.89648Z" fill="#3C3C3C"/>
<path d="M66.488 4.18359H4.23901V112.227H66.488V4.18359Z" fill="#1D1D1D"/>
<path d="M54.3284 18.2393H16.0642V98.1701H54.3284V18.2393Z" fill="#3C3C3C"/>
<path d="M16.0643 69.8907C16.0085 62.4164 22.702 55.1094 30.1205 54.1053C33.6346 53.6033 37.3718 54.3285 40.6627 52.934C46.5195 50.5355 48.4159 42.7265 54.3285 40.3838L54.6074 98.1705H16.0643V69.8907Z" fill="#4D4D4D"/>
<path d="M221.036 33.2865L215.458 33.3164L215.607 61.0942L221.184 61.0643L221.036 33.2865Z" fill="#4D4D4D"/>
<path d="M181.521 33.3182L167.074 33.3955L167.156 48.7346L181.603 48.6574L181.521 33.3182Z" fill="#3C3C3C"/>
<path d="M195.912 33.2625L181.466 33.3398L181.548 48.679L195.994 48.6016L195.912 33.2625Z" fill="#5E5E5E"/>
<path d="M167.113 37.6517C176.707 37.7075 186.357 37.6517 195.951 37.5402C196.174 37.5402 196.174 37.2613 195.951 37.2055C186.357 37.1497 176.707 37.2055 167.113 37.3728C166.946 37.3728 166.946 37.6517 167.113 37.6517Z" fill="#4D4D4D"/>
<path d="M184.373 48.4023L158.102 48.543L158.168 61.0374L184.44 60.8967L184.373 48.4023Z" fill="#3C3C3C"/>
<path d="M210.478 48.2909L184.207 48.4316L184.273 60.9261L210.545 60.7853L210.478 48.2909Z" fill="#5E5E5E"/>
<path d="M158.077 52.0418C175.536 52.2649 193.05 52.0418 210.453 51.7629C210.676 51.7629 210.676 51.484 210.453 51.4282C192.994 51.3166 175.48 51.3724 158.077 51.7071C157.91 51.7629 157.91 52.0418 158.077 52.0418Z" fill="#4D4D4D"/>
<path d="M250 61.0781H148.26V65.5404H250V61.0781Z" fill="#4D4D4D"/>
<path d="M169.065 63.1973H164.938V78.4806H169.065V63.1973Z" fill="#4D4D4D"/>
<path d="M230.701 63.1973H226.573V78.4806H230.701V63.1973Z" fill="#4D4D4D"/>
<path d="M226.474 22.9115L220.896 22.9414L221.101 61.1498L226.678 61.1199L226.474 22.9115Z" fill="#3C3C3C"/>
<path d="M235.251 30.0421L226.549 30.0889L226.715 61.046L235.417 60.9993L235.251 30.0421Z" fill="#5E5E5E"/>
<path d="M235.163 35.9779C235.163 36.0337 233.211 36.1452 230.812 36.1452C228.414 36.1452 226.461 36.0894 226.461 35.9779C226.461 35.9221 228.414 35.8105 230.812 35.8105C233.211 35.8105 235.163 35.9221 235.163 35.9779Z" fill="#4D4D4D"/>
<path d="M235.163 34.6947C235.163 34.7505 233.211 34.862 230.812 34.862C228.414 34.862 226.461 34.8062 226.461 34.6947C226.461 34.6389 228.414 34.5273 230.812 34.5273C233.211 34.5273 235.163 34.5831 235.163 34.6947Z" fill="#4D4D4D"/>
<path d="M235.163 56.3363C235.163 56.3921 233.211 56.5036 230.812 56.5036C228.414 56.5036 226.461 56.4478 226.461 56.3363C226.461 56.2805 228.414 56.1689 230.812 56.1689C233.211 56.1689 235.163 56.2247 235.163 56.3363Z" fill="#4D4D4D"/>
<path d="M235.163 54.9984C235.163 55.0542 233.211 55.1657 230.812 55.1657C228.414 55.1657 226.461 55.1099 226.461 54.9984C226.461 54.9426 228.414 54.8311 230.812 54.8311C233.211 54.8868 235.163 54.9426 235.163 54.9984Z" fill="#4D4D4D"/>
<path d="M230.924 52.1536C230.868 52.1536 230.756 49.03 230.756 45.1813C230.756 41.3326 230.812 38.209 230.924 38.209C230.979 38.209 231.091 41.3326 231.091 45.1813C231.091 49.03 231.035 52.1536 230.924 52.1536Z" fill="#4D4D4D"/>
<path d="M244.645 37.5957H235.219V60.967H244.645V37.5957Z" fill="#3C3C3C"/>
<path d="M225.179 29.4516C225.179 30.344 224.453 31.0691 223.561 31.0691C222.668 31.0691 221.943 30.344 221.943 29.4516C221.943 28.5591 222.668 27.834 223.561 27.834C224.509 27.834 225.179 28.5591 225.179 29.4516Z" fill="#4D4D4D"/>
<path d="M224.119 33.8584H223.115V56.5603H224.119V33.8584Z" fill="#4D4D4D"/>
<path d="M81.381 211.122C81.381 211.122 76.2494 215.026 81.1579 220.158C81.2695 220.269 81.381 220.269 81.4926 220.269L126.171 219.991C126.171 219.991 129.964 215.696 126.841 210.787L81.381 211.122Z" fill="#3C3C3C"/>
<path d="M116.298 215.194C116.298 215.249 110.721 215.305 103.86 215.305C96.999 215.305 91.4211 215.249 91.4211 215.194C91.4211 215.138 96.999 215.082 103.86 215.082C110.776 215.138 116.298 215.138 116.298 215.194Z" fill="#4D4D4D"/>
<path d="M109.382 216.811C109.382 216.867 106.76 216.922 103.525 216.922C100.29 216.922 97.6685 216.867 97.6685 216.811C97.6685 216.755 100.29 216.699 103.525 216.699C106.76 216.755 109.382 216.755 109.382 216.811Z" fill="#4D4D4D"/>
<path d="M120.872 219.935C120.817 219.935 120.984 219.433 121.095 218.596C121.207 217.759 121.374 216.588 121.374 215.361C121.374 214.078 121.207 212.907 121.04 212.126C120.872 211.289 120.761 210.787 120.761 210.787C120.761 210.787 120.817 210.899 120.872 211.122C120.928 211.345 121.04 211.68 121.151 212.07C121.319 212.907 121.486 214.078 121.542 215.361C121.542 216.644 121.374 217.815 121.207 218.652C121.095 219.042 121.04 219.377 120.984 219.6C120.928 219.767 120.928 219.935 120.872 219.935Z" fill="#4D4D4D"/>
<path d="M124.219 210.787C124.219 210.787 124.275 210.899 124.442 211.122C124.498 211.233 124.554 211.345 124.665 211.512C124.721 211.68 124.833 211.847 124.888 212.07C125.056 212.46 125.167 212.962 125.335 213.576C125.446 214.134 125.502 214.803 125.502 215.473C125.502 216.142 125.446 216.755 125.335 217.369C125.223 217.927 125.111 218.429 124.944 218.875C124.888 219.098 124.777 219.265 124.721 219.433C124.665 219.6 124.609 219.712 124.554 219.823C124.442 220.046 124.386 220.158 124.386 220.158C124.331 220.158 124.609 219.656 124.888 218.819C125 218.429 125.167 217.927 125.223 217.369C125.335 216.811 125.39 216.198 125.39 215.528C125.39 214.859 125.335 214.245 125.223 213.688C125.111 213.13 125 212.628 124.833 212.237C124.442 211.289 124.219 210.787 124.219 210.787Z" fill="#4D4D4D"/>
<path d="M88.465 219.991C88.465 219.991 88.3535 219.879 88.2419 219.712C88.1861 219.6 88.1304 219.489 88.0188 219.321C87.963 219.154 87.8515 218.987 87.7957 218.819C87.6284 218.429 87.461 217.927 87.3495 217.425C87.2379 216.867 87.1821 216.253 87.1821 215.64C87.1821 214.97 87.2937 214.413 87.4052 213.855C87.5168 213.297 87.6841 212.851 87.8515 212.46C87.9073 212.293 88.0188 212.126 88.1304 211.958C88.1861 211.791 88.2977 211.68 88.3535 211.568C88.465 211.345 88.5766 211.289 88.5766 211.289C88.6324 211.289 88.2977 211.735 88.0188 212.516C87.8515 212.907 87.7399 213.353 87.5726 213.911C87.461 214.468 87.4052 215.026 87.3495 215.696C87.3495 216.309 87.4052 216.923 87.5168 217.48C87.6284 218.038 87.7399 218.485 87.9073 218.875C88.1861 219.489 88.465 219.935 88.465 219.991Z" fill="#4D4D4D"/>
<path d="M83.6122 221.051C83.6122 221.051 83.5007 220.939 83.3891 220.716C83.3333 220.604 83.2218 220.493 83.166 220.27C83.1102 220.102 82.9987 219.935 82.8871 219.712C82.7198 219.266 82.4967 218.764 82.3851 218.15C82.2735 217.537 82.162 216.867 82.1062 216.142C82.1062 215.417 82.162 214.748 82.2735 214.134C82.3851 213.521 82.5524 212.963 82.7198 212.517C82.7755 212.293 82.8871 212.126 82.9429 211.903C82.9987 211.736 83.1102 211.568 83.166 211.457C83.2776 211.234 83.3891 211.122 83.3891 211.122C83.4449 211.122 83.1102 211.624 82.8313 212.517C82.664 212.963 82.5524 213.521 82.4409 214.078C82.3293 214.692 82.2735 215.361 82.2735 216.086C82.2735 216.811 82.3851 217.481 82.4966 218.094C82.6082 218.708 82.7755 219.21 82.9429 219.656C83.3333 220.549 83.668 221.051 83.6122 221.051Z" fill="#4D4D4D"/>
<path d="M124.554 233.656C124.554 233.991 124.554 242.19 124.554 242.19H107.988V233.656H124.554Z" fill="#3C3C3C"/>
<path d="M71.1178 238.007C71.1178 238.063 71.1178 238.174 71.1178 238.23C71.2293 240.796 73.4605 242.804 76.0263 242.804H125.279V242.19H113.565C111.223 242.19 109.27 240.294 109.27 237.895C109.27 235.553 111.167 233.6 113.565 233.6H125.279V232.708L75.9705 232.875C73.2374 232.931 71.0062 235.218 71.1178 238.007Z" fill="#4D4D4D"/>
<path d="M124.554 238.063C124.554 238.118 121.151 238.174 116.968 238.174C112.784 238.174 109.382 238.118 109.382 238.063C109.382 238.007 112.784 237.951 116.968 237.951C121.151 237.951 124.554 238.007 124.554 238.063Z" fill="#4D4D4D"/>
<path d="M124.331 239.959C124.331 240.015 121.095 240.071 117.135 240.071C113.175 240.071 109.94 240.015 109.94 239.959C109.94 239.903 113.175 239.848 117.135 239.848C121.095 239.903 124.331 239.903 124.331 239.959Z" fill="#4D4D4D"/>
<path d="M124.554 241.744C124.554 241.8 121.653 241.856 118.083 241.856C114.514 241.856 111.613 241.8 111.613 241.744C111.613 241.689 114.514 241.633 118.083 241.633C121.653 241.633 124.554 241.689 124.554 241.744Z" fill="#4D4D4D"/>
<path d="M124.554 236.333C124.554 236.389 121.207 236.445 117.135 236.445C113.007 236.445 109.717 236.389 109.717 236.333C109.717 236.277 113.063 236.222 117.135 236.222C121.207 236.222 124.554 236.277 124.554 236.333Z" fill="#4D4D4D"/>
<path d="M124.331 234.605C124.331 234.661 121.374 234.716 117.693 234.716C114.012 234.716 111.055 234.661 111.055 234.605C111.055 234.549 114.012 234.493 117.693 234.493C121.374 234.493 124.331 234.549 124.331 234.605Z" fill="#4D4D4D"/>
<path d="M77.0861 233.043C77.0861 233.043 76.5841 233.433 76.0263 234.27C75.4685 235.107 74.9107 236.39 74.9107 237.951C74.9107 239.458 75.5243 240.796 76.1379 241.577C76.6957 242.414 77.2534 242.748 77.1977 242.804C77.1977 242.804 77.0861 242.748 76.863 242.525C76.6399 242.358 76.361 242.023 76.0263 241.633C75.4128 240.852 74.7434 239.513 74.7434 237.896C74.7434 236.334 75.357 234.939 75.9705 234.159C76.2494 233.768 76.5841 233.433 76.7514 233.266C76.9746 233.155 77.0861 233.043 77.0861 233.043Z" fill="#5E5E5E"/>
<path d="M75.4128 232.875C75.4128 232.931 74.9108 233.265 74.353 234.102C73.7952 234.939 73.2374 236.222 73.2374 237.784C73.2374 239.29 73.851 240.628 74.4645 241.409C75.0223 242.246 75.5801 242.58 75.5243 242.636C75.5243 242.636 75.4128 242.58 75.1897 242.357C74.9665 242.19 74.6877 241.855 74.353 241.465C73.7394 240.684 73.0701 239.345 73.0701 237.728C73.0701 236.166 73.6836 234.771 74.2972 233.991C74.5761 233.6 74.9108 233.265 75.0781 233.098C75.3012 232.987 75.4128 232.875 75.4128 232.875Z" fill="#5E5E5E"/>
<path d="M108.936 233.043C108.936 233.043 108.434 233.433 107.876 234.27C107.318 235.107 106.76 236.39 106.76 237.951C106.76 239.458 107.374 240.796 107.987 241.577C108.545 242.414 109.103 242.748 109.047 242.804C109.047 242.804 108.936 242.748 108.713 242.525C108.489 242.358 108.211 242.023 107.876 241.633C107.262 240.852 106.593 239.513 106.593 237.896C106.593 236.334 107.207 234.939 107.82 234.159C108.099 233.768 108.434 233.433 108.601 233.266C108.768 233.155 108.88 233.043 108.936 233.043Z" fill="#5E5E5E"/>
<path d="M107.262 232.875C107.262 232.931 106.76 233.265 106.203 234.102C105.645 234.939 105.087 236.222 105.087 237.784C105.087 239.29 105.701 240.628 106.314 241.409C106.872 242.246 107.43 242.58 107.374 242.636C107.374 242.636 107.262 242.58 107.039 242.357C106.816 242.19 106.537 241.855 106.203 241.465C105.589 240.684 104.92 239.345 104.92 237.728C104.92 236.166 105.533 234.771 106.147 233.991C106.426 233.6 106.76 233.265 106.928 233.098C107.095 232.987 107.262 232.875 107.262 232.875Z" fill="#5E5E5E"/>
<path d="M82.7196 239.234C82.7196 238.063 82.6638 236.892 82.6638 235.776C82.6638 235.497 82.6638 235.162 82.5523 234.884C82.4407 234.605 82.2176 234.326 81.8829 234.326C81.4367 234.158 80.7674 234.493 80.4885 234.995C80.2096 235.497 80.1538 236.111 80.1538 236.724C80.1538 237.617 80.2096 238.565 80.2654 239.457C80.3211 239.904 80.3769 240.35 80.6 240.74C80.8232 241.131 81.2136 241.41 81.6598 241.354C82.1061 241.298 82.4407 240.963 82.6081 240.573C82.7196 240.071 82.7196 239.625 82.7196 239.234Z" fill="#5E5E5E"/>
<path d="M101.852 238.23C101.852 238.286 98.282 238.341 93.8755 238.341C89.469 238.341 85.8992 238.286 85.8992 238.23C85.8992 238.174 89.469 238.118 93.8755 238.118C98.282 238.118 101.852 238.174 101.852 238.23Z" fill="#5E5E5E"/>
<path d="M79.4289 232.708L79.3174 224.62H83.7239L83.8912 232.708H79.4289Z" fill="#5E5E5E"/>
<path d="M83.445 226.071C83.445 226.126 82.5525 226.182 81.3812 226.182C80.2656 226.182 79.3174 226.126 79.3174 226.071C79.3174 226.015 80.2098 225.959 81.3812 225.959C82.5525 225.959 83.445 226.015 83.445 226.071Z" fill="#4D4D4D"/>
<path d="M83.445 227.297C83.445 227.353 82.5525 227.409 81.3812 227.409C80.2656 227.409 79.3174 227.353 79.3174 227.297C79.3174 227.241 80.2098 227.186 81.3812 227.186C82.5525 227.241 83.445 227.241 83.445 227.297Z" fill="#4D4D4D"/>
<path d="M83.445 228.58C83.445 228.636 82.5525 228.692 81.3812 228.692C80.2656 228.692 79.3174 228.636 79.3174 228.58C79.3174 228.525 80.2098 228.469 81.3812 228.469C82.5525 228.469 83.445 228.525 83.445 228.58Z" fill="#4D4D4D"/>
<path d="M83.445 229.808C83.445 229.864 82.5525 229.919 81.3812 229.919C80.2656 229.919 79.3174 229.864 79.3174 229.808C79.3174 229.752 80.2098 229.696 81.3812 229.696C82.5525 229.696 83.445 229.752 83.445 229.808Z" fill="#4D4D4D"/>
<path d="M83.445 231.09C83.445 231.146 82.5525 231.202 81.3812 231.202C80.2656 231.202 79.3174 231.146 79.3174 231.09C79.3174 231.034 80.2098 230.979 81.3812 230.979C82.5525 230.979 83.445 231.034 83.445 231.09Z" fill="#4D4D4D"/>
<path d="M79.0942 224.396H128.012C128.626 227.074 128.514 230.03 128.012 233.154H79.3173V232.54H82.2736C83.0545 232.54 83.6681 231.927 83.6681 231.146V226.293C83.6681 225.512 83.0545 224.899 82.2736 224.899H79.0942V224.396Z" fill="#3C3C3C"/>
<path d="M90.6404 228.803H91.477C91.5328 228.803 91.5328 228.803 91.5886 228.803C91.6444 228.859 91.7002 228.915 91.7002 228.971V229.026C91.7002 229.082 91.6444 229.138 91.6444 229.25C91.5328 229.64 91.3655 229.919 91.1424 230.198C90.9193 230.421 90.6961 230.532 90.473 230.532C90.4172 230.532 90.4172 230.532 90.3615 230.532C90.1384 230.477 89.971 230.365 89.8037 230.142C89.6363 229.863 89.5806 229.528 89.5806 229.138C89.5806 228.915 89.6363 228.692 89.6921 228.413C89.8037 228.022 89.971 227.744 90.1941 227.465C90.4172 227.186 90.6961 227.074 90.9193 227.074C91.0308 227.074 91.1424 227.074 91.2539 227.13C91.477 227.242 91.6444 227.409 91.7559 227.744V227.799C91.7559 227.855 91.7559 227.855 91.7559 227.911C91.7002 227.967 91.6444 228.022 91.5886 228.022H91.5328C91.477 228.022 91.4213 227.967 91.4213 227.911C91.4213 227.855 91.3655 227.799 91.3097 227.744C91.1981 227.576 91.0866 227.52 90.9193 227.52C90.8077 227.52 90.7519 227.576 90.6404 227.632C90.473 227.744 90.3057 227.967 90.1941 228.246C90.0826 228.58 90.0268 228.859 90.0268 229.194C90.0268 229.473 90.0826 229.752 90.1941 229.919C90.3057 230.142 90.4172 230.254 90.6404 230.254C90.7519 230.254 90.9193 230.198 91.0308 230.03C91.1981 229.863 91.3655 229.584 91.477 229.25C91.0866 229.25 90.9193 229.25 90.9193 229.25C90.8077 229.25 90.7519 229.138 90.6961 229.026V228.971C90.473 228.803 90.5288 228.803 90.6404 228.803Z" fill="#1D1D1D"/>
<path d="M93.4292 227.186V227.241C93.485 227.353 93.6523 228.357 93.987 230.253V230.309C93.987 230.365 93.987 230.365 93.987 230.421C93.9312 230.477 93.9312 230.532 93.8197 230.532C93.8197 230.532 93.8197 230.532 93.7639 230.532C93.7081 230.532 93.6523 230.477 93.6523 230.421L93.485 229.417H92.481L91.979 230.421C91.979 230.421 91.979 230.421 91.979 230.477C91.9232 230.532 91.8674 230.588 91.8116 230.588C91.7558 230.588 91.7558 230.588 91.7001 230.532C91.6443 230.477 91.6443 230.421 91.6443 230.365V230.309C91.7001 230.253 91.7001 230.142 91.8116 229.975C92.5367 228.413 92.9272 227.52 93.0945 227.241C93.1503 227.186 93.2061 227.13 93.2619 227.13C93.3176 227.13 93.3734 227.13 93.4292 227.186ZM93.2061 227.855L92.6483 228.971H93.4292L93.2061 227.855Z" fill="#1D1D1D"/>
<path d="M96.1625 230.532H94.7123C94.6565 230.532 94.6565 230.532 94.6007 230.477C94.5449 230.421 94.5449 230.365 94.5449 230.309C94.5449 230.253 94.6565 229.249 94.9354 227.297V227.241C94.9911 227.186 94.9912 227.13 95.1027 227.13C95.1585 227.13 95.1585 227.13 95.1585 227.13C95.2143 227.186 95.27 227.241 95.27 227.297C95.27 227.409 95.2143 227.688 95.1585 228.134C94.9912 229.417 94.8796 230.086 94.8796 230.198H96.1067C96.1625 230.198 96.1625 230.198 96.2183 230.198C96.2741 230.253 96.3298 230.309 96.3298 230.365V230.421C96.2741 230.477 96.2183 230.477 96.1625 230.532Z" fill="#1D1D1D"/>
<path d="M98.1704 227.186V227.241C98.2262 227.353 98.3935 228.357 98.7282 230.253V230.309C98.7282 230.365 98.7282 230.365 98.7282 230.421C98.6724 230.477 98.6724 230.532 98.5609 230.532C98.5609 230.532 98.5609 230.532 98.5051 230.532C98.4493 230.532 98.3935 230.477 98.3935 230.421L98.2262 229.417H97.2222L96.7202 230.421C96.7202 230.421 96.7202 230.421 96.7202 230.477C96.6644 230.532 96.6086 230.588 96.5528 230.588C96.4971 230.588 96.4971 230.588 96.4413 230.532C96.3855 230.477 96.3855 230.421 96.3855 230.365V230.309C96.4413 230.253 96.4413 230.142 96.5528 229.975C97.278 228.413 97.6684 227.52 97.8357 227.241C97.8915 227.186 97.9473 227.13 98.0031 227.13C98.0589 227.13 98.1146 227.13 98.1704 227.186ZM97.9473 227.855L97.3895 228.971H98.1704L97.9473 227.855Z" fill="#1D1D1D"/>
<path d="M100.513 228.915C100.625 229.25 100.736 229.473 100.792 229.64C100.959 230.086 101.015 230.309 101.015 230.309C101.015 230.365 101.015 230.365 100.959 230.421C100.904 230.477 100.848 230.477 100.792 230.477C100.736 230.477 100.681 230.421 100.625 230.365C100.625 230.309 100.625 230.309 100.625 230.309C100.569 230.142 100.402 229.807 100.234 229.25L99.3977 230.365C99.3419 230.421 99.2861 230.477 99.2303 230.477C99.1745 230.477 99.1745 230.477 99.1188 230.477C99.063 230.421 99.063 230.421 99.063 230.309C99.063 230.309 99.063 230.309 99.063 230.254C99.063 230.254 99.1188 230.198 99.1745 230.086C99.4534 229.752 99.7881 229.305 100.123 228.803C100.067 228.692 100.067 228.636 100.011 228.525C99.6766 227.688 99.565 227.242 99.565 227.242C99.565 227.186 99.565 227.186 99.565 227.13C99.6208 227.074 99.6208 227.019 99.7323 227.019C99.7881 227.019 99.8439 227.074 99.8997 227.13L100.402 228.469L101.406 227.13C101.461 227.074 101.517 227.074 101.573 227.074C101.629 227.074 101.629 227.074 101.629 227.074C101.685 227.13 101.74 227.186 101.74 227.242V227.297L100.513 228.915Z" fill="#1D1D1D"/>
<path d="M104.139 227.13H104.194C104.25 227.186 104.306 227.186 104.306 227.297C104.083 229.194 103.916 230.254 103.916 230.365C103.86 230.7 103.748 230.979 103.581 231.146C103.358 231.481 103.023 231.648 102.577 231.648C102.465 231.648 102.298 231.592 102.131 231.537C101.852 231.425 101.684 231.258 101.629 231.09C101.629 231.09 101.629 231.035 101.629 230.979C101.629 230.923 101.629 230.923 101.629 230.867C101.684 230.812 101.74 230.756 101.796 230.756C101.852 230.756 101.908 230.756 101.908 230.811C102.131 231.09 102.354 231.258 102.688 231.258C102.912 231.258 103.135 231.146 103.246 230.979C103.414 230.756 103.525 230.421 103.581 230.031C103.525 230.142 103.469 230.198 103.358 230.254C103.19 230.365 103.023 230.421 102.856 230.421C102.8 230.421 102.8 230.421 102.744 230.421C102.521 230.365 102.354 230.254 102.186 230.031C102.019 229.752 101.963 229.417 101.963 229.027C101.963 228.859 101.963 228.636 101.963 228.469C101.963 228.19 102.075 227.744 102.186 227.186V227.13C102.242 227.074 102.242 227.019 102.354 227.019C102.41 227.019 102.41 227.019 102.465 227.019C102.521 227.074 102.577 227.074 102.577 227.186C102.577 227.297 102.577 227.521 102.521 227.855C102.465 228.357 102.41 228.748 102.41 228.859C102.41 229.194 102.465 229.473 102.521 229.64C102.633 229.863 102.744 229.975 102.967 229.975H103.023C103.19 229.919 103.302 229.807 103.469 229.64C103.637 229.417 103.748 229.138 103.86 228.803L104.083 227.13V227.074C104.027 227.13 104.083 227.13 104.139 227.13Z" fill="#1D1D1D"/>
<path d="M126.116 233.266C126.06 233.266 126.004 231.258 126.004 228.748C126.004 226.238 126.06 224.229 126.116 224.229C126.171 224.229 126.227 226.238 126.227 228.748C126.227 231.258 126.171 233.266 126.116 233.266Z" fill="#5E5E5E"/>
<path d="M86.1223 233.266C86.0665 233.266 86.0107 231.258 86.0107 228.748C86.0107 226.238 86.0665 224.229 86.1223 224.229C86.1781 224.229 86.2339 226.238 86.2339 228.748C86.2339 231.258 86.1781 233.266 86.1223 233.266Z" fill="#4D4D4D"/>
<path d="M127.008 233.266C126.952 233.266 126.896 231.258 126.896 228.748C126.896 226.238 126.952 224.229 127.008 224.229C127.064 224.229 127.12 226.238 127.12 228.748C127.064 231.258 127.064 233.266 127.008 233.266Z" fill="#5E5E5E"/>
<path d="M85.3415 233.266C85.2858 233.266 85.23 231.258 85.23 228.748C85.23 226.238 85.2858 224.229 85.3415 224.229C85.3973 224.229 85.4531 226.238 85.4531 228.748C85.3973 231.258 85.3973 233.266 85.3415 233.266Z" fill="#4D4D4D"/>
<path d="M114.291 225.792C115.629 226.852 117.414 228.302 119.478 229.92L119.534 229.975H119.478C119.255 230.031 119.032 230.087 118.809 230.143C117.247 230.533 115.741 230.924 114.458 231.314C112.84 230.645 111.446 230.031 110.498 229.641C109.996 229.418 109.661 229.25 109.382 229.139C109.27 229.083 109.159 229.027 109.103 229.027C109.047 229.027 109.047 229.027 109.047 228.971C109.047 228.971 109.103 228.971 109.103 229.027C109.159 229.083 109.27 229.083 109.382 229.139C109.661 229.25 110.051 229.418 110.498 229.585C111.446 229.975 112.84 230.589 114.458 231.258C115.741 230.924 117.247 230.533 118.809 230.087C119.032 230.031 119.255 229.975 119.478 229.92V229.975C117.414 228.358 115.573 226.852 114.291 225.792Z" fill="#4D4D4D"/>
<path d="M118.976 229.25L119.255 229.529L119.645 229.473L119.478 229.808L119.645 230.142L119.255 230.087L119.032 230.366L118.976 229.975L118.585 229.864L118.92 229.64L118.976 229.25Z" fill="#4D4D4D"/>
<path d="M114.012 230.923L114.235 231.09L114.458 231.034L114.346 231.258L114.514 231.425H114.235L114.067 231.648L114.012 231.369L113.789 231.313L114.012 231.146V230.923Z" fill="#4D4D4D"/>
<path d="M108.545 228.692H108.824L109.047 228.469L109.103 228.748L109.382 228.859L109.159 229.027V229.305L108.88 229.138L108.601 229.194L108.713 228.915L108.545 228.692Z" fill="#4D4D4D"/>
<path d="M121.319 225.847H121.597L121.765 225.624L121.876 225.903L122.155 226.014L121.876 226.182V226.461L121.653 226.293L121.374 226.349L121.486 226.07L121.319 225.847Z" fill="#4D4D4D"/>
<path d="M114.012 225.624H114.235L114.346 225.513L114.402 225.68L114.57 225.736L114.402 225.847V226.07L114.235 225.903L114.068 225.959L114.123 225.792L114.012 225.624Z" fill="#4D4D4D"/>
<path d="M121.709 226.07C121.709 226.07 120.036 226.014 117.972 225.958C115.908 225.847 114.235 225.791 114.235 225.735C114.235 225.735 115.908 225.791 117.972 225.847C120.036 225.958 121.709 226.014 121.709 226.07Z" fill="#4D4D4D"/>
<path d="M123.605 224.342H74.0182C73.3488 222.891 73.1815 221.441 74.0182 220.214H123.605C124.275 221.72 124.219 223.059 123.605 224.342Z" fill="#4D4D4D"/>
<path d="M111.167 221.385H84.2815V222.891H111.167V221.385Z" fill="#3C3C3C"/>
<path d="M75.9147 224.341C75.9147 224.341 75.7474 224.174 75.5243 223.839C75.3012 223.505 75.1338 223.003 75.0781 222.389C75.0223 221.775 75.1338 221.218 75.2454 220.883C75.357 220.493 75.5243 220.325 75.5243 220.325C75.5243 220.325 75.4685 220.548 75.357 220.939C75.2454 221.329 75.1896 221.831 75.2454 222.389C75.3012 222.947 75.4685 223.449 75.6359 223.783C75.8032 224.118 75.9147 224.341 75.9147 224.341Z" fill="#4D4D4D"/>
<path d="M76.9743 224.341C76.9743 224.341 76.807 224.174 76.5839 223.839C76.3608 223.505 76.1934 223.003 76.1376 222.389C76.0819 221.775 76.1934 221.218 76.305 220.883C76.4165 220.493 76.5839 220.325 76.5839 220.325C76.5839 220.325 76.5281 220.548 76.4165 220.939C76.305 221.329 76.2492 221.831 76.305 222.389C76.3608 222.947 76.5281 223.449 76.6954 223.783C76.8628 224.118 77.0301 224.341 76.9743 224.341Z" fill="#4D4D4D"/>
<path d="M121.597 224.229C121.541 224.229 121.932 223.337 121.932 222.221C121.932 221.106 121.541 220.213 121.597 220.213C121.653 220.158 122.099 221.05 122.099 222.221C122.099 223.449 121.597 224.285 121.597 224.229Z" fill="#5E5E5E"/>
<path d="M120.649 224.23C120.593 224.23 120.816 223.337 120.816 222.277C120.816 221.162 120.593 220.325 120.649 220.325C120.705 220.325 120.984 221.162 120.984 222.277C120.984 223.393 120.705 224.285 120.649 224.23Z" fill="#5E5E5E"/>
<path d="M151.941 205.098L82.2736 205.042C73.9068 205.042 67.1018 198.237 67.1018 189.871L67.1576 15.1718C67.1576 6.805 73.9626 0 82.3294 0L151.997 0.0557787C160.364 0.0557787 167.169 6.86078 167.169 15.2276L167.113 189.926C167.113 198.293 160.308 205.098 151.941 205.098Z" fill="#263238"/>
<path d="M151.774 6.2473H138.275C136.49 6.2473 134.984 7.8091 134.984 9.6498V12.1041C134.984 14.0005 133.534 15.5066 131.693 15.5066H105.366C103.581 15.5066 102.075 13.9448 102.075 12.0483V9.59402C102.075 7.69755 100.625 6.19152 98.7841 6.13574H94.0429H82.2178C76.361 6.13574 71.5641 10.8769 71.5641 16.7895L71.5083 187.305C71.5083 193.162 76.2495 197.959 82.1062 197.959L151.662 198.014C157.519 198.014 162.316 193.273 162.316 187.361L162.372 16.8452C162.372 11.0443 157.631 6.30308 151.774 6.2473Z" fill="#3E3E3E"/>
<path d="M163.153 33.3558C163.153 33.4116 142.626 33.5231 117.303 33.5231C91.9792 33.5231 71.4526 33.4674 71.4526 33.3558C71.4526 33.3 91.9792 33.1885 117.303 33.1885C142.626 33.2443 163.153 33.3 163.153 33.3558Z" fill="white"/>
<path d="M81.0464 27.0526C80.9906 27.0526 80.9348 27.0526 80.879 26.9968L78.2016 24.6541C78.1459 24.5983 78.0901 24.5425 78.0901 24.431C78.0901 24.3752 78.1459 24.2636 78.2016 24.2079L80.879 22.0325C80.9906 21.9209 81.1579 21.9767 81.2695 22.0883C81.381 22.1998 81.3253 22.3672 81.2137 22.4787L78.8152 24.4868L81.2137 26.6063C81.3253 26.7179 81.3253 26.8852 81.2137 26.9968C81.2137 26.9968 81.1021 27.0526 81.0464 27.0526Z" fill="white"/>
<path d="M138.889 24.264C138.889 24.3198 130.243 24.4314 119.589 24.4314C108.936 24.4314 100.29 24.3756 100.29 24.264C100.29 24.2082 108.936 24.0967 119.589 24.0967C130.243 24.1525 138.889 24.2082 138.889 24.264Z" fill="white"/>
<path d="M150.045 24.2638C150.045 24.8216 149.598 25.2678 149.041 25.2678C148.483 25.2678 148.037 24.8216 148.037 24.2638C148.037 23.706 148.483 23.2598 149.041 23.2598C149.598 23.2598 150.045 23.706 150.045 24.2638Z" fill="#263238"/>
<path d="M152.945 24.2638C152.945 24.8216 152.499 25.2678 151.941 25.2678C151.383 25.2678 150.937 24.8216 150.937 24.2638C150.937 23.706 151.383 23.2598 151.941 23.2598C152.499 23.2598 152.945 23.706 152.945 24.2638Z" fill="white"/>
<path d="M155.79 24.2638C155.79 24.8216 155.344 25.2678 154.786 25.2678C154.228 25.2678 153.782 24.8216 153.782 24.2638C153.782 23.706 154.228 23.2598 154.786 23.2598C155.344 23.2598 155.79 23.706 155.79 24.2638Z" fill="#263238"/>
<path d="M108.601 70.8388C108.601 71.5081 108.322 71.8986 107.876 71.8986C107.653 71.8986 107.486 71.787 107.374 71.5639C107.207 71.787 106.984 71.8986 106.705 71.8986C106.203 71.8986 105.812 71.5081 105.812 70.9503C105.812 70.3925 106.203 70.0021 106.705 70.0021C106.984 70.0021 107.207 70.1137 107.318 70.281V70.0579H107.709V71.3408C107.709 71.5081 107.82 71.6197 107.876 71.6197C108.099 71.6197 108.211 71.3966 108.211 70.9503C108.211 70.1694 107.653 69.6116 106.761 69.6116C105.868 69.6116 105.31 70.1694 105.31 71.0061C105.31 71.8428 105.868 72.4006 106.761 72.4006C106.984 72.4006 107.263 72.3448 107.486 72.2332L107.597 72.5121C107.374 72.6237 107.039 72.6795 106.761 72.6795C105.701 72.6795 104.976 71.9543 104.976 70.9503C104.976 69.9463 105.701 69.277 106.761 69.277C107.876 69.1654 108.601 69.8905 108.601 70.8388ZM107.374 70.8946C107.374 70.5041 107.151 70.3368 106.816 70.3368C106.482 70.3368 106.258 70.5599 106.258 70.8946C106.258 71.2292 106.482 71.5081 106.816 71.5081C107.151 71.5081 107.374 71.285 107.374 70.8946Z" fill="white"/>
<path d="M129.686 71.8431C129.686 71.8989 125.67 72.0105 120.649 72.0105C115.685 72.0105 111.613 71.9547 111.613 71.8431C111.613 71.7873 115.629 71.6758 120.649 71.6758C125.67 71.6758 129.686 71.7316 129.686 71.8431Z" fill="white"/>
<path d="M94.0429 97.3334C94.0429 97.3891 93.4851 97.5007 92.8158 97.5007C92.1464 97.5007 91.5886 97.4449 91.5886 97.3334C91.5886 97.2776 92.1464 97.166 92.8158 97.166C93.4851 97.166 94.0429 97.2776 94.0429 97.3334Z" fill="white"/>
<path d="M99.9555 103.358C99.9555 103.414 96.9434 103.525 93.2063 103.525C89.4691 103.525 86.457 103.469 86.457 103.358C86.457 103.246 89.4691 103.19 93.2063 103.19C96.9434 103.246 99.9555 103.302 99.9555 103.358Z" fill="white"/>
<path d="M121.151 97.3334C121.151 97.3891 119.422 97.5007 117.303 97.5007C115.183 97.5007 113.454 97.4449 113.454 97.3334C113.454 97.2776 115.183 97.166 117.303 97.166C119.422 97.166 121.151 97.2776 121.151 97.3334Z" fill="white"/>
<path d="M123.382 103.078C123.382 103.134 120.315 103.246 116.466 103.246C112.673 103.246 109.549 103.19 109.549 103.078C109.549 103.023 112.617 102.911 116.466 102.911C120.315 102.911 123.382 102.967 123.382 103.078Z" fill="white"/>
<path d="M146.14 97.389C146.14 97.4448 143.853 97.5563 141.008 97.5563C138.164 97.5563 135.877 97.5006 135.877 97.389C135.877 97.3332 138.164 97.2217 141.008 97.2217C143.797 97.2775 146.14 97.3332 146.14 97.389Z" fill="white"/>
<path d="M148.037 103.301C148.037 103.357 145.08 103.468 141.399 103.468C137.717 103.468 134.761 103.413 134.761 103.301C134.761 103.245 137.717 103.134 141.399 103.134C145.08 103.134 148.037 103.19 148.037 103.301Z" fill="white"/>
<path d="M128.793 120.705H90.975C90.1941 120.705 89.5806 120.091 89.5806 119.31V110.441C89.5806 109.66 90.1941 109.047 90.975 109.047H128.793C129.574 109.047 130.187 109.66 130.187 110.441V119.31C130.187 120.091 129.574 120.705 128.793 120.705Z" fill="#A48346"/>
<path d="M122.49 115.071C122.49 115.126 117.247 115.238 110.777 115.238C104.306 115.238 99.063 115.182 99.063 115.071C99.063 115.015 104.306 114.903 110.777 114.903C117.303 114.903 122.49 114.959 122.49 115.071Z" fill="white"/>
<path d="M143.853 120.76H134.873C134.148 120.76 133.534 120.146 133.534 119.421V110.106C133.534 109.381 134.148 108.768 134.873 108.768H143.853C144.578 108.768 145.192 109.381 145.192 110.106V119.421C145.192 120.202 144.578 120.76 143.853 120.76Z" fill="#3C3C3C"/>
<path d="M138.108 114.179H140.618L139.447 115.908L138.108 114.179Z" fill="white"/>
<path d="M130.188 129.406C130.188 129.461 123.717 129.573 115.741 129.573C107.765 129.573 101.294 129.517 101.294 129.406C101.294 129.35 107.765 129.238 115.741 129.238C123.717 129.238 130.188 129.294 130.188 129.406Z" fill="white"/>
<path d="M138.61 134.817C138.61 134.873 129.128 134.984 117.414 134.984C105.701 134.984 96.2183 134.928 96.2183 134.817C96.2183 134.705 105.701 134.649 117.414 134.649C129.128 134.705 138.61 134.761 138.61 134.817Z" fill="white"/>
<path d="M162.985 144.244C162.985 144.299 142.626 144.411 117.582 144.411C92.4812 144.411 72.1777 144.355 72.1777 144.244C72.1777 144.132 92.4812 144.076 117.582 144.076C142.626 144.132 162.985 144.188 162.985 144.244Z" fill="#263238"/>
<path d="M118.474 154.841C118.418 154.841 118.307 152.554 118.307 149.71C118.307 146.865 118.362 144.578 118.474 144.578C118.53 144.578 118.641 146.865 118.641 149.71C118.586 152.554 118.53 154.841 118.474 154.841Z" fill="#263238"/>
<path d="M118.195 198.014H81.3812C75.9149 198.014 71.4526 193.552 71.4526 188.086V154.842H118.195V198.014Z" fill="#3C3C3C"/>
<path d="M152.164 198.126L117.749 198.014V154.842H162.483V187.807C162.483 193.329 157.686 198.126 152.164 198.126Z" fill="#455A64"/>
<path d="M162.985 154.841C162.985 154.897 142.626 155.008 117.582 155.008C92.4812 155.008 72.1777 154.953 72.1777 154.841C72.1777 154.73 92.4812 154.674 117.582 154.674C142.626 154.674 162.985 154.785 162.985 154.841Z" fill="#263238"/>
<path d="M116.856 180.11C116.856 180.11 116.801 180.11 116.745 180.054C116.633 179.998 116.522 179.886 116.41 179.775C116.076 179.552 115.629 179.217 115.072 178.771C113.9 177.878 112.227 176.596 110.219 175.089C109.215 174.309 108.099 173.416 106.872 172.524C106.259 172.133 105.422 172.133 104.808 172.579C104.529 172.803 104.25 173.137 103.916 173.416C103.637 173.695 103.302 174.03 103.023 174.309C100.625 176.707 98.0033 179.384 95.2143 182.173C95.047 182.341 94.8797 182.508 94.7123 182.675L94.6008 182.787L94.4892 182.731C92.9274 181.56 91.4214 180.444 89.9711 179.384C89.246 178.827 88.5209 178.325 87.8515 177.767C87.238 177.209 86.3455 177.042 85.6204 177.376C85.2857 177.544 85.0068 177.823 84.6722 178.102C84.3933 178.38 84.0586 178.659 83.7797 178.938C83.2219 179.496 82.6641 179.998 82.1063 180.5C81.0465 181.504 80.0425 182.452 79.0943 183.289C77.2536 184.962 75.7476 186.357 74.7436 187.305C74.2415 187.751 73.8511 188.142 73.5722 188.365C73.4606 188.476 73.3491 188.588 73.2375 188.644C73.2933 188.588 73.4049 188.476 73.5164 188.365C73.7953 188.086 74.1858 187.695 74.6878 187.249C75.7476 186.245 77.1978 184.851 78.9827 183.177C79.8752 182.341 80.8792 181.392 81.9948 180.333C82.5526 179.831 83.1104 179.329 83.6681 178.771C83.947 178.492 84.2259 178.213 84.5606 177.934C84.7279 177.823 84.8395 177.655 85.0068 177.488C85.1742 177.321 85.3415 177.209 85.5646 177.098C85.9551 176.874 86.4013 176.819 86.8475 176.93C87.0706 176.986 87.2938 177.042 87.5169 177.153C87.74 177.265 87.9073 177.376 88.0747 177.544C88.7998 178.046 89.4691 178.604 90.1942 179.161C91.6445 180.221 93.1505 181.392 94.7123 182.508H94.545C94.7123 182.341 94.8796 182.173 95.047 182.006C97.8359 179.217 100.458 176.54 102.856 174.141C103.135 173.862 103.47 173.528 103.748 173.249C104.027 172.97 104.306 172.635 104.641 172.412C105.366 171.91 106.314 171.91 106.984 172.356C108.211 173.249 109.326 174.141 110.33 174.922C112.338 176.484 113.956 177.767 115.127 178.715C115.685 179.161 116.131 179.496 116.41 179.775C116.522 179.886 116.633 179.998 116.745 180.054C116.856 180.054 116.856 180.11 116.856 180.11Z" fill="#263238"/>
<path d="M98.6168 165.606C98.561 165.606 98.6168 165.272 98.4495 164.658C98.2821 164.045 97.8917 163.152 96.9435 162.483C96.4972 162.148 95.9394 161.869 95.2701 161.758C94.6008 161.646 93.8756 161.702 93.2063 161.925C92.5369 162.148 91.8676 162.65 91.3656 163.319C90.8636 163.933 90.6405 164.77 90.5847 165.606C90.5847 166.443 90.8636 167.28 91.3656 167.893C91.8118 168.563 92.4812 169.009 93.2063 169.288C93.8756 169.567 94.6008 169.567 95.2701 169.455C95.9394 169.344 96.4972 169.065 96.9435 168.73C97.8359 168.061 98.2821 167.168 98.4495 166.555C98.6168 165.941 98.6168 165.606 98.6168 165.606C98.6168 165.606 98.6168 165.718 98.6168 165.885C98.6168 166.053 98.6168 166.332 98.5053 166.61C98.3937 167.224 98.0033 168.172 97.055 168.897C96.6088 169.232 95.9952 169.567 95.3259 169.678C94.6565 169.79 93.8756 169.79 93.1505 169.511C92.4254 169.232 91.7003 168.73 91.1983 168.061C90.6962 167.391 90.3616 166.499 90.3616 165.606C90.3616 164.714 90.6405 163.821 91.1983 163.152C91.7003 162.483 92.4254 161.981 93.1505 161.702C93.8756 161.423 94.6565 161.423 95.3259 161.535C95.9952 161.646 96.6088 161.981 97.055 162.315C98.0033 163.041 98.3937 163.989 98.5053 164.602C98.561 164.937 98.6168 165.16 98.6168 165.327C98.6168 165.495 98.6168 165.606 98.6168 165.606Z" fill="#263238"/>
<path d="M161.145 178.771C161.145 178.771 161.089 178.771 161.033 178.715C160.921 178.659 160.81 178.548 160.698 178.436C160.364 178.213 159.973 177.878 159.415 177.432C158.3 176.54 156.682 175.257 154.73 173.695C153.726 172.914 152.666 172.022 151.495 171.129C150.881 170.739 150.045 170.794 149.487 171.241C149.208 171.464 148.929 171.798 148.65 172.077C148.371 172.356 148.092 172.691 147.813 172.97C145.526 175.368 143.016 178.046 140.339 180.835C140.172 181.002 140.004 181.169 139.893 181.337L139.781 181.448L139.67 181.392C138.164 180.221 136.713 179.105 135.319 178.046C134.594 177.488 133.925 176.986 133.255 176.428C132.642 175.87 131.749 175.703 131.08 176.093C130.745 176.261 130.466 176.595 130.187 176.818C129.908 177.097 129.63 177.376 129.351 177.655C128.793 178.213 128.235 178.715 127.733 179.217C126.673 180.221 125.725 181.169 124.833 182.006C123.048 183.679 121.653 185.074 120.649 186.022C120.147 186.468 119.757 186.859 119.478 187.082C119.366 187.193 119.255 187.305 119.199 187.361C119.143 187.416 119.087 187.472 119.087 187.472C119.087 187.472 119.087 187.416 119.199 187.361C119.255 187.305 119.366 187.193 119.478 187.082C119.757 186.803 120.091 186.412 120.593 185.966C121.597 184.962 122.992 183.623 124.721 181.894C125.614 181.058 126.562 180.109 127.566 179.105C128.068 178.603 128.626 178.101 129.183 177.544C129.462 177.265 129.741 176.986 130.02 176.707C130.187 176.595 130.299 176.428 130.466 176.261C130.634 176.093 130.801 175.982 130.968 175.87C131.359 175.647 131.805 175.591 132.251 175.647C132.474 175.703 132.697 175.759 132.865 175.87C133.088 175.982 133.255 176.093 133.423 176.261C134.092 176.763 134.761 177.32 135.486 177.878C136.881 178.938 138.331 180.109 139.837 181.225H139.67C139.837 181.058 139.949 180.89 140.116 180.723C142.793 177.934 145.303 175.312 147.59 172.858C147.869 172.579 148.148 172.245 148.427 171.966C148.706 171.687 148.929 171.352 149.319 171.129C149.989 170.627 150.937 170.627 151.606 171.018C152.833 171.91 153.838 172.802 154.842 173.639C156.794 175.201 158.356 176.54 159.471 177.432C159.973 177.878 160.419 178.213 160.698 178.492C160.81 178.603 160.921 178.715 161.033 178.771C161.089 178.715 161.145 178.715 161.145 178.771Z" fill="#263238"/>
<path d="M142.18 164.38C142.124 164.38 142.18 164.045 142.012 163.432C141.845 162.818 141.455 161.926 140.506 161.256C140.06 160.922 139.502 160.643 138.833 160.531C138.164 160.42 137.439 160.475 136.769 160.698C136.1 160.922 135.431 161.424 134.929 162.093C134.427 162.706 134.203 163.543 134.148 164.38C134.148 165.216 134.427 166.053 134.929 166.667C135.375 167.336 136.044 167.782 136.769 168.061C137.439 168.34 138.164 168.34 138.833 168.229C139.502 168.117 140.06 167.838 140.506 167.503C141.399 166.834 141.845 165.942 142.012 165.328C142.124 164.714 142.124 164.38 142.18 164.38C142.18 164.38 142.18 164.491 142.18 164.659C142.18 164.826 142.18 165.105 142.068 165.384C141.957 165.997 141.566 166.946 140.618 167.671C140.172 168.005 139.558 168.34 138.889 168.452C138.22 168.563 137.439 168.563 136.713 168.284C135.988 168.005 135.263 167.503 134.761 166.834C134.259 166.165 133.925 165.272 133.925 164.38C133.925 163.487 134.203 162.595 134.761 161.926C135.263 161.256 135.988 160.754 136.713 160.475C137.439 160.196 138.22 160.196 138.889 160.308C139.558 160.42 140.172 160.754 140.618 161.089C141.566 161.814 141.957 162.762 142.068 163.376C142.124 163.71 142.18 163.934 142.18 164.101C142.18 164.268 142.18 164.38 142.18 164.38Z" fill="#263238"/>
<path d="M118.474 67.2133C125.621 67.2133 131.415 61.4196 131.415 54.2727C131.415 47.1258 125.621 41.332 118.474 41.332C111.327 41.332 105.533 47.1258 105.533 54.2727C105.533 61.4196 111.327 67.2133 118.474 67.2133Z" fill="#5E5E5E"/>
<path d="M126.841 64.0337C126.45 60.0734 123.104 56.6709 118.474 56.6709C113.9 56.6709 110.721 60.1292 110.107 64.0337C110.107 64.0337 112.952 67.1573 118.474 67.1015C123.996 67.1015 126.841 64.0337 126.841 64.0337Z" fill="#4D4D4D"/>
<path d="M123.49 53.3369C123.938 50.5695 122.058 47.9631 119.29 47.5154C116.523 47.0677 113.916 48.9482 113.469 51.7157C113.021 54.4831 114.901 57.0895 117.669 57.5372C120.436 57.9849 123.043 56.1043 123.49 53.3369Z" fill="#4D4D4D"/>
<path d="M126.785 63.5872C126.729 63.5872 126.729 62.6389 126.004 61.1887C125.614 60.4636 125.056 59.6827 124.163 58.9575C123.327 58.2324 122.211 57.5631 120.872 57.1168L120.594 57.0053L120.817 56.8937C121.598 56.4475 122.378 55.7782 122.825 54.8857C123.327 53.9932 123.55 52.8777 123.383 51.8179C123.215 50.7023 122.657 49.6425 121.821 48.8616C120.928 48.0807 119.757 47.5787 118.53 47.5787C117.303 47.5787 116.131 48.0249 115.239 48.8058C114.346 49.5867 113.789 50.6465 113.621 51.7621C113.454 52.8777 113.677 53.9375 114.123 54.8299C114.346 55.2762 114.681 55.6666 115.016 56.0013C115.35 56.3359 115.741 56.6148 116.131 56.838L116.354 57.0053L116.076 57.0611C114.737 57.4515 113.565 58.1209 112.785 58.9018C111.948 59.6827 111.446 60.5194 111.055 61.2445C110.665 61.9696 110.498 62.5832 110.386 62.9736C110.33 63.1967 110.275 63.3641 110.275 63.4756C110.275 63.5872 110.219 63.643 110.219 63.643C110.219 63.643 110.219 63.5872 110.219 63.4756C110.219 63.3641 110.275 63.1967 110.33 62.9736C110.442 62.5274 110.609 61.9138 110.944 61.1887C111.279 60.4636 111.836 59.5711 112.673 58.7902C113.51 58.0093 114.625 57.2842 116.02 56.8937L115.964 57.1168C115.573 56.8937 115.127 56.6148 114.793 56.2244C114.458 55.8897 114.123 55.4435 113.844 54.9973C113.342 54.049 113.119 52.9335 113.287 51.7621C113.454 50.5907 114.012 49.4752 114.96 48.6385C115.852 47.8018 117.135 47.2998 118.418 47.2998C119.701 47.2998 120.984 47.8018 121.876 48.6385C122.825 49.4752 123.383 50.5907 123.55 51.7621C123.717 52.9335 123.494 54.049 122.992 54.9973C122.49 55.9455 121.709 56.6706 120.872 57.1168V56.8937C122.267 57.34 123.383 58.0651 124.219 58.846C125.112 59.6269 125.669 60.4636 126.06 61.1887C126.227 61.5791 126.395 61.9138 126.45 62.1927C126.562 62.4716 126.618 62.7505 126.618 62.9736C126.673 63.1967 126.673 63.3083 126.673 63.4756C126.785 63.5314 126.785 63.5872 126.785 63.5872Z" fill="white"/>
<path d="M131.359 54.2724C131.359 54.2724 131.359 54.2166 131.359 54.0493C131.359 53.8819 131.359 53.7146 131.303 53.4357C131.303 53.3242 131.303 53.1568 131.247 52.9895C131.247 52.8222 131.192 52.6548 131.136 52.4317C131.08 52.0413 131.024 51.595 130.857 51.093C130.634 50.089 130.132 48.9176 129.407 47.6905C128.681 46.4634 127.566 45.1805 126.116 44.0649C124.665 42.9493 122.825 42.0569 120.705 41.6664C118.586 41.3317 116.243 41.3875 113.956 42.2242C113.398 42.3915 112.84 42.6704 112.283 42.9493C111.781 43.284 111.223 43.5629 110.721 43.9533C110.219 44.288 109.772 44.7342 109.27 45.1805C108.824 45.6825 108.378 46.1287 108.043 46.6865C107.262 47.7463 106.593 48.9176 106.203 50.2006C105.812 51.4835 105.589 52.8221 105.533 54.2166C105.533 55.6111 105.756 56.9498 106.203 58.2327C106.593 59.5156 107.262 60.6869 108.043 61.7467C108.434 62.3045 108.88 62.7508 109.27 63.2528C109.772 63.699 110.219 64.1452 110.721 64.4799C111.223 64.8703 111.781 65.1492 112.283 65.4839C112.84 65.7628 113.398 66.0417 113.956 66.209C116.187 67.0457 118.586 67.1573 120.705 66.7668C122.825 66.3764 124.665 65.4839 126.116 64.3683C127.566 63.2528 128.626 61.9699 129.407 60.7427C130.132 59.5156 130.634 58.3442 130.857 57.3402C131.024 56.8382 131.08 56.392 131.136 56.0015C131.192 55.8342 131.192 55.6111 131.247 55.4437C131.247 55.2764 131.247 55.1091 131.303 54.9975C131.303 54.7186 131.359 54.5513 131.359 54.384C131.359 54.3282 131.359 54.2724 131.359 54.2724C131.359 54.2724 131.359 54.3282 131.359 54.4955C131.359 54.6628 131.359 54.8302 131.359 55.1091C131.359 55.2206 131.359 55.388 131.359 55.5553C131.359 55.7226 131.303 55.89 131.303 56.1131C131.247 56.5035 131.192 56.9498 131.08 57.4518C130.857 58.4558 130.411 59.6829 129.685 60.9101C128.96 62.193 127.845 63.4759 126.395 64.6472C124.944 65.7628 123.048 66.711 120.928 67.1015C118.809 67.4919 116.354 67.4362 114.067 66.5437C113.454 66.3764 112.952 66.0417 112.338 65.8186C111.781 65.4839 111.223 65.205 110.721 64.8146C110.163 64.4241 109.717 63.9779 109.215 63.5317C108.768 63.0296 108.322 62.5834 107.932 62.0256C107.151 60.9658 106.482 59.7387 106.035 58.4C105.589 57.0613 105.366 55.6669 105.366 54.2724C105.366 52.8779 105.589 51.4835 106.035 50.1448C106.426 48.8061 107.151 47.6347 107.932 46.5192C108.322 45.9614 108.768 45.5151 109.215 45.0131C109.717 44.5669 110.163 44.1207 110.721 43.7302C111.223 43.3398 111.781 43.0051 112.338 42.7262C112.896 42.4473 113.454 42.1684 114.067 42.0011C116.354 41.1086 118.809 41.0529 120.928 41.4433C123.104 41.8338 124.944 42.782 126.395 43.8976C127.845 45.0131 128.96 46.3518 129.685 47.6347C130.411 48.9176 130.857 50.089 131.08 51.093C131.247 51.595 131.247 52.0413 131.303 52.4317C131.303 52.6548 131.359 52.8222 131.359 52.9895C131.359 53.1568 131.359 53.3242 131.359 53.4357C131.359 53.7146 131.359 53.8819 131.359 54.0493C131.415 54.1608 131.415 54.2724 131.359 54.2724Z" fill="white"/>
<path d="M65.038 112.952C58.233 116.466 53.0456 122.49 49.3084 129.184C45.5712 135.821 43.1727 143.128 40.7743 150.435L38.7104 187.863C46.631 174.42 52.934 158.635 54.6631 143.184C52.934 143.017 51.1491 142.85 49.42 142.738C52.934 142.18 55.8903 139.67 57.7868 136.602C59.6832 133.59 60.6315 130.076 61.5797 126.674C59.4601 127.008 57.2847 127.287 55.1652 127.622C60.1295 124.164 63.7551 118.809 65.038 112.952Z" fill="#455A64"/>
<path d="M65.038 112.952C58.233 116.466 53.0456 122.49 49.3084 129.184C45.5712 135.821 43.1727 143.128 40.7743 150.435L38.7104 187.863C46.631 174.42 52.934 158.635 54.6631 143.184C52.934 143.017 51.1491 142.85 49.42 142.738C52.934 142.18 55.8903 139.67 57.7868 136.602C59.6832 133.59 60.6315 130.076 61.5797 126.674C59.4601 127.008 57.2847 127.287 55.1652 127.622C60.1295 124.164 63.7551 118.809 65.038 112.952Z" fill="#455A64"/>
<path d="M37.5391 196.564C37.5391 196.564 20.4151 176.038 20.5824 156.459H27.499C27.499 156.459 19.9689 151.495 20.5824 148.762C21.196 145.973 21.3633 135.486 21.3633 135.486L27.6663 137.048C27.6663 137.048 22.9251 134.65 22.3116 130.913C21.698 127.175 23.706 109.772 23.706 109.772C23.706 109.772 31.4035 117.86 33.802 126.171C36.2005 134.482 42.3919 144.188 40.5512 169.456C38.7663 194.835 37.5391 196.564 37.5391 196.564Z" fill="#455A64"/>
<path d="M46.1848 198.516C46.1848 198.516 64.7591 186.133 68.8868 170.348L63.3089 168.842C63.3089 168.842 70.4486 166.499 70.5601 164.156C70.6717 161.814 72.8471 153.335 72.8471 153.335L67.4365 153.224C67.4365 153.224 71.7873 152.331 73.0702 149.487C74.3531 146.642 76.5842 132.195 76.5842 132.195C76.5842 132.195 68.6079 137.048 64.8707 143.184C61.1335 149.319 53.9939 155.79 49.9778 176.539C45.9617 197.289 46.1848 198.516 46.1848 198.516Z" fill="#455A64"/>
<path d="M28.4472 127.733C28.4472 127.733 28.4472 127.789 28.503 127.957C28.5587 128.124 28.6145 128.347 28.6703 128.57C28.7818 129.128 29.005 129.965 29.2281 131.024C29.4512 132.084 29.7301 133.367 30.0648 134.873C30.3437 136.379 30.7341 138.108 31.0688 140.005C31.7939 143.798 32.5748 148.372 33.3557 153.392C34.1366 158.467 34.9175 164.045 35.5868 169.902C36.2562 175.759 36.7582 181.392 37.2044 186.468C37.5949 191.6 37.8738 196.174 38.0411 200.023C38.1527 201.975 38.2084 203.704 38.2084 205.266C38.2642 206.828 38.2642 208.11 38.32 209.226C38.32 210.286 38.32 211.123 38.3758 211.736C38.3758 212.015 38.3758 212.238 38.3758 212.405C38.3758 212.238 38.3758 212.015 38.32 211.736C38.32 211.178 38.2642 210.342 38.2642 209.226C38.2084 208.166 38.2084 206.828 38.0969 205.266C38.0411 203.704 37.9853 201.975 37.8738 200.023C37.7064 196.174 37.3718 191.544 36.9813 186.468C36.5909 181.392 36.0331 175.759 35.3637 169.902C34.6944 164.045 33.9135 158.467 33.1326 153.392C32.3517 148.316 31.6266 143.798 30.9014 140.005C30.5668 138.108 30.2321 136.379 29.9532 134.873C29.6743 133.367 29.3954 132.084 29.1723 131.024C28.9492 129.965 28.7818 129.128 28.6703 128.57C28.6145 128.291 28.5587 128.068 28.5587 127.957C28.4472 127.789 28.3914 127.733 28.4472 127.733Z" fill="#263238"/>
<path d="M35.1406 209.114C35.1406 209.114 19.4668 191.321 14.614 180.555L18.2954 178.994C15.618 179.44 12.8849 178.268 10.8211 176.539C8.75725 174.81 7.25123 172.523 5.7452 170.236L10.5979 169.4C6.19143 168.173 2.3427 165.16 0 161.2C5.68942 162.148 10.8768 165.272 15.116 169.177C18.5743 172.356 21.4748 176.037 24.2637 179.83C25.6582 181.671 26.8295 183.623 27.8336 185.687C30.5109 191.209 35.1406 202.588 35.1406 209.114Z" fill="#455A64"/>
<path d="M69.1098 142.515C69.1098 142.515 69.1098 142.57 69.054 142.682C68.9982 142.794 68.8867 142.961 68.8309 143.184C68.6078 143.63 68.2731 144.3 67.8827 145.136C67.4364 145.973 66.9344 147.033 66.3766 148.26C65.8188 149.487 65.0937 150.881 64.4244 152.387C62.9741 155.455 61.3008 159.137 59.5159 163.32C57.7309 167.448 55.8345 172.022 53.9938 176.874C52.1531 181.727 50.4239 186.357 48.9737 190.652C47.5234 194.891 46.2405 198.74 45.2365 202.031C44.7345 203.648 44.2883 205.154 43.8978 206.437C43.5074 207.72 43.1727 208.835 42.8938 209.784C42.6149 210.676 42.4476 211.401 42.2802 211.903C42.2245 212.126 42.1687 212.294 42.1129 212.461C42.1687 212.35 42.1687 212.126 42.2802 211.903C42.3918 211.401 42.6149 210.676 42.838 209.784C43.0611 208.891 43.3958 207.72 43.7863 206.437C44.1767 205.154 44.5672 203.648 45.0692 202.031C46.0732 198.795 47.3003 194.891 48.7506 190.652C50.2008 186.412 51.8742 181.727 53.7706 176.874C55.6671 172.022 57.5636 167.448 59.3485 163.32C61.1334 159.192 62.8626 155.511 64.3128 152.443C65.0379 150.881 65.7073 149.543 66.3209 148.316C66.9344 147.088 67.4364 146.084 67.8827 145.192C68.3289 144.355 68.6636 143.686 68.8867 143.24C68.9982 143.017 69.1098 142.849 69.1656 142.738C69.1098 142.57 69.1098 142.515 69.1098 142.515Z" fill="#263238"/>
<path d="M36.4792 216.756C36.4792 216.756 36.4234 216.644 36.4234 216.421C36.3676 216.198 36.3119 215.863 36.2561 215.473C36.2003 215.082 36.1445 214.58 36.033 213.967C35.9214 213.409 35.8098 212.74 35.6425 212.015C35.3636 210.564 34.9732 208.835 34.4712 206.939C33.9691 205.042 33.2998 202.978 32.5189 200.859C31.738 198.739 30.8455 196.787 30.0089 195.002C29.1164 193.217 28.3355 191.711 27.5546 190.428C27.2199 189.759 26.8295 189.201 26.5506 188.699C26.2717 188.197 25.9928 187.751 25.7697 187.416C25.5466 187.082 25.3792 186.803 25.2677 186.635C25.1561 186.468 25.1003 186.356 25.1003 186.356C25.1003 186.356 25.1561 186.468 25.3235 186.635C25.4908 186.858 25.6581 187.082 25.8812 187.416C26.1044 187.751 26.439 188.197 26.7179 188.699C27.0526 189.201 27.3873 189.759 27.7777 190.372C28.5586 191.655 29.3953 193.217 30.2878 194.946C31.1802 196.731 32.0169 198.684 32.8536 200.803C33.6345 202.923 34.3038 204.987 34.8058 206.883C35.3078 208.779 35.6983 210.509 35.9214 211.959C36.0887 212.684 36.1445 213.353 36.2561 213.967C36.3676 214.525 36.4234 215.082 36.4234 215.473C36.4792 215.863 36.4792 216.198 36.535 216.421C36.4792 216.644 36.4792 216.756 36.4792 216.756Z" fill="#263238"/>
<path d="M57.1174 212.572H22.8135V219.545H57.1174V212.572Z" fill="#A48346"/>
<path d="M26.1045 219.601L29.8417 243.139H50.5355L53.9938 219.601H26.1045Z" fill="#A48346"/>
<path d="M55.0535 219.601C55.0535 219.657 48.5832 219.768 40.551 219.768C32.5189 219.768 26.0486 219.712 26.0486 219.601C26.0486 219.545 32.5189 219.434 40.551 219.434C48.5832 219.434 55.0535 219.489 55.0535 219.601Z" fill="#263238"/>
<g opacity="0.3">
<path d="M65.038 112.952C58.233 116.466 53.0456 122.49 49.3084 129.184C45.5712 135.821 43.1727 143.128 40.7743 150.435L38.7104 187.863C46.631 174.42 52.934 158.635 54.6631 143.184C52.934 143.017 51.1491 142.85 49.42 142.738C52.934 142.18 55.8903 139.67 57.7868 136.602C59.6832 133.59 60.6315 130.076 61.5797 126.674C59.4601 127.008 57.2847 127.287 55.1652 127.622C60.1295 124.164 63.7551 118.809 65.038 112.952Z" fill="black"/>
</g>
<path d="M224.788 143.128C224.788 143.128 230.478 152.554 231.314 161.59C232.151 170.571 226.183 243.25 226.183 243.25H155.399C155.399 243.25 174.364 153.558 180.556 147.757L181.002 141.789L224.788 143.128Z" fill="#263238"/>
<path d="M227.8 150.323C227.8 150.323 227.856 150.769 227.8 151.606C227.744 152.443 227.577 153.67 227.131 155.176C226.685 156.682 225.848 158.467 224.509 160.252C223.84 161.144 223.003 162.037 221.999 162.818C220.995 163.599 219.88 164.324 218.652 165.049C217.425 165.774 216.142 166.443 214.804 167.28C213.521 168.117 212.182 169.009 211.122 170.236C210.062 171.463 209.17 172.969 208.612 174.643C208.054 176.316 207.72 178.101 207.441 179.942C207.162 181.782 207.05 183.679 206.772 185.631C206.493 187.583 206.158 189.536 205.433 191.488C204.708 193.384 203.592 195.225 202.03 196.62C200.469 198.07 198.572 199.13 196.62 200.022C192.715 201.807 188.588 202.978 185.129 205.042C183.4 206.102 181.894 207.385 180.723 208.947C179.552 210.508 178.826 212.293 178.269 214.022C177.153 217.537 176.651 221.106 175.703 224.286C175.591 224.676 175.48 225.067 175.368 225.457C175.257 225.848 175.089 226.238 174.978 226.628C174.643 227.354 174.364 228.079 174.029 228.804C173.695 229.529 173.304 230.143 172.914 230.756C172.691 231.035 172.468 231.37 172.3 231.649L171.966 232.095L171.631 232.485C169.902 234.716 167.95 236.39 166.053 237.617C164.157 238.844 162.428 239.681 160.921 240.183C159.415 240.685 158.244 240.964 157.407 241.131C157.017 241.187 156.682 241.242 156.459 241.298C156.682 241.242 156.961 241.187 157.407 241.131C158.244 240.964 159.415 240.685 160.866 240.127C162.316 239.569 164.101 238.732 165.942 237.505C167.782 236.278 169.735 234.549 171.464 232.374L171.798 231.983L172.077 231.537C172.3 231.258 172.468 230.923 172.691 230.645C173.081 230.031 173.472 229.362 173.806 228.692C174.197 228.023 174.476 227.298 174.755 226.573C174.866 226.182 175.033 225.792 175.145 225.457C175.257 225.067 175.368 224.676 175.48 224.286C176.372 221.106 176.874 217.592 177.99 214.022C178.548 212.238 179.328 210.453 180.5 208.835C181.671 207.273 183.233 205.879 184.962 204.819C188.476 202.699 192.548 201.528 196.452 199.743C198.405 198.851 200.245 197.791 201.751 196.396C203.257 195.002 204.429 193.217 205.098 191.376C205.823 189.48 206.158 187.528 206.437 185.631C206.716 183.679 206.883 181.782 207.106 179.942C207.385 178.101 207.72 176.316 208.278 174.587C208.891 172.914 209.784 171.408 210.843 170.125C211.959 168.898 213.298 167.949 214.581 167.113C215.919 166.332 217.202 165.607 218.429 164.937C219.656 164.212 220.772 163.543 221.776 162.706C222.78 161.925 223.561 161.033 224.286 160.196C225.625 158.411 226.461 156.682 226.963 155.176C227.465 153.67 227.633 152.443 227.689 151.662C227.744 151.271 227.744 150.937 227.744 150.714C227.8 150.435 227.8 150.323 227.8 150.323Z" fill="#455A64"/>
<path d="M229.808 156.961C229.808 156.961 229.864 157.072 229.92 157.24C229.975 157.407 230.087 157.686 230.143 158.077C230.31 158.857 230.422 160.029 230.087 161.479C229.752 162.929 229.083 164.658 227.744 166.276C226.461 167.949 224.676 169.567 222.613 171.184C220.605 172.858 218.262 174.643 216.533 177.153C215.64 178.436 214.971 179.886 214.636 181.504C214.302 183.121 214.19 184.794 214.079 186.524C213.967 188.253 213.8 190.038 213.353 191.823C212.907 193.608 212.238 195.337 211.345 197.01C209.56 200.357 206.883 203.425 203.481 205.656C200.078 207.887 196.229 208.947 192.883 210.62C191.209 211.457 189.592 212.461 188.309 213.688C187.026 214.971 186.022 216.477 185.297 218.039C183.847 221.218 183.289 224.509 182.452 227.465C182.062 228.971 181.615 230.421 181.113 231.76C180.556 233.099 179.942 234.326 179.161 235.442C178.38 236.557 177.544 237.45 176.651 238.23C176.205 238.621 175.759 238.956 175.312 239.346C174.866 239.625 174.42 239.96 173.918 240.238C172.077 241.298 170.348 241.856 168.898 242.191C167.448 242.525 166.276 242.525 165.495 242.525C165.105 242.525 164.826 242.47 164.603 242.47C164.38 242.47 164.324 242.47 164.324 242.47C164.324 242.47 164.436 242.47 164.603 242.47C164.826 242.47 165.105 242.47 165.495 242.47C166.276 242.414 167.392 242.414 168.842 242.079C170.292 241.745 171.966 241.187 173.806 240.127C174.253 239.904 174.699 239.569 175.145 239.234C175.591 238.9 176.037 238.565 176.484 238.175C177.376 237.394 178.213 236.446 178.938 235.386C179.663 234.326 180.332 233.099 180.834 231.76C181.336 230.421 181.783 228.971 182.173 227.521C182.954 224.565 183.568 221.218 184.962 218.039C185.687 216.421 186.691 214.915 187.974 213.632C189.313 212.349 190.93 211.345 192.604 210.508C196.006 208.835 199.855 207.72 203.202 205.544C206.548 203.369 209.17 200.301 210.955 197.01C211.847 195.337 212.517 193.608 212.963 191.878C213.409 190.149 213.632 188.364 213.688 186.635C213.8 184.906 213.911 183.177 214.246 181.559C214.581 179.942 215.306 178.436 216.198 177.153C217.983 174.587 220.326 172.802 222.39 171.129C224.453 169.455 226.238 167.894 227.521 166.276C228.804 164.658 229.529 162.929 229.864 161.535C230.199 160.085 230.087 158.969 229.975 158.188C229.975 157.351 229.808 156.961 229.808 156.961Z" fill="#455A64"/>
<path d="M157.965 106.425C157.965 106.425 162.539 138.108 169.623 141.175C173.193 142.737 176.038 141.399 177.99 137.829C179.942 134.259 184.906 108.378 184.906 108.378L171.185 108.043L170.683 113.175L165.384 103.302L157.965 106.425Z" fill="#936760"/>
<path d="M178.213 127.064C178.213 127.064 178.157 126.953 178.101 126.841C177.99 126.674 177.878 126.451 177.711 126.172C177.376 125.558 176.874 124.666 176.317 123.662C175.145 121.542 173.528 118.53 171.743 115.239C170.014 111.948 168.396 108.992 167.225 106.817C166.667 105.757 166.221 104.92 165.886 104.251C165.719 103.972 165.607 103.749 165.495 103.582C165.384 103.414 165.384 103.358 165.328 103.358C165.328 103.358 165.328 103.47 165.44 103.637C165.551 103.805 165.663 104.084 165.774 104.362C166.053 104.976 166.499 105.868 167.057 106.984C168.173 109.159 169.735 112.171 171.52 115.462C173.304 118.753 174.922 121.71 176.149 123.829C176.763 124.889 177.265 125.726 177.599 126.339C177.767 126.618 177.934 126.841 178.046 127.009C178.157 127.009 178.213 127.12 178.213 127.064Z" fill="#6F4C47"/>
<path d="M226.127 113.845L222.166 131.359L224.063 143.129H180.946L183.735 88.1865L194.5 87.2383L220.772 91.7006L226.127 113.845Z" fill="#A48346"/>
<path d="M215.138 91.3662C215.138 91.3662 226.35 90.3622 231.705 97.9481C234.996 102.634 239.569 113.343 239.569 113.343L224.621 115.909L215.138 91.3662Z" fill="#A48346"/>
<g opacity="0.3">
<path d="M221.943 114.012C220.493 110.888 217.091 108.824 213.632 108.88C212.907 108.88 212.07 109.103 211.624 109.717C211.178 110.386 211.457 111.223 211.736 112.004C212.126 112.952 212.628 113.956 213.521 114.402C214.19 114.737 214.971 114.737 215.696 114.96C216.589 115.239 217.314 115.852 217.983 116.41C218.541 116.912 219.154 117.358 219.489 118.028C219.768 118.53 219.935 119.143 220.103 119.701C220.828 122.546 221.386 128.458 222.111 131.359L222.892 128.905C222.892 126.562 222.947 124.163 222.947 121.821C223.059 119.199 223.059 116.41 221.943 114.012Z" fill="black"/>
</g>
<path d="M208.556 128.627C208.556 128.571 209.17 128.682 210.062 128.738C211.011 128.794 212.294 128.85 213.744 128.627C215.194 128.459 216.421 128.069 217.314 127.79C218.206 127.455 218.764 127.232 218.764 127.288C218.764 127.288 218.652 127.399 218.429 127.511C218.206 127.623 217.871 127.79 217.425 127.957C216.533 128.292 215.25 128.682 213.8 128.905C212.349 129.073 211.011 129.073 210.062 128.905C209.56 128.85 209.226 128.794 208.947 128.738C208.668 128.738 208.556 128.682 208.556 128.627Z" fill="#263238"/>
<path d="M189.759 129.407C189.759 129.351 195.895 131.08 203.369 133.311C210.899 135.542 216.923 137.383 216.923 137.439C216.923 137.494 210.788 135.765 203.313 133.534C195.783 131.359 189.703 129.518 189.759 129.407Z" fill="#263238"/>
<g opacity="0.3">
<path d="M208.835 128.737C209.895 130.355 211.959 131.303 213.911 131.08C215.864 130.857 217.37 129.574 218.039 127.733C215.083 128.961 212.015 129.128 208.835 128.737Z" fill="black"/>
</g>
<g opacity="0.3">
<path d="M215.25 136.881L215.083 136.937C211.234 137.606 207.608 136.937 203.927 135.598C200.246 134.316 196.787 132.419 193.385 130.467C200.692 132.642 207.999 134.762 215.25 136.881Z" fill="black"/>
</g>
<path d="M183.735 88.1861C183.735 88.1861 176.651 89.0786 173.862 95.1027C171.129 101.183 169.065 108.434 169.065 108.434L183.568 111.669C183.568 111.669 185.855 99.3976 186.022 95.1027C186.245 90.3615 186.412 88.0188 183.735 88.1861Z" fill="#A48346"/>
<path d="M182.396 113.621C182.34 113.621 182.285 111.781 182.285 109.549C182.285 107.318 182.34 105.478 182.452 105.478C182.508 105.478 182.564 107.318 182.564 109.549C182.508 111.836 182.452 113.621 182.396 113.621Z" fill="#263238"/>
<path d="M190.261 49.3084C194.11 44.623 199.241 41.9456 205.321 41.8341C208.724 41.7783 210.174 42.5034 212.628 43.1728C215.082 43.8421 217.314 45.1808 218.764 47.2446C220.493 49.6989 221.999 52.4878 222.278 55.4999C222.613 58.5677 222.947 61.6913 222.724 64.8149C222.501 67.9385 221.664 71.0621 219.824 73.5721L211.959 74.9666C207.608 75.1339 203.202 75.2455 198.962 74.2415C194.723 73.2375 190.596 70.9506 188.309 67.2692C185.129 61.9702 186.412 53.9938 190.261 49.3084Z" fill="#263238"/>
<path d="M217.425 77.9224C217.425 77.9224 217.537 78.0897 217.872 78.3129C218.206 78.536 218.764 78.7591 219.489 78.8706C220.214 78.9264 221.107 78.8706 221.999 78.3686C222.892 77.8666 223.561 76.9742 223.896 75.8586C224.175 74.743 224.063 73.5717 223.505 72.735C223.003 71.8983 222.278 71.3405 221.609 71.0058C220.939 70.727 220.326 70.6154 219.935 70.6712C219.545 70.6712 219.322 70.7827 219.322 70.7827C219.322 70.8943 220.214 70.6712 221.497 71.2847C222.111 71.6194 222.724 72.1214 223.171 72.9023C223.617 73.6832 223.728 74.6872 223.449 75.6913C223.171 76.6953 222.557 77.4762 221.776 77.9224C220.995 78.3686 220.214 78.4802 219.489 78.4802C218.206 78.4802 217.481 77.8666 217.425 77.9224Z" fill="#4D4D4D"/>
<path d="M182.619 72.1782C182.842 70.3932 183.735 68.6641 185.297 67.7159C186.858 66.8234 188.978 66.8792 190.261 68.1621L191.488 69.6123C193.44 70.449 194.668 72.6244 194.444 74.744C194.221 76.8636 192.604 78.7043 190.596 79.3178C188.588 79.9314 186.245 79.3178 184.739 77.9234C183.121 76.5289 182.396 74.2977 182.619 72.1782Z" fill="#263238"/>
<path d="M184.181 77.5324C184.237 77.5324 183.679 76.9746 183.735 75.9706C183.791 74.9666 184.516 73.6279 185.52 72.4008C186.524 71.1736 187.751 70.337 188.699 69.8907C189.647 69.3887 190.261 69.2214 190.261 69.1656C190.261 69.1098 189.592 69.2214 188.588 69.6676C187.584 70.1138 186.301 70.9505 185.241 72.1776C184.683 72.7912 184.293 73.4605 183.958 74.1299C183.623 74.7435 183.456 75.4128 183.456 75.9706C183.456 76.5284 183.623 76.9746 183.791 77.1977C184.014 77.4766 184.181 77.5324 184.181 77.5324Z" fill="#455A64"/>
<path d="M187.974 79.8747C188.086 79.8747 187.584 77.4762 188.309 74.6873C189.034 71.8426 190.651 70.0576 190.54 69.9461C190.484 69.8903 190.038 70.3365 189.48 71.1174C188.922 71.8983 188.309 73.1255 187.918 74.5757C187.528 76.026 187.528 77.3646 187.584 78.3687C187.751 79.3169 187.974 79.8747 187.974 79.8747Z" fill="#455A64"/>
<path d="M211.959 87.6842C211.903 84.8953 211.847 82.6642 211.847 82.6642C211.847 82.6642 218.262 81.939 220.047 73.6838C220.939 69.5562 221.107 62.8069 221.051 57.2291C220.995 52.209 216.756 45.404 210.564 45.404L207.831 45.0693L197.289 49.2527C195.783 49.3085 194.556 50.5356 194.5 52.0974L194.166 87.2938L204.317 112.004L211.624 102.131L211.959 87.6842Z" fill="#936760"/>
<path d="M207.664 71.7874C207.72 71.3412 207.943 70.9507 208.277 70.7276C208.891 70.2256 209.783 70.1698 210.453 70.616C211.122 71.0623 211.513 72.0105 211.345 72.8472C210.955 73.3492 210.397 73.6839 209.783 73.7396C209.672 73.7396 209.56 73.7396 209.505 73.7396C209.003 73.7396 208.556 73.5723 208.166 73.2376C207.831 72.8472 207.608 72.2894 207.664 71.7874Z" fill="#6F4C47"/>
<path d="M216.923 62.9191C216.923 63.4768 216.421 63.9231 215.808 63.9231C215.194 63.9231 214.748 63.4768 214.748 62.9191C214.748 62.3613 215.25 61.915 215.808 61.915C216.477 61.915 216.979 62.3613 216.923 62.9191Z" fill="#263238"/>
<path d="M218.987 60.2974C218.82 60.409 218.094 59.7954 216.923 59.7397C215.752 59.6839 214.915 60.1859 214.804 60.0743C214.748 60.0185 214.915 59.7397 215.25 59.5165C215.64 59.2934 216.254 59.0703 216.979 59.0703C217.704 59.1261 218.262 59.405 218.596 59.6839C218.931 60.0185 219.043 60.2417 218.987 60.2974Z" fill="#263238"/>
<path d="M211.791 68.9982C211.791 68.9425 212.517 68.8309 213.688 68.7751C213.967 68.7751 214.246 68.7193 214.302 68.4962C214.357 68.2731 214.302 67.9384 214.134 67.6038C213.911 66.8786 213.632 66.0977 213.409 65.3168C212.405 62.0817 211.624 59.4043 211.791 59.3485C211.903 59.2928 212.851 61.9143 213.911 65.1495C214.134 65.9304 214.413 66.7113 214.636 67.4364C214.748 67.7711 214.915 68.1616 214.748 68.6078C214.636 68.8309 214.413 68.9425 214.246 68.9982C214.078 69.054 213.911 69.054 213.744 69.054C212.517 69.1098 211.791 69.1098 211.791 68.9982Z" fill="#263238"/>
<path d="M211.847 82.6646C211.847 82.6646 206.214 82.7203 200.859 79.0947C200.859 79.0947 203.536 85.0073 211.903 84.7284L211.847 82.6646Z" fill="#6F4C47"/>
<path d="M208.333 69.6123C208.5 69.6123 208.445 70.8394 209.449 71.7877C210.453 72.7359 211.791 72.6801 211.791 72.8475C211.791 72.9032 211.457 73.0706 210.899 73.0706C210.341 73.0706 209.56 72.8475 208.947 72.2339C208.333 71.6761 208.11 70.8952 208.054 70.3932C208.11 69.8912 208.277 69.6123 208.333 69.6123Z" fill="#263238"/>
<path d="M218.764 56.0023C218.541 56.2812 217.704 56.0581 216.644 56.0581C215.584 56.0581 214.748 56.337 214.525 56.0581C214.413 55.9465 214.58 55.6676 214.915 55.3887C215.306 55.1098 215.919 54.8867 216.588 54.8867C217.314 54.8867 217.927 55.1098 218.318 55.3329C218.708 55.6118 218.875 55.835 218.764 56.0023Z" fill="#263238"/>
<path d="M203.592 62.6395C203.536 63.1973 204.038 63.6993 204.596 63.7551C205.21 63.8108 205.712 63.3646 205.712 62.8068C205.767 62.249 205.265 61.747 204.708 61.6912C204.094 61.6355 203.592 62.0817 203.592 62.6395Z" fill="#263238"/>
<path d="M203.257 59.9067C203.369 60.074 204.206 59.4605 205.377 59.4605C206.548 59.4605 207.385 60.074 207.497 59.9067C207.552 59.8509 207.441 59.572 207.05 59.2931C206.716 59.0142 206.102 58.7354 205.377 58.7354C204.652 58.7354 204.038 58.9585 203.704 59.2374C203.313 59.572 203.202 59.8509 203.257 59.9067Z" fill="#263238"/>
<path d="M202.588 57.4526C202.811 57.7315 203.704 57.4526 204.763 57.4526C205.823 57.4526 206.716 57.6757 206.939 57.3968C207.05 57.2853 206.883 57.0064 206.493 56.7275C206.102 56.4486 205.489 56.2812 204.708 56.2812C203.983 56.2812 203.313 56.5044 202.979 56.7833C202.644 57.0622 202.477 57.2853 202.588 57.4526Z" fill="#263238"/>
<path d="M195.95 66.0425C196.006 65.4289 195.337 63.9229 194.723 63.8113C193.106 63.4767 190.149 63.4209 189.871 67.6043C189.536 73.2937 195.281 72.457 195.281 72.2897C195.337 72.1224 195.839 68.1621 195.95 66.0425Z" fill="#936760"/>
<path d="M193.887 70.1141C193.887 70.1141 193.775 70.1699 193.608 70.2257C193.44 70.2814 193.162 70.3372 192.883 70.1699C192.325 69.891 191.879 68.9428 191.879 67.883C191.879 67.381 192.046 66.879 192.269 66.4885C192.492 66.0981 192.771 65.8192 193.05 65.7634C193.329 65.7076 193.552 65.9307 193.608 66.0423C193.664 66.2096 193.608 66.3212 193.664 66.3212C193.664 66.3212 193.775 66.2096 193.775 65.9865C193.775 65.8749 193.719 65.7076 193.552 65.596C193.44 65.4845 193.217 65.4287 192.994 65.4287C192.548 65.4287 192.158 65.8192 191.934 66.2654C191.656 66.7116 191.488 67.2694 191.488 67.8272C191.432 68.9985 191.99 70.0583 192.771 70.3372C193.162 70.4488 193.496 70.393 193.664 70.2257C193.887 70.2257 193.887 70.1141 193.887 70.1141Z" fill="#6F4C47"/>
<path d="M194.5 63.8108L195.95 65.3168C202.198 59.3485 214.302 44.4556 213.632 45.348C213.632 45.348 209.393 43.6189 204.763 44.3998C200.134 45.1807 191.377 47.5234 191.488 52.9339C191.6 58.4002 194.5 63.8108 194.5 63.8108Z" fill="#263238"/>
<path d="M194.612 77.9224C194.612 77.9224 194.5 78.0897 194.165 78.3129C193.831 78.536 193.273 78.7591 192.548 78.8706C191.823 78.9264 190.93 78.8706 190.038 78.3686C189.145 77.8666 188.476 76.9742 188.141 75.8586C187.862 74.743 187.974 73.5717 188.532 72.735C189.034 71.8983 189.759 71.3405 190.428 71.0058C191.098 70.727 191.711 70.6154 192.102 70.6712C192.492 70.6712 192.715 70.7827 192.715 70.7827C192.715 70.8943 191.823 70.6712 190.54 71.2847C189.926 71.6194 189.313 72.1214 188.866 72.9023C188.42 73.6832 188.309 74.6872 188.588 75.6913C188.866 76.6953 189.48 77.4762 190.261 77.9224C191.042 78.3686 191.823 78.4802 192.548 78.4802C193.887 78.4802 194.556 77.8666 194.612 77.9224Z" fill="#4D4D4D"/>
<path d="M186.245 62.5841C186.245 62.5841 186.245 62.4725 186.356 62.2494C186.412 62.0263 186.524 61.7474 186.747 61.3569C187.137 60.6318 187.918 59.6278 189.09 58.6796C190.317 57.7313 191.934 57.0062 193.887 56.3926C195.783 55.7791 197.903 55.2771 200.022 54.3846C202.142 53.4921 204.038 52.3766 205.6 51.261C207.218 50.0896 208.501 48.8625 209.56 47.8027C210.564 46.7429 211.345 45.7389 211.847 45.0696C212.07 44.7349 212.294 44.5118 212.405 44.2887C212.517 44.1213 212.628 44.0098 212.628 44.0098C212.628 44.0098 212.572 44.1213 212.461 44.2887C212.349 44.456 212.182 44.7349 211.959 45.1253C211.457 45.7947 210.732 46.7987 209.728 47.9143C208.724 49.0298 207.385 50.257 205.767 51.4283C204.15 52.5997 202.253 53.7153 200.134 54.6077C198.014 55.5002 195.839 56.0022 193.942 56.6157C192.046 57.1735 190.428 57.8987 189.201 58.8469C187.974 59.7393 187.249 60.6876 186.803 61.4127C186.412 62.1378 186.301 62.5841 186.245 62.5841Z" fill="#455A64"/>
<path d="M187.918 63.4757C187.918 63.4757 187.863 63.0295 188.141 62.2486C188.42 61.4677 189.09 60.4079 190.261 59.5712C191.432 58.6788 193.162 58.121 195.002 57.7305C196.843 57.3401 198.907 56.7823 200.859 55.8898C202.867 54.9416 204.652 53.8818 206.102 52.6547C207.608 51.4833 208.78 50.2004 209.672 49.1406C210.62 48.025 211.234 47.0768 211.68 46.4074C211.847 46.0728 212.015 45.8497 212.182 45.6265C212.294 45.4592 212.349 45.3477 212.349 45.3477C212.349 45.3477 212.294 45.4592 212.238 45.6265C212.126 45.8497 211.959 46.1286 211.792 46.4632C211.345 47.1326 210.788 48.1924 209.839 49.3079C208.947 50.4235 207.72 51.7064 206.27 52.9336C204.819 54.1607 202.979 55.2763 200.971 56.2245C198.963 57.1727 196.899 57.6747 195.058 58.0652C193.217 58.4556 191.544 59.0134 190.373 59.8501C189.201 60.6868 188.532 61.635 188.253 62.4159C187.918 62.9737 187.918 63.4757 187.918 63.4757Z" fill="#455A64"/>
<path d="M158.523 109.494C158.188 109.382 157.798 104.864 157.798 104.864C157.798 104.864 153.28 101.238 152.666 99.7881C152.053 98.3378 152.164 94.8238 152.164 94.8238L159.527 89.8037C159.527 89.8037 163.878 93.7082 165.049 95.27C165.663 96.1067 166.165 98.5052 166.499 100.402C166.778 102.019 166.834 103.693 166.667 105.366L166.555 106.649C166.611 106.593 163.599 111.39 158.523 109.494Z" fill="#936760"/>
<path d="M153.001 100.681C153.001 100.681 152.443 100.179 151.495 99.1749C150.547 98.1152 149.487 97.1669 150.379 96.0513C150.937 95.382 151.551 95.4378 151.551 95.4378C151.551 95.4378 150.993 94.4895 151.495 93.876C151.997 93.2624 152.666 93.3182 152.666 93.3182C152.666 93.3182 151.941 91.9237 152.61 90.9755C153.447 89.8041 154.842 90.083 154.842 90.083C154.842 90.083 151.83 84.0031 151.662 83.6685C150.993 82.4971 151.049 81.27 152.387 81.1027C152.889 81.0469 153.28 81.4373 154.563 83.3338C155.846 85.2303 157.965 88.4654 157.965 88.4654C157.965 88.4654 160.308 90.4177 161.479 91.5333C162.651 92.6488 165.105 95.2147 165.495 95.9956C166.555 98.0036 166.332 101.239 166.332 101.239L157.854 104.864C157.798 104.864 153.559 101.183 153.001 100.681Z" fill="#936760"/>
<path d="M151.83 95.6611C151.83 95.6611 152.22 95.8842 152.834 96.3305C153.168 96.5536 153.503 96.8325 153.893 97.1114C154.116 97.2787 154.284 97.4461 154.507 97.6134C154.674 97.8365 154.897 98.0596 154.897 98.3943C154.953 98.6732 154.842 99.0636 154.563 99.231C154.34 99.3983 154.005 99.4541 153.726 99.3983C153.447 99.3983 153.224 99.2867 153.001 99.231C152.778 99.1752 152.61 99.1194 152.387 99.0636C152.053 98.9521 151.718 98.8405 151.551 98.729C151.328 98.6732 151.272 98.6174 151.272 98.5616C151.272 98.5616 151.718 98.6732 152.443 98.8963C152.778 99.0079 153.224 99.1194 153.726 99.1752C153.949 99.1752 154.228 99.1752 154.395 99.0079C154.563 98.8405 154.674 98.6174 154.618 98.3385C154.563 98.0596 154.451 97.8365 154.284 97.6692C154.116 97.5018 153.893 97.3345 153.726 97.1672C153.336 96.8883 153.001 96.6094 152.666 96.3305C152.164 95.9958 151.774 95.6611 151.83 95.6611Z" fill="#6F4C47"/>
<path d="M159.192 93.876C159.137 93.876 158.858 93.2624 158.802 92.4815C158.69 91.7006 158.858 91.0312 158.913 91.0312C158.969 91.0312 158.913 91.7006 159.025 92.4815C159.081 93.2066 159.248 93.8202 159.192 93.876Z" fill="#6F4C47"/>
<path d="M163.32 94.4895C162.26 93.9875 161.033 93.8759 159.862 94.0432C158.69 94.2106 157.575 94.601 156.515 95.103C155.678 95.4935 154.73 96.107 154.619 96.9995C154.507 97.9477 155.399 98.8402 156.348 99.0075C157.296 99.1749 158.244 98.8402 159.137 98.4497C160.029 98.0593 160.866 97.5573 161.814 97.3342" fill="#936760"/>
<path d="M161.814 97.3342C161.814 97.3342 161.535 97.39 161.145 97.5574C160.698 97.7247 160.085 98.0036 159.36 98.394C158.969 98.5614 158.579 98.7845 158.077 98.8961C157.575 99.0634 157.073 99.1192 156.459 99.0634C155.901 99.0076 155.288 98.6729 154.897 98.1709C154.674 97.9478 154.563 97.6131 154.507 97.2785C154.451 96.9438 154.507 96.6091 154.674 96.3302C155.009 95.7167 155.567 95.382 156.125 95.1031C156.682 94.8242 157.184 94.6011 157.742 94.4338C158.802 94.0433 159.806 93.876 160.643 93.876C161.479 93.876 162.149 94.0433 162.595 94.1549C162.818 94.2106 162.985 94.3222 163.097 94.378C163.208 94.4338 163.264 94.4895 163.264 94.4895C163.264 94.4895 163.041 94.378 162.595 94.2664C162.149 94.1549 161.479 93.9875 160.643 94.0433C159.806 94.0433 158.802 94.2664 157.798 94.6569C157.296 94.8242 156.738 95.1031 156.236 95.3262C155.734 95.6051 155.176 95.9398 154.897 96.4976C154.73 96.7765 154.674 97.0554 154.73 97.3342C154.786 97.6131 154.897 97.892 155.065 98.1151C155.399 98.5614 155.957 98.8403 156.459 98.9518C157.017 99.0076 157.519 98.9518 157.965 98.8403C158.412 98.7287 158.858 98.5056 159.248 98.3383C160.029 98.0036 160.643 97.6689 161.089 97.5574C161.312 97.5016 161.479 97.4458 161.591 97.4458C161.758 97.3342 161.814 97.3342 161.814 97.3342Z" fill="#6F4C47"/>
<path d="M151.941 95.7166C153.336 96.7764 154.73 98.0036 156.013 99.1749C156.403 99.5096 156.794 99.9 157.296 100.012C157.686 100.123 158.356 99.4538 158.69 99.1749L154.117 94.3779" fill="#936760"/>
<path d="M154.117 94.4336C154.117 94.4336 154.284 94.5451 154.507 94.7683C154.786 95.0472 155.065 95.3818 155.511 95.7723C156.348 96.609 157.463 97.8361 158.802 99.1748L158.858 99.2306L158.802 99.2863C158.579 99.4537 158.3 99.7326 158.021 99.8999C157.91 99.9557 157.798 100.067 157.686 100.067C157.631 100.067 157.575 100.123 157.463 100.123C157.408 100.123 157.296 100.123 157.24 100.123C156.961 100.067 156.738 99.8999 156.515 99.7883C156.125 99.4537 155.79 99.119 155.455 98.8401C154.786 98.2265 154.172 97.6688 153.67 97.2225C153.168 96.7763 152.722 96.4416 152.443 96.1627C152.164 95.9396 151.997 95.7723 151.997 95.7723C151.997 95.7723 152.164 95.8838 152.499 96.107C152.834 96.3301 153.224 96.6647 153.782 97.111C154.284 97.5572 154.953 98.115 155.623 98.6728C155.957 98.9517 156.292 99.3421 156.682 99.621C156.85 99.7883 157.073 99.8999 157.296 99.9557C157.519 100.011 157.742 99.8999 157.91 99.7326C158.189 99.5652 158.412 99.3421 158.691 99.119V99.2863C157.408 97.9476 156.292 96.7205 155.455 95.8838C155.065 95.4376 154.73 95.1029 154.507 94.824C154.228 94.5451 154.117 94.4336 154.117 94.4336Z" fill="#6F4C47"/>
<path d="M152.833 92.983C154.34 94.7121 155.901 96.4413 157.407 98.1704C157.742 98.5609 158.077 98.8955 158.467 99.1744C158.913 99.3975 159.415 99.5091 159.862 99.286C160.475 98.9513 160.643 98.1704 160.419 97.5011C160.196 96.8317 159.75 96.3297 159.304 95.8277C157.909 94.2659 156.682 92.5368 155.511 90.8076" fill="#936760"/>
<path d="M155.567 90.6963C155.567 90.6963 155.623 90.7521 155.678 90.8636C155.79 90.9752 155.901 91.1425 156.013 91.3656C156.292 91.8119 156.738 92.3696 157.296 93.0948C157.854 93.8199 158.523 94.6566 159.304 95.6048C159.694 96.051 160.141 96.4973 160.42 97.1666C160.531 97.5013 160.643 97.836 160.587 98.1706C160.531 98.5053 160.42 98.8957 160.141 99.1189C159.862 99.3978 159.471 99.4535 159.081 99.3978C158.746 99.342 158.411 99.1746 158.133 99.0073C157.575 98.5611 157.24 98.0591 156.794 97.6128C156.013 96.7204 155.288 95.8837 154.674 95.2144C154.117 94.545 153.615 93.9872 153.28 93.5968C153.113 93.4294 153.001 93.2621 152.889 93.1505C152.778 93.039 152.778 92.9832 152.778 92.9832C152.778 92.9832 152.834 93.039 152.945 93.1505C153.057 93.2621 153.168 93.4294 153.336 93.5968C153.726 93.9872 154.172 94.545 154.786 95.2144C155.399 95.8837 156.125 96.7204 156.905 97.6128C157.296 98.0591 157.686 98.5611 158.188 98.9515C158.467 99.1189 158.746 99.2862 159.081 99.342C159.416 99.3978 159.75 99.342 159.973 99.1189C160.196 98.8957 160.364 98.5611 160.364 98.2822C160.42 97.9475 160.364 97.6686 160.196 97.3339C159.918 96.7204 159.471 96.2742 159.081 95.8279C158.3 94.9355 157.631 94.043 157.073 93.3179C156.515 92.5928 156.125 91.9792 155.846 91.533C155.734 91.3099 155.623 91.1425 155.567 91.031C155.623 90.8078 155.567 90.6963 155.567 90.6963Z" fill="#6F4C47"/>
<path d="M162.595 102.577C162.595 102.577 162.372 102.689 162.037 102.689C161.702 102.689 161.2 102.633 160.698 102.466C160.196 102.242 159.806 101.964 159.583 101.685C159.36 101.406 159.248 101.238 159.304 101.238C159.36 101.183 159.806 101.908 160.754 102.298C161.758 102.689 162.595 102.521 162.595 102.577Z" fill="#6F4C47"/>
<path d="M221.051 88.0191L219.433 108.267C219.378 108.992 218.764 109.55 218.039 109.494L206.716 108.769C205.991 108.713 205.433 108.044 205.489 107.319L207.329 87.0709C207.385 86.3458 207.999 85.8438 208.724 85.8438L219.768 86.5689C220.549 86.6247 221.107 87.2382 221.051 88.0191Z" fill="#455A64"/>
<path d="M237.227 113.789C237.227 113.789 240.629 136.603 240.462 139.67C240.35 142.738 236.892 149.543 232.207 150.213C227.521 150.882 223.171 146.643 223.003 141.009C222.892 135.431 222.167 117.694 222.167 117.694L225.625 115.797L237.227 113.789Z" fill="#936760"/>
<path d="M217.983 94.9355C217.983 94.9355 221.497 97.1109 222.501 97.6687C223.505 98.2265 223.394 102.41 223.394 102.41L229.25 116.076L222.167 118.641C222.167 118.641 219.657 113.845 218.931 113.231C218.206 112.617 217.258 112.394 217.258 112.394C217.258 112.394 216.868 113.733 215.808 113.119C214.692 112.506 213.521 111.056 213.521 111.056C213.521 111.056 212.573 111.669 212.182 110.944C211.792 110.219 211.234 108.657 211.234 108.657C211.234 108.657 213.298 105.98 214.134 105.98C214.971 105.98 219.322 106.203 219.322 106.203C219.322 106.203 219.099 105.812 217.872 105.366C216.645 104.864 209.449 102.745 209.114 102.633C208.612 102.41 208.055 101.127 209.616 101.015C211.178 100.904 220.047 102.466 220.047 102.466C220.047 102.466 220.549 100.179 220.159 99.6767C219.768 99.1747 216.644 97.1109 217.983 94.9355Z" fill="#936760"/>
<path d="M213.521 110.944C213.521 110.944 213.465 110.553 213.577 109.94C213.632 109.661 213.8 109.27 214.134 108.936C214.469 108.601 214.971 108.545 215.417 108.545C216.366 108.49 217.202 108.545 217.816 108.657C218.429 108.768 218.764 108.824 218.764 108.88C218.764 108.936 217.258 108.713 215.417 108.824C214.971 108.824 214.525 108.88 214.246 109.159C213.967 109.382 213.8 109.717 213.744 109.996C213.577 110.553 213.577 110.944 213.521 110.944Z" fill="#6F4C47"/>
<path d="M214.915 111.39C214.971 111.334 215.529 111.725 216.254 112.004C216.979 112.338 217.649 112.506 217.649 112.561C217.649 112.617 216.923 112.561 216.142 112.227C215.362 111.892 214.86 111.446 214.915 111.39Z" fill="#6F4C47"/>
<path d="M219.657 102.41C219.657 102.355 220.326 102.466 220.884 103.024C221.442 103.582 221.609 104.251 221.553 104.251C221.497 104.307 221.218 103.693 220.716 103.191C220.214 102.689 219.601 102.466 219.657 102.41Z" fill="#6F4C47"/>
<path d="M159.304 224.398C159.248 224.398 162.26 211.569 166.109 195.783C169.958 179.998 173.137 167.225 173.193 167.225C173.249 167.225 170.237 180.054 166.388 195.839C162.539 211.68 159.36 224.454 159.304 224.398Z" fill="#455A64"/>
<path d="M242.749 243.028C242.749 243.083 189.536 243.195 123.884 243.195C58.2329 243.195 5.02002 243.139 5.02002 243.028C5.02002 242.916 58.2329 242.86 123.884 242.86C189.536 242.916 242.749 242.972 242.749 243.028Z" fill="#263238"/>
<path d="M215.083 41.89L216.7 35.9775C215.138 33.4674 214.246 30.5112 214.246 27.3318C214.246 18.2399 221.609 10.8213 230.756 10.8213C239.848 10.8213 247.267 18.1841 247.267 27.3318C247.267 36.4237 239.904 43.8423 230.756 43.8423C226.963 43.8423 223.449 42.5594 220.66 40.384L215.083 41.89Z" fill="#3E3E3E"/>
<path d="M215.083 41.8902C215.083 41.8902 215.194 41.8344 215.473 41.7786C215.752 41.7228 216.087 41.6113 216.533 41.4997C217.481 41.2208 218.876 40.8304 220.661 40.3284L220.605 40.4399C220.605 40.3842 220.605 40.3842 220.605 40.3284H220.661C222.39 41.6671 224.9 43.0615 228.191 43.5635C229.808 43.8424 231.649 43.8424 233.49 43.5078C235.33 43.1731 237.283 42.5037 239.067 41.444C240.852 40.3842 242.526 38.8781 243.92 37.0374C245.259 35.1967 246.319 33.0214 246.765 30.6229C247.211 28.2244 247.155 25.6586 246.542 23.1486C246.263 21.9214 245.705 20.6943 245.092 19.5229C244.422 18.4074 243.697 17.2918 242.749 16.2878C241.856 15.2838 240.852 14.4471 239.793 13.722C238.677 13.0526 237.561 12.3833 236.334 11.9928C233.936 11.1004 231.426 10.8215 229.027 11.0446C226.629 11.2677 224.342 12.0486 222.39 13.2199C220.437 14.3913 218.82 15.8973 217.537 17.5149C215.027 20.8616 214.134 24.7661 214.246 28.0571C214.358 31.348 215.473 34.0254 216.644 35.9219V35.9776C216.087 37.8741 215.696 39.3244 215.417 40.3284C215.25 40.8304 215.138 41.2208 215.083 41.444C215.083 41.7786 215.083 41.8902 215.083 41.8902C215.083 41.8902 215.083 41.7786 215.194 41.4997C215.25 41.2208 215.362 40.8862 215.473 40.3842C215.752 39.3801 216.142 37.8741 216.644 35.9219V35.9776C215.473 34.0812 214.358 31.4038 214.19 28.0571C214.023 24.7661 214.915 20.8058 217.481 17.3476C218.764 15.6742 220.382 14.1124 222.39 12.9411C224.342 11.7697 226.685 10.9888 229.139 10.7099C231.593 10.4868 234.159 10.7657 236.613 11.6581C237.84 12.0486 239.012 12.7179 240.127 13.4431C241.187 14.224 242.247 15.0606 243.139 16.0647C244.088 17.0687 244.813 18.1843 245.482 19.3556C246.096 20.527 246.598 21.7541 246.932 23.037C247.602 25.547 247.657 28.1686 247.155 30.6229C246.653 33.0772 245.594 35.3083 244.255 37.149C242.86 38.9897 241.187 40.4957 239.346 41.6113C237.506 42.6711 235.553 43.3404 233.657 43.6751C231.76 44.0098 229.92 44.0098 228.302 43.7309C225.011 43.2289 222.445 41.7786 220.716 40.4399L220.828 40.3284C220.828 40.3284 220.828 40.3842 220.828 40.4399C218.987 40.9419 217.593 41.2766 216.644 41.5555C216.198 41.6671 215.808 41.7786 215.585 41.8344C215.194 41.8902 215.083 41.8902 215.083 41.8902Z" fill="#263238"/>
<path d="M223.394 27.7225L225.29 25.7703L229.027 29.117L236.334 22.0889L238.119 23.9853L228.748 32.8542L223.394 27.7225Z" fill="#A48346"/>
<rect y="238.175" width="249.888" height="5.02008" fill="#4E4E4E"/>
</g>
<defs>
<clipPath id="clip0_315_38576">
<rect width="250" height="243.195" fill="white"/>
</clipPath>
</defs>
</svg>
