<svg width="250" height="255" viewBox="0 0 250 255" fill="none" xmlns="http://www.w3.org/2000/svg">
<ellipse cx="125" cy="244" rx="117" ry="7" fill="#2E2E2E"/>
<path d="M64.5608 201.017C60.4062 201.017 62.3846 214.48 62.3846 214.48C62.3846 214.48 56.2517 199.961 51.5036 199.433C46.7555 198.905 50.9101 211.576 50.9101 211.576C50.9101 211.576 38.6442 197.783 35.4128 198.641C32.2475 199.433 38.0507 207.155 38.0507 207.155C38.0507 207.155 17.6735 196.925 15.8929 200.819C14.1124 204.713 35.0831 213.622 35.0831 213.622C35.0831 213.622 25.4551 214.15 26.9059 217.12C28.3567 220.089 46.8214 220.551 46.8214 220.551C46.8214 220.551 34.4896 225.567 37.9188 228.866C41.348 232.166 56.4495 227.415 56.4495 227.415C56.4495 227.415 44.909 234.608 47.6128 237.776C50.3166 240.943 74.6505 228.009 74.6505 228.009C74.6505 228.009 68.7154 200.951 64.5608 201.017Z" fill="#DAB269"/>
<path d="M65.8796 211.774L67.0667 216.46C67.4623 218.044 67.924 219.561 68.3196 221.145L69.4407 225.237L65.6159 223.389L59.351 220.485C58.6256 218.572 57.9002 216.658 57.1089 214.744L55.9219 211.84C55.5262 210.85 55.0646 209.926 54.6689 208.936C54.9327 209.926 55.2624 210.916 55.5921 211.972L56.5813 214.942C57.1748 216.658 57.7683 218.308 58.3618 220.023L50.844 216.46L46.7554 214.612C45.9641 213.226 45.1068 211.906 44.2495 210.586L42.9306 208.54C42.4689 207.881 42.0073 207.155 41.5457 206.561C41.8754 207.287 42.2711 208.012 42.6008 208.738L43.7219 210.916C44.3154 211.972 44.9089 213.094 45.5024 214.15L36.0063 209.794C31.0603 207.551 26.1144 205.373 21.1025 203.195C25.9825 205.637 30.8625 207.947 35.7425 210.322L45.3046 214.81C44.0516 215.074 42.7987 215.272 41.5457 215.536C39.963 215.866 38.3803 216.262 36.7976 216.658C38.4462 216.526 40.0289 216.328 41.6776 216.064C43.2603 215.866 44.9089 215.602 46.4916 215.272L50.5143 217.186L58.0981 220.683C56.3835 221.343 54.6689 221.937 52.9543 222.663C50.9759 223.455 49.0635 224.247 47.1511 225.105C49.1954 224.511 51.1738 223.851 53.1521 223.191C55.1305 222.531 57.1089 221.805 59.0213 221.145L65.2202 223.983L69.111 225.699L65.2861 227.481C63.8353 228.207 62.3186 228.867 60.8678 229.592C57.9662 231.044 54.9986 232.43 52.1629 233.948C55.1964 232.694 58.164 231.44 61.1316 230.12C62.6483 229.46 64.0991 228.801 65.5499 228.141L69.9683 226.095L72.6061 227.283C75.112 228.339 77.552 229.46 80.058 230.516C77.618 229.328 75.178 228.141 72.738 226.953L70.1002 225.699L68.7813 221.013C68.3196 219.429 67.924 217.912 67.3964 216.328L66.0115 211.708C65.484 210.19 65.0224 208.606 64.4948 207.089C65.1542 208.672 65.5499 210.19 65.8796 211.774Z" fill="#A48346"/>
<g opacity="0.1">
<path d="M35.9403 205.967C30.5987 203.459 17.4096 197.585 15.9588 200.687C15.4312 201.875 17.0139 203.591 19.5199 205.307C24.2679 204.515 29.9393 204.713 35.9403 205.967Z" fill="black"/>
<path d="M50.9101 211.378C60.6041 216.328 67.7922 223.125 70.9576 229.724C73.1997 228.603 74.5846 227.877 74.5846 227.877C74.5846 227.877 68.6495 200.951 64.5608 200.951C60.4062 200.951 62.3846 214.414 62.3846 214.414C62.3846 214.414 56.2517 199.895 51.5036 199.367C47.0852 198.905 50.4484 209.992 50.9101 211.378Z" fill="black"/>
<path d="M37.6548 206.429C40.8202 207.221 44.0516 208.342 47.2829 209.728C48.4699 210.256 49.6569 210.784 50.778 211.378C49.1953 209.596 38.4462 197.915 35.5446 198.641C32.9067 199.235 36.3359 204.515 37.6548 206.429Z" fill="black"/>
</g>
<path d="M211.224 202.667C211.62 198.575 198.101 199.037 198.101 199.037C198.101 199.037 213.202 194.484 214.258 189.864C215.313 185.245 202.256 187.95 202.256 187.95C202.256 187.95 217.291 177.259 216.829 173.96C216.368 170.726 208.125 175.675 208.125 175.675C208.125 175.675 220.522 156.537 216.895 154.293C213.202 152.05 202.058 171.98 202.058 171.98C202.058 171.98 202.585 162.345 199.486 163.467C196.386 164.589 193.946 182.869 193.946 182.869C193.946 182.869 190.319 170.066 186.692 173.102C183.065 176.203 186.099 191.646 186.099 191.646C186.099 191.646 180.23 179.437 176.8 181.681C173.371 183.991 183.527 209.596 183.527 209.596C183.527 209.596 210.762 206.759 211.224 202.667Z" fill="#DAB269"/>
<path d="M200.343 202.799L195.529 203.459C193.946 203.657 192.364 203.921 190.715 204.185L186.56 204.845L188.803 201.215L192.43 195.342C194.408 194.814 196.386 194.286 198.365 193.758L201.398 192.9C202.387 192.57 203.377 192.306 204.366 191.976C203.311 192.174 202.321 192.372 201.266 192.57L198.167 193.23C196.386 193.626 194.672 194.022 192.957 194.484L197.31 187.422L199.618 183.529C201.068 182.869 202.519 182.209 203.904 181.483L206.08 180.361C206.806 179.965 207.531 179.635 208.257 179.173C207.465 179.437 206.74 179.701 205.948 180.031L203.706 180.955C202.585 181.417 201.464 181.879 200.343 182.407L205.685 173.432C208.454 168.746 211.158 164.061 213.862 159.309C210.894 163.863 208.059 168.482 205.223 173.102L199.75 182.143C199.684 180.889 199.552 179.635 199.42 178.315C199.222 176.665 199.09 175.081 198.826 173.432C198.76 175.081 198.826 176.731 198.826 178.315C198.892 179.965 198.958 181.549 199.09 183.199L196.782 186.96L192.495 194.154C192.034 192.372 191.572 190.59 191.111 188.874C190.583 186.828 189.99 184.849 189.33 182.803C189.66 184.849 190.121 186.96 190.517 189.006C190.913 191.052 191.44 193.098 191.902 195.078L188.407 200.951L186.297 204.581L184.912 200.555C184.384 199.037 183.857 197.453 183.329 195.936C182.208 192.9 181.153 189.798 179.966 186.762C180.823 189.864 181.812 193.032 182.801 196.134C183.263 197.717 183.791 199.235 184.318 200.753L185.835 205.373L184.384 207.88C183.065 210.256 181.68 212.566 180.361 214.942C181.812 212.632 183.263 210.388 184.714 208.078L186.231 205.637L190.979 204.779C192.561 204.515 194.144 204.251 195.727 203.921L200.475 202.997C202.058 202.667 203.64 202.337 205.223 202.007C203.574 202.337 201.926 202.601 200.343 202.799Z" fill="#A48346"/>
<g opacity="0.1">
<path d="M209.378 173.564C212.477 168.548 219.731 156.075 216.83 154.293C215.708 153.634 213.862 155.019 211.818 157.329C212.147 162.147 211.356 167.756 209.378 173.564Z" fill="black"/>
<path d="M202.387 187.884C196.452 196.925 188.869 203.393 181.944 205.835C182.802 208.144 183.395 209.662 183.395 209.662C183.395 209.662 210.829 206.693 211.224 202.601C211.62 198.509 198.101 198.971 198.101 198.971C198.101 198.971 213.203 194.418 214.258 189.798C215.181 185.509 203.838 187.62 202.387 187.884Z" fill="black"/>
<path d="M208.784 175.28C207.663 178.315 206.212 181.417 204.498 184.519C203.838 185.641 203.179 186.762 202.519 187.818C204.432 186.432 217.291 177.061 216.829 174.026C216.434 171.32 210.828 174.158 208.784 175.28Z" fill="black"/>
</g>
<path d="M28.2908 161.157C29.0162 162.873 29.9394 164.523 30.9286 166.172C33.3027 170.198 36.0724 174.026 39.1059 177.589C43.2605 182.407 48.0745 186.762 53.4161 190.26C59.8128 194.484 66.9349 197.519 74.3868 199.169C83.6192 201.149 93.2473 200.951 102.48 199.169C103.799 198.905 105.183 198.641 106.502 198.311C106.898 198.179 106.7 197.585 106.305 197.651C96.8083 199.895 86.9165 200.687 77.2884 199.037C69.6387 197.783 62.3187 195.012 55.7242 190.986C50.1847 187.62 45.1729 183.397 40.8205 178.579C37.5232 174.95 34.5556 171.056 32.0497 166.898C30.8627 164.984 29.8735 162.939 28.8843 161.025C28.8843 161.025 28.8843 160.959 28.8184 160.959C28.7524 160.563 28.1589 160.761 28.2908 161.157Z" fill="#455A64"/>
<path d="M31.7199 167.492C30.0713 166.502 28.9502 165.248 27.961 163.995C26.9718 162.741 26.2464 161.355 25.6529 159.903C25.0594 158.451 24.6637 156.933 24.3999 155.349C24.2021 153.766 24.1361 152.116 24.5978 150.202C26.2464 151.192 27.3675 152.446 28.3567 153.7C29.3459 154.953 30.0713 156.339 30.6648 157.791C31.2583 159.243 31.654 160.761 31.9177 162.345C32.1156 163.929 32.1815 165.578 31.7199 167.492Z" fill="#455A64"/>
<path d="M25.1912 151.72C25.7847 152.842 26.2463 154.03 26.7739 155.217C27.3014 156.405 27.763 157.593 28.2906 158.715C28.7522 159.903 29.2798 161.091 29.7414 162.279C30.203 163.467 30.6647 164.655 31.0603 165.842C30.4668 164.721 30.0052 163.533 29.4776 162.345C28.9501 161.157 28.4884 159.969 27.9609 158.847C27.4993 157.659 26.9717 156.471 26.5101 155.283C26.0485 154.096 25.6528 152.908 25.1912 151.72Z" fill="black"/>
<path opacity="0.1" d="M28.3566 153.7C27.3674 152.446 26.2464 151.192 24.5977 150.202C24.5318 150.466 24.4658 150.664 24.4658 150.928C25.455 151.72 26.2464 152.578 26.9058 153.502C27.895 154.755 28.6204 156.141 29.2139 157.593C29.8074 159.045 30.2031 160.563 30.4669 162.147C30.6647 163.533 30.7307 164.985 30.4669 166.568C30.8626 166.898 31.2582 167.228 31.7858 167.492C32.2474 165.644 32.1815 163.995 31.9836 162.345C31.7858 160.761 31.3242 159.243 30.7307 157.791C30.0712 156.405 29.2799 155.019 28.3566 153.7Z" fill="black"/>
<path d="M35.1491 172.376C34.094 170.726 33.6324 169.142 33.3027 167.624C32.9729 166.04 32.907 164.457 32.9729 162.939C33.0389 161.355 33.3686 159.837 33.8302 158.319C34.3578 156.801 35.0172 155.283 36.2043 153.766C37.2594 155.415 37.721 156.999 38.0507 158.517C38.3805 160.101 38.4464 161.685 38.3805 163.203C38.3145 164.787 37.9848 166.304 37.5232 167.822C37.0616 169.406 36.4021 170.924 35.1491 172.376Z" fill="#455A64"/>
<path d="M36.1383 155.416C36.1383 156.669 36.1383 157.989 36.0724 159.243C36.0064 160.497 35.9405 161.817 35.8745 163.071C35.8086 164.325 35.7427 165.645 35.6108 166.898C35.4789 168.152 35.4129 169.472 35.2151 170.726C35.2151 169.472 35.2151 168.152 35.281 166.898C35.347 165.645 35.4129 164.325 35.4789 163.071C35.5448 161.817 35.6108 160.497 35.7427 159.243C35.8745 157.923 36.0064 156.669 36.1383 155.416Z" fill="black"/>
<path opacity="0.1" d="M38.1168 158.583C37.787 156.999 37.3254 155.416 36.2703 153.832C36.1384 154.03 35.9406 154.228 35.8087 154.426C36.3362 155.547 36.666 156.669 36.9297 157.857C37.2595 159.441 37.3254 161.025 37.2595 162.543C37.1935 164.127 36.8638 165.645 36.4022 167.162C35.9406 168.482 35.413 169.802 34.4897 171.122C34.6876 171.584 34.9514 172.046 35.2811 172.508C36.4681 170.99 37.1276 169.472 37.6551 167.954C38.1168 166.436 38.4465 164.853 38.5124 163.335C38.5124 161.685 38.3805 160.167 38.1168 158.583Z" fill="black"/>
<path d="M35.0171 172.112C33.2366 172.838 31.588 173.036 30.0053 173.102C28.4226 173.102 26.8399 172.97 25.3231 172.574C23.8064 172.244 22.3556 171.65 20.9048 170.924C19.5199 170.132 18.135 169.208 16.8821 167.756C18.6626 167.03 20.3113 166.832 21.894 166.766C23.4766 166.766 25.0593 166.898 26.5761 167.294C28.0928 167.69 29.5436 168.218 30.9945 168.944C32.3793 169.736 33.7642 170.594 35.0171 172.112Z" fill="#455A64"/>
<path d="M18.4648 168.086C19.7178 168.284 20.9708 168.548 22.2237 168.812C23.4767 169.076 24.7297 169.406 25.9826 169.67C27.2356 170 28.4886 170.264 29.6756 170.594C30.9286 170.924 32.1156 171.254 33.3686 171.65C32.1156 171.452 30.8626 171.188 29.6097 170.924C28.3567 170.66 27.1037 170.33 25.8508 170.066C24.5978 169.736 23.3448 169.472 22.1578 169.142C20.9048 168.812 19.7178 168.482 18.4648 168.086Z" fill="black"/>
<path opacity="0.1" d="M21.9599 166.766C20.3772 166.832 18.7285 167.03 16.948 167.756C17.0799 167.954 17.2777 168.152 17.4096 168.284C18.6626 167.954 19.7837 167.822 20.9707 167.822C22.5534 167.822 24.1361 167.954 25.6528 168.35C27.1696 168.746 28.6204 169.274 30.0712 170C31.3241 170.66 32.5112 171.452 33.6322 172.574C34.0939 172.442 34.6214 172.31 35.149 172.046C33.896 170.594 32.5112 169.67 31.1263 168.878C29.6755 168.152 28.2247 167.558 26.708 167.228C25.0593 166.898 23.5426 166.766 21.9599 166.766Z" fill="black"/>
<path d="M42.5349 180.625C41.282 179.173 40.5566 177.721 39.9631 176.203C39.4355 174.686 39.1058 173.168 38.9079 171.65C38.776 170.132 38.776 168.548 39.0398 166.964C39.3036 165.38 39.6993 163.797 40.6885 162.081C41.9414 163.533 42.6668 164.985 43.2603 166.502C43.7879 168.02 44.1176 169.538 44.3155 171.056C44.4474 172.574 44.4474 174.158 44.1836 175.742C43.9198 177.325 43.5241 178.909 42.5349 180.625Z" fill="#455A64"/>
<path d="M40.8203 163.665C41.0181 164.919 41.216 166.172 41.3479 167.426C41.4798 168.68 41.6117 169.934 41.7436 171.254C41.8754 172.508 42.0073 173.762 42.0733 175.082C42.1392 176.335 42.2711 177.655 42.2711 178.909C42.0733 177.655 41.8754 176.401 41.7436 175.148C41.6117 173.894 41.4798 172.64 41.3479 171.32C41.216 170.066 41.0841 168.812 41.0181 167.492C40.9522 166.172 40.8863 164.919 40.8203 163.665Z" fill="black"/>
<path opacity="0.1" d="M43.2603 166.436C42.6667 164.918 41.9413 163.467 40.6884 162.015C40.5565 162.213 40.4246 162.477 40.3586 162.675C41.084 163.731 41.5457 164.787 41.9413 165.842C42.4689 167.36 42.7986 168.878 42.9965 170.396C43.1284 171.914 43.1284 173.498 42.8646 175.082C42.6008 176.467 42.2711 177.853 41.5457 179.305C41.8094 179.701 42.1392 180.163 42.5348 180.559C43.524 178.909 43.9197 177.325 44.1835 175.675C44.4473 174.092 44.4473 172.508 44.3154 170.99C44.1175 169.472 43.7878 167.954 43.2603 166.436Z" fill="black"/>
<path d="M42.3372 180.295C40.6885 181.285 39.1058 181.747 37.5231 182.077C35.9404 182.341 34.3577 182.407 32.841 182.275C31.3242 182.143 29.7415 181.879 28.2248 181.351C26.708 180.823 25.1913 180.097 23.7405 178.843C25.3891 177.853 26.9718 177.391 28.5545 177.061C30.1372 176.797 31.7199 176.731 33.2367 176.863C34.7534 176.995 36.3361 177.325 37.8529 177.787C39.3696 178.381 40.8863 179.041 42.3372 180.295Z" fill="#455A64"/>
<path d="M25.3892 178.975C26.6421 178.975 27.961 179.041 29.214 179.107C30.467 179.173 31.7859 179.305 33.0389 179.371C34.2918 179.503 35.6107 179.569 36.8637 179.701C38.1167 179.833 39.3696 179.965 40.6886 180.163C39.4356 180.163 38.1167 180.097 36.8637 180.031C35.6107 179.965 34.2918 179.833 33.0389 179.767C31.7859 179.635 30.467 179.569 29.214 179.437C27.8951 179.305 26.6421 179.173 25.3892 178.975Z" fill="black"/>
<path opacity="0.1" d="M28.6204 177.127C27.0377 177.457 25.455 177.853 23.8064 178.909C24.0042 179.041 24.2021 179.239 24.3999 179.371C25.521 178.843 26.708 178.579 27.8291 178.315C29.4118 178.051 30.9945 177.985 32.5112 178.117C34.028 178.249 35.6107 178.579 37.1274 179.041C38.4463 179.503 39.7652 180.097 41.0182 181.021C41.4798 180.823 41.9415 180.559 42.4031 180.295C40.9523 179.041 39.4355 178.381 37.9188 177.787C36.402 177.259 34.8853 176.995 33.3026 176.863C31.7199 176.731 30.1372 176.797 28.6204 177.127Z" fill="black"/>
<path d="M51.3718 188.28C49.855 187.092 48.9318 185.707 48.1404 184.321C47.3491 182.935 46.7556 181.483 46.3599 179.965C45.9642 178.447 45.7664 176.929 45.7004 175.28C45.7004 173.696 45.8323 172.046 46.5577 170.198C48.0745 171.386 48.9977 172.772 49.7891 174.158C50.5804 175.543 51.1739 176.995 51.5696 178.513C51.9653 180.031 52.1631 181.549 52.2291 183.199C52.2291 184.849 52.0312 186.498 51.3718 188.28Z" fill="#455A64"/>
<path d="M47.0193 171.782C47.415 172.97 47.8106 174.224 48.1404 175.412C48.4701 176.665 48.7998 177.853 49.1955 179.107C49.5252 180.361 49.8549 181.549 50.1187 182.803C50.3825 184.057 50.7122 185.311 50.976 186.564C50.5804 185.377 50.1847 184.123 49.8549 182.935C49.5252 181.681 49.1955 180.493 48.7998 179.239C48.4701 177.985 48.1404 176.797 47.8766 175.544C47.5468 174.29 47.2171 173.036 47.0193 171.782Z" fill="black"/>
<path opacity="0.1" d="M49.855 174.224C49.0636 172.838 48.0744 171.452 46.6236 170.264C46.5577 170.528 46.4258 170.726 46.3599 170.99C47.2172 171.914 47.8766 172.904 48.4701 173.894C49.2615 175.28 49.855 176.731 50.2507 178.249C50.6463 179.767 50.8442 181.285 50.9101 182.935C50.9101 184.321 50.7782 185.773 50.3166 187.29C50.6463 187.686 51.042 188.016 51.4377 188.346C52.1631 186.565 52.295 184.915 52.295 183.265C52.295 181.681 52.0312 180.097 51.6355 178.579C51.1739 177.061 50.5804 175.61 49.855 174.224Z" fill="black"/>
<path d="M51.1738 188.016C49.723 189.27 48.2063 189.996 46.6895 190.524C45.1728 191.052 43.656 191.382 42.0733 191.514C40.5566 191.646 38.9739 191.58 37.3912 191.316C35.8085 191.052 34.2258 190.59 32.5771 189.6C34.028 188.346 35.5447 187.62 37.0615 187.092C38.5782 186.564 40.095 186.234 41.6776 186.102C43.1944 185.971 44.7771 186.036 46.3598 186.3C47.9425 186.564 49.5252 187.026 51.1738 188.016Z" fill="#455A64"/>
<path d="M34.1599 189.402C35.4129 189.204 36.6658 189.072 37.9848 188.94C39.2377 188.808 40.4907 188.676 41.8096 188.61C43.0626 188.544 44.3815 188.412 45.6345 188.346C46.8874 188.28 48.2063 188.214 49.4593 188.214C48.2063 188.412 46.9534 188.544 45.6345 188.676C44.3815 188.808 43.1285 188.94 41.8096 189.006C40.5566 189.072 39.2377 189.204 37.9848 189.27C36.7318 189.336 35.4129 189.402 34.1599 189.402Z" fill="black"/>
<path opacity="0.1" d="M37.0615 187.026C35.5447 187.554 34.028 188.28 32.5771 189.534C32.775 189.666 32.9728 189.798 33.2366 189.93C34.2917 189.204 35.3469 188.742 36.4679 188.346C37.9847 187.818 39.5014 187.488 41.0841 187.356C42.6009 187.224 44.1836 187.29 45.7663 187.554C47.1511 187.818 48.536 188.148 49.9209 188.94C50.3165 188.676 50.7781 188.346 51.1738 188.016C49.5252 187.026 47.9425 186.564 46.3598 186.3C44.7771 186.036 43.1944 185.971 41.6776 186.102C40.095 186.234 38.5782 186.498 37.0615 187.026Z" fill="black"/>
<path d="M62.3846 194.616C60.67 193.692 59.483 192.57 58.4279 191.316C57.3727 190.062 56.5154 188.742 55.856 187.356C55.1965 185.971 54.669 184.453 54.3392 182.935C54.0095 181.351 53.8776 179.701 54.2073 177.787C55.9219 178.711 57.109 179.833 58.1641 181.087C59.2192 182.341 60.0765 183.661 60.736 185.047C61.3954 186.433 61.923 187.95 62.2527 189.468C62.5165 191.118 62.7143 192.768 62.3846 194.616Z" fill="#455A64"/>
<path d="M54.9329 179.305C55.5923 180.427 56.1858 181.549 56.7134 182.671C57.3069 183.793 57.8345 184.981 58.428 186.103C58.9555 187.224 59.5491 188.412 60.0766 189.534C60.6042 190.722 61.1318 191.844 61.5934 193.032C60.9339 191.91 60.3404 190.788 59.8128 189.666C59.2193 188.544 58.6918 187.356 58.0983 186.235C57.5707 185.113 56.9772 183.925 56.4496 182.803C55.922 181.615 55.3945 180.493 54.9329 179.305Z" fill="black"/>
<path opacity="0.1" d="M58.1641 181.087C57.1089 179.899 55.9219 178.711 54.2073 177.787C54.1414 178.051 54.1414 178.249 54.0754 178.513C55.1306 179.239 55.9219 180.097 56.7133 180.955C57.7684 182.209 58.6257 183.529 59.2851 184.915C59.9446 186.301 60.4722 187.818 60.8019 189.336C61.0657 190.722 61.1976 192.108 61.0657 193.692C61.4614 193.956 61.923 194.286 62.3846 194.55C62.7143 192.636 62.5824 190.986 62.2527 189.402C61.923 187.818 61.3954 186.367 60.7359 184.981C60.0765 183.661 59.2192 182.341 58.1641 181.087Z" fill="black"/>
<path d="M62.1208 194.418C60.9338 195.936 59.6149 196.926 58.23 197.717C56.8452 198.509 55.3944 199.103 53.8776 199.565C52.3609 199.961 50.8441 200.225 49.2614 200.291C47.6787 200.291 46.0301 200.159 44.1836 199.499C45.3706 197.981 46.6895 196.992 48.0744 196.2C49.4592 195.408 50.9101 194.814 52.4268 194.352C53.9436 193.956 55.4603 193.692 57.043 193.626C58.6916 193.626 60.3403 193.758 62.1208 194.418Z" fill="#455A64"/>
<path d="M45.7004 199.037C46.8875 198.641 48.1404 198.245 49.3275 197.849C50.5145 197.454 51.7674 197.124 53.0204 196.794C54.2734 196.464 55.4604 196.134 56.7134 195.804C57.9663 195.474 59.1534 195.21 60.4063 194.88C59.2193 195.276 57.9663 195.672 56.7793 196.068C55.5923 196.464 54.3393 196.794 53.0864 197.124C51.8334 197.454 50.6464 197.784 49.3934 198.113C48.2064 198.509 46.9534 198.773 45.7004 199.037Z" fill="black"/>
<path opacity="0.1" d="M48.0744 196.2C46.6895 197.058 45.3706 197.981 44.1836 199.499C44.4474 199.565 44.6452 199.631 44.909 199.763C45.8322 198.905 46.7555 198.179 47.7447 197.651C49.1295 196.86 50.5803 196.266 52.0971 195.804C53.6138 195.408 55.1306 195.144 56.7133 195.078C58.0981 195.078 59.5489 195.144 61.0657 195.606C61.4614 195.276 61.7911 194.88 62.1208 194.418C60.3403 193.758 58.6916 193.626 57.043 193.626C55.4603 193.692 53.8776 193.89 52.4268 194.352C50.9101 194.748 49.4592 195.342 48.0744 196.2Z" fill="black"/>
<path d="M72.7381 198.509C70.9576 197.717 69.7046 196.661 68.5835 195.54C67.4625 194.418 66.5392 193.164 65.7479 191.778C64.9565 190.458 64.363 189.006 63.9014 187.422C63.5057 185.838 63.176 184.255 63.3738 182.341C65.1544 183.133 66.4073 184.189 67.5284 185.311C68.6495 186.432 69.5727 187.686 70.3641 189.072C71.1554 190.392 71.7489 191.844 72.2106 193.428C72.6722 195.012 72.936 196.595 72.7381 198.509Z" fill="#455A64"/>
<path d="M64.2312 183.793C64.9566 184.849 65.6161 185.905 66.2755 187.026C66.935 188.082 67.5944 189.204 68.2539 190.326C68.9133 191.448 69.5069 192.57 70.1663 193.626C70.7598 194.748 71.4193 195.87 71.9468 196.991C71.2214 195.936 70.562 194.88 69.9025 193.758C69.2431 192.702 68.5836 191.58 67.9242 190.458C67.2647 189.336 66.6712 188.214 66.0117 187.158C65.3523 186.037 64.7588 184.915 64.2312 183.793Z" fill="black"/>
<path opacity="0.1" d="M67.5943 185.377C66.4732 184.255 65.1543 183.199 63.4397 182.407C63.4397 182.671 63.3738 182.869 63.3738 183.133C64.4289 183.793 65.3522 184.585 66.1435 185.377C67.2646 186.498 68.1878 187.752 68.9792 189.138C69.7705 190.458 70.364 191.91 70.8256 193.494C71.1554 194.814 71.4851 196.266 71.4192 197.849C71.8808 198.113 72.3424 198.377 72.804 198.575C73.0018 196.662 72.7381 195.012 72.2764 193.494C71.8148 191.976 71.2213 190.524 70.43 189.138C69.6386 187.752 68.7154 186.498 67.5943 185.377Z" fill="black"/>
<path d="M72.4744 198.311C71.4192 199.895 70.1663 200.951 68.8473 201.875C67.5284 202.799 66.1436 203.459 64.6928 204.053C63.242 204.581 61.7252 204.977 60.1425 205.109C58.5598 205.241 56.9112 205.241 55.0647 204.713C56.1198 203.129 57.3728 202.073 58.6917 201.083C60.0106 200.159 61.3955 199.499 62.8463 198.971C64.2971 198.443 65.8138 198.113 67.3965 197.915C68.9792 197.783 70.6279 197.783 72.4744 198.311Z" fill="#455A64"/>
<path d="M56.5154 204.185C57.7024 203.657 58.8894 203.195 60.0764 202.733C61.2635 202.271 62.4505 201.809 63.6375 201.347C64.8245 200.951 66.0116 200.489 67.2645 200.093C68.4515 199.697 69.7045 199.301 70.8915 198.905C69.7045 199.433 68.5175 199.895 67.3305 200.357C66.1434 200.819 64.9564 201.281 63.7694 201.743C62.5824 202.139 61.3954 202.601 60.1424 202.997C58.9554 203.393 57.7024 203.789 56.5154 204.185Z" fill="black"/>
<path opacity="0.1" d="M58.6258 201.149C57.3069 202.073 56.0539 203.129 54.9988 204.779C55.2626 204.845 55.4604 204.911 55.7242 204.977C56.5815 204.053 57.4388 203.261 58.428 202.601C59.7469 201.677 61.1317 201.017 62.5825 200.489C64.0333 199.961 65.5501 199.631 67.1328 199.433C68.5176 199.301 69.9684 199.301 71.5511 199.631C71.8809 199.235 72.2106 198.839 72.5403 198.377C70.6938 197.849 69.0452 197.849 67.4625 197.981C65.8798 198.113 64.3631 198.509 62.9123 199.037C61.3296 199.499 59.9447 200.225 58.6258 201.149Z" fill="black"/>
<path d="M86.059 200.225C84.1465 199.829 82.6957 199.103 81.3768 198.245C80.0579 197.388 78.8709 196.332 77.8158 195.21C76.7606 194.088 75.8374 192.768 75.112 191.382C74.3866 189.93 73.7271 188.412 73.5293 186.499C75.4417 186.894 76.8925 187.62 78.2774 188.478C79.5963 189.336 80.7833 190.392 81.8384 191.514C82.8936 192.636 83.8168 193.956 84.5422 195.342C85.2017 196.794 85.8611 198.311 86.059 200.225Z" fill="#455A64"/>
<path d="M74.5186 187.686C75.4418 188.544 76.2991 189.468 77.2223 190.392C78.0796 191.316 78.9369 192.24 79.8602 193.164C80.7174 194.088 81.5747 195.078 82.432 196.002C83.2893 196.992 84.0807 197.915 84.872 198.905C83.9488 198.047 83.0915 197.124 82.1682 196.2C81.311 195.276 80.4537 194.352 79.5304 193.428C78.6731 192.504 77.8158 191.514 76.9585 190.59C76.1672 189.666 75.3758 188.676 74.5186 187.686Z" fill="black"/>
<path opacity="0.1" d="M78.1455 188.478C76.7607 187.62 75.3099 186.829 73.3975 186.499C73.3975 186.763 73.4634 186.96 73.5294 187.224C74.7164 187.62 75.7715 188.214 76.7607 188.808C78.0796 189.666 79.2666 190.722 80.3218 191.844C81.3769 192.966 82.3001 194.286 83.0255 195.672C83.685 196.926 84.2126 198.245 84.4763 199.829C84.938 200.027 85.4655 200.159 85.9931 200.225C85.7952 198.311 85.1358 196.794 84.4104 195.342C83.619 193.956 82.7617 192.636 81.7066 191.514C80.7174 190.392 79.5304 189.402 78.1455 188.478Z" fill="black"/>
<path d="M85.7292 200.093C85.0038 201.875 84.0147 203.195 82.9595 204.383C81.8385 205.571 80.6514 206.561 79.3325 207.353C78.0136 208.211 76.6287 208.87 75.112 209.398C73.5952 209.86 71.9466 210.256 70.0342 210.124C70.7596 208.343 71.7488 207.023 72.8039 205.835C73.925 204.647 75.112 203.657 76.4309 202.865C77.7498 202.007 79.1347 201.347 80.6514 200.885C82.2341 200.357 83.8168 199.961 85.7292 200.093Z" fill="#455A64"/>
<path d="M71.353 209.266C72.4082 208.541 73.4633 207.815 74.5184 207.089C75.5736 206.363 76.6287 205.703 77.7498 204.977C78.8049 204.317 79.926 203.591 80.9811 202.931C82.1022 202.271 83.1573 201.611 84.2784 201.017C83.2233 201.743 82.1681 202.469 81.113 203.195C80.0579 203.921 79.0027 204.581 77.8816 205.307C76.8265 205.967 75.7054 206.693 74.6503 207.287C73.5952 208.013 72.4741 208.606 71.353 209.266Z" fill="black"/>
<path opacity="0.1" d="M72.8039 205.835C71.7488 207.023 70.6936 208.342 70.0342 210.124C70.298 210.124 70.5617 210.124 70.7596 210.124C71.3531 209.002 72.0785 208.078 72.8698 207.221C73.9909 206.033 75.1779 205.043 76.4969 204.251C77.8158 203.393 79.2006 202.733 80.7174 202.271C82.0363 201.875 83.4212 201.545 85.0698 201.545C85.3336 201.083 85.5314 200.621 85.7292 200.093C83.8168 199.961 82.1682 200.357 80.6514 200.819C79.1347 201.347 77.6839 202.007 76.4309 202.799C75.112 203.657 73.925 204.647 72.8039 205.835Z" fill="black"/>
<path d="M238.064 203.987C236.745 205.307 235.294 206.561 233.843 207.749C230.216 210.718 226.26 213.292 222.171 215.536C216.566 218.572 210.564 220.947 204.3 222.333C196.848 224.049 189.066 224.379 181.548 223.257C172.184 221.871 163.281 218.242 155.236 213.292C154.049 212.566 152.928 211.84 151.807 211.048C151.477 210.784 151.873 210.322 152.203 210.52C160.248 215.998 169.283 220.155 178.845 222.069C186.428 223.587 194.276 223.587 201.86 222.135C208.256 220.947 214.389 218.77 220.127 215.8C224.479 213.622 228.634 210.982 232.458 207.947C234.239 206.561 235.888 205.043 237.47 203.591L237.536 203.525C237.8 203.261 238.328 203.657 238.064 203.987Z" fill="#455A64"/>
<path d="M232.59 208.672C234.503 208.342 235.954 207.551 237.338 206.693C238.657 205.835 239.91 204.845 240.965 203.723C242.021 202.601 242.944 201.347 243.735 199.895C244.461 198.443 245.12 196.926 245.384 195.012C243.471 195.342 242.021 196.134 240.636 196.926C239.317 197.783 238.064 198.773 237.009 199.961C235.954 201.083 235.03 202.337 234.239 203.789C233.514 205.241 232.854 206.759 232.59 208.672Z" fill="#455A64"/>
<path d="M244.263 196.266C243.339 197.124 242.416 198.047 241.559 198.971C240.636 199.895 239.778 200.819 238.921 201.743C238.064 202.667 237.206 203.591 236.349 204.581C235.492 205.505 234.635 206.495 233.843 207.485C234.767 206.627 235.69 205.703 236.547 204.779C237.47 203.855 238.328 202.931 239.185 202.007C240.042 201.083 240.899 200.159 241.757 199.169C242.614 198.179 243.471 197.256 244.263 196.266Z" fill="black"/>
<path opacity="0.1" d="M240.636 197.057C242.021 196.2 243.471 195.474 245.384 195.144C245.384 195.408 245.318 195.606 245.252 195.87C244.065 196.266 243.01 196.794 242.021 197.387C240.702 198.245 239.449 199.235 238.394 200.423C237.338 201.545 236.415 202.799 235.624 204.251C234.964 205.505 234.371 206.825 234.107 208.342C233.645 208.474 233.118 208.672 232.59 208.738C232.854 206.825 233.448 205.307 234.239 203.855C235.03 202.469 235.954 201.215 237.009 200.027C238.064 198.905 239.251 197.915 240.636 197.057Z" fill="black"/>
<path d="M227.644 212.104C229.161 210.982 230.216 209.662 231.074 208.276C231.931 206.891 232.524 205.505 233.052 203.987C233.514 202.535 233.777 200.951 233.909 199.367C233.975 197.783 233.909 196.134 233.25 194.286C231.733 195.408 230.678 196.728 229.821 198.113C228.963 199.499 228.37 200.885 227.908 202.403C227.447 203.921 227.183 205.439 227.051 207.023C226.985 208.606 227.051 210.256 227.644 212.104Z" fill="#455A64"/>
<path d="M232.722 195.804C232.261 196.991 231.865 198.179 231.469 199.433C231.073 200.621 230.678 201.875 230.282 203.063C229.886 204.317 229.557 205.505 229.161 206.759C228.831 208.012 228.502 209.2 228.172 210.454C228.633 209.266 229.029 208.078 229.425 206.825C229.821 205.637 230.216 204.383 230.612 203.195C231.008 201.941 231.337 200.753 231.733 199.499C232.063 198.311 232.458 197.057 232.722 195.804Z" fill="black"/>
<path opacity="0.1" d="M229.821 198.113C230.678 196.728 231.667 195.408 233.25 194.286C233.316 194.55 233.382 194.748 233.448 195.012C232.524 195.87 231.865 196.86 231.205 197.783C230.348 199.169 229.755 200.555 229.293 202.073C228.831 203.591 228.568 205.109 228.436 206.693C228.37 208.078 228.436 209.53 228.831 211.048C228.436 211.378 228.106 211.774 227.644 212.104C227.051 210.256 226.919 208.606 226.985 207.023C227.051 205.439 227.381 203.855 227.842 202.403C228.304 200.885 228.963 199.499 229.821 198.113Z" fill="black"/>
<path d="M227.908 211.84C229.293 213.16 230.81 213.886 232.261 214.546C233.777 215.14 235.294 215.536 236.811 215.734C238.328 215.932 239.91 215.932 241.493 215.734C243.076 215.536 244.724 215.14 246.373 214.216C244.988 212.896 243.471 212.104 242.021 211.51C240.504 210.916 238.987 210.52 237.47 210.322C235.954 210.124 234.371 210.124 232.788 210.322C231.205 210.586 229.557 210.916 227.908 211.84Z" fill="#455A64"/>
<path d="M244.79 213.952C243.537 213.688 242.284 213.49 241.031 213.292C239.778 213.094 238.525 212.962 237.272 212.764C236.02 212.632 234.767 212.434 233.448 212.302C232.195 212.17 230.942 212.038 229.623 211.972C230.876 212.236 232.129 212.434 233.382 212.632C234.635 212.83 235.888 212.962 237.141 213.16C238.394 213.292 239.647 213.49 240.965 213.622C242.218 213.754 243.537 213.886 244.79 213.952Z" fill="black"/>
<path opacity="0.1" d="M242.021 211.51C243.537 212.104 244.988 212.896 246.373 214.216C246.175 214.348 245.911 214.48 245.714 214.546C244.658 213.82 243.603 213.292 242.548 212.83C241.031 212.236 239.515 211.84 237.998 211.642C236.481 211.444 234.898 211.444 233.316 211.642C231.931 211.84 230.546 212.17 229.095 212.83C228.7 212.566 228.304 212.236 227.842 211.84C229.557 210.916 231.14 210.52 232.722 210.322C234.305 210.124 235.888 210.124 237.404 210.322C238.987 210.52 240.504 210.916 242.021 211.51Z" fill="black"/>
<path d="M217.885 217.186C219.599 216.262 220.786 215.14 221.841 213.952C222.896 212.764 223.754 211.444 224.413 210.058C225.139 208.672 225.6 207.221 225.996 205.637C226.326 204.053 226.457 202.403 226.128 200.489C224.413 201.347 223.226 202.535 222.171 203.723C221.116 204.911 220.259 206.231 219.599 207.616C218.94 209.002 218.412 210.52 218.082 212.038C217.753 213.622 217.555 215.272 217.885 217.186Z" fill="#455A64"/>
<path d="M225.402 201.875C224.743 202.997 224.149 204.119 223.556 205.241C222.962 206.363 222.369 207.484 221.841 208.672C221.314 209.794 220.72 210.982 220.193 212.104C219.665 213.292 219.137 214.414 218.61 215.602C219.269 214.48 219.863 213.358 220.456 212.236C221.05 211.114 221.643 209.992 222.171 208.804C222.698 207.682 223.292 206.495 223.82 205.373C224.413 204.251 224.941 203.063 225.402 201.875Z" fill="black"/>
<path opacity="0.1" d="M222.171 203.657C223.226 202.469 224.413 201.281 226.128 200.423C226.194 200.687 226.194 200.885 226.26 201.149C225.204 201.875 224.413 202.733 223.622 203.591C222.567 204.779 221.709 206.099 221.05 207.485C220.39 208.87 219.863 210.388 219.533 211.906C219.269 213.292 219.072 214.678 219.269 216.262C218.874 216.526 218.412 216.856 217.95 217.12C217.621 215.206 217.819 213.556 218.148 211.972C218.478 210.388 219.006 208.936 219.665 207.551C220.259 206.231 221.116 204.911 222.171 203.657Z" fill="black"/>
<path d="M218.148 216.922C219.335 218.439 220.654 219.429 222.039 220.287C223.424 221.079 224.875 221.739 226.326 222.135C227.842 222.597 229.359 222.861 230.942 222.861C232.525 222.861 234.173 222.795 236.02 222.135C234.833 220.617 233.514 219.627 232.129 218.769C230.744 217.978 229.293 217.318 227.842 216.922C226.326 216.46 224.809 216.262 223.226 216.196C221.578 216.196 219.929 216.328 218.148 216.922Z" fill="#455A64"/>
<path d="M234.503 221.739C233.316 221.277 232.063 220.881 230.876 220.551C229.689 220.155 228.436 219.825 227.249 219.429C225.996 219.099 224.809 218.703 223.556 218.373C222.303 218.044 221.116 217.714 219.863 217.45C221.05 217.912 222.303 218.307 223.49 218.637C224.677 219.033 225.93 219.363 227.117 219.759C228.37 220.089 229.557 220.485 230.81 220.815C231.997 221.145 233.25 221.409 234.503 221.739Z" fill="black"/>
<path opacity="0.1" d="M232.129 218.835C233.514 219.693 234.833 220.683 236.02 222.201C235.756 222.267 235.558 222.333 235.294 222.399C234.371 221.475 233.448 220.815 232.459 220.221C231.074 219.429 229.623 218.769 228.172 218.373C226.655 217.912 225.139 217.714 223.556 217.648C222.171 217.648 220.72 217.714 219.204 218.175C218.874 217.846 218.478 217.45 218.148 216.988C219.929 216.328 221.578 216.196 223.226 216.262C224.809 216.328 226.392 216.592 227.842 216.988C229.359 217.384 230.744 217.978 232.129 218.835Z" fill="black"/>
<path d="M206.872 221.211C208.718 220.617 210.037 219.693 211.29 218.638C212.543 217.582 213.598 216.46 214.455 215.206C215.379 213.952 216.104 212.566 216.697 211.048C217.225 209.53 217.687 207.947 217.687 206.033C215.84 206.627 214.521 207.551 213.268 208.606C212.015 209.662 210.96 210.784 210.103 212.038C209.18 213.292 208.454 214.678 207.861 216.196C207.333 217.714 206.872 219.297 206.872 221.211Z" fill="#455A64"/>
<path d="M216.829 207.353C216.038 208.342 215.247 209.332 214.455 210.388C213.664 211.378 212.939 212.434 212.213 213.49C211.488 214.546 210.762 215.602 210.037 216.658C209.312 217.714 208.586 218.769 207.927 219.891C208.718 218.901 209.509 217.912 210.301 216.856C211.092 215.866 211.818 214.81 212.543 213.754C213.268 212.698 213.994 211.642 214.719 210.586C215.445 209.464 216.104 208.408 216.829 207.353Z" fill="black"/>
<path opacity="0.1" d="M213.268 208.606C214.521 207.617 215.906 206.627 217.687 206.033C217.687 206.297 217.687 206.561 217.687 206.759C216.566 207.287 215.576 208.013 214.719 208.738C213.466 209.794 212.411 210.916 211.554 212.17C210.63 213.424 209.905 214.81 209.312 216.328C208.85 217.648 208.454 219.033 208.322 220.617C207.861 220.815 207.399 221.013 206.872 221.211C206.872 219.297 207.267 217.714 207.861 216.196C208.454 214.678 209.18 213.292 210.103 212.038C211.026 210.784 212.081 209.662 213.268 208.606Z" fill="black"/>
<path d="M207.201 221.079C208.124 222.795 209.311 223.917 210.498 224.973C211.751 226.029 213.07 226.821 214.455 227.481C215.84 228.141 217.357 228.669 218.939 228.933C220.522 229.196 222.171 229.394 224.083 228.999C223.16 227.283 222.039 226.095 220.786 225.105C219.533 224.049 218.214 223.257 216.829 222.597C215.444 221.937 213.928 221.409 212.345 221.145C210.696 220.881 209.114 220.683 207.201 221.079Z" fill="#455A64"/>
<path d="M222.567 228.339C221.445 227.745 220.324 227.151 219.203 226.557C218.082 225.963 216.895 225.435 215.774 224.841C214.587 224.313 213.466 223.785 212.279 223.257C211.092 222.729 209.971 222.201 208.784 221.739C209.905 222.333 211.026 222.927 212.147 223.521C213.268 224.115 214.455 224.643 215.576 225.171C216.763 225.699 217.884 226.227 219.071 226.755C220.258 227.415 221.38 227.877 222.567 228.339Z" fill="black"/>
<path opacity="0.1" d="M220.72 225.105C221.973 226.161 223.094 227.349 224.017 228.999C223.754 229.065 223.556 229.065 223.292 229.131C222.567 228.141 221.709 227.283 220.852 226.557C219.599 225.501 218.28 224.709 216.895 224.049C215.51 223.389 213.994 222.861 212.411 222.597C211.026 222.333 209.641 222.201 207.993 222.399C207.663 222.003 207.399 221.541 207.135 221.079C209.048 220.749 210.696 220.881 212.279 221.145C213.862 221.475 215.313 221.937 216.763 222.597C218.148 223.257 219.533 224.115 220.72 225.105Z" fill="black"/>
<path d="M194.342 223.323C196.254 223.059 197.771 222.399 199.156 221.673C200.541 220.881 201.794 219.957 202.915 218.901C204.036 217.846 205.025 216.658 205.882 215.272C206.74 213.886 207.465 212.434 207.795 210.52C205.882 210.784 204.366 211.444 202.981 212.17C201.596 212.962 200.343 213.886 199.222 214.942C198.101 215.998 197.112 217.186 196.254 218.572C195.463 219.891 194.672 221.409 194.342 223.323Z" fill="#455A64"/>
<path d="M206.74 211.576C205.75 212.368 204.827 213.226 203.838 214.084C202.915 214.942 201.991 215.8 201.002 216.658C200.079 217.516 199.156 218.44 198.233 219.297C197.309 220.221 196.452 221.079 195.529 222.069C196.518 221.277 197.441 220.419 198.43 219.561C199.354 218.704 200.277 217.846 201.266 216.988C202.189 216.13 203.113 215.206 204.036 214.348C204.959 213.424 205.882 212.5 206.74 211.576Z" fill="black"/>
<path opacity="0.1" d="M203.047 212.104C204.497 211.312 206.014 210.652 207.861 210.454C207.795 210.718 207.795 210.916 207.729 211.18C206.476 211.51 205.421 211.972 204.431 212.566C203.047 213.358 201.794 214.282 200.673 215.338C199.551 216.394 198.562 217.582 197.705 218.967C196.98 220.155 196.32 221.409 195.924 222.993C195.463 223.125 194.935 223.257 194.408 223.323C194.737 221.409 195.529 219.957 196.32 218.571C197.177 217.186 198.167 215.998 199.288 214.942C200.409 213.82 201.662 212.896 203.047 212.104Z" fill="black"/>
<path d="M194.672 223.191C195.265 225.039 196.188 226.425 197.178 227.679C198.167 228.932 199.354 229.988 200.607 230.912C201.86 231.836 203.245 232.628 204.695 233.222C206.212 233.816 207.795 234.278 209.707 234.278C209.114 232.43 208.19 231.044 207.201 229.79C206.212 228.537 205.025 227.481 203.772 226.557C202.519 225.633 201.134 224.841 199.683 224.247C198.167 223.653 196.584 223.191 194.672 223.191Z" fill="#455A64"/>
<path d="M208.388 233.288C207.399 232.496 206.41 231.704 205.421 230.912C204.431 230.12 203.376 229.394 202.387 228.602C201.332 227.877 200.343 227.085 199.288 226.359C198.233 225.633 197.177 224.907 196.122 224.181C197.111 224.973 198.101 225.765 199.09 226.557C200.079 227.349 201.134 228.075 202.123 228.866C203.179 229.592 204.168 230.384 205.223 231.11C206.278 231.902 207.333 232.628 208.388 233.288Z" fill="black"/>
<path opacity="0.1" d="M207.201 229.79C208.19 231.044 209.114 232.43 209.707 234.278C209.443 234.278 209.18 234.278 208.982 234.278C208.454 233.156 207.795 232.166 207.069 231.242C206.08 229.988 204.893 228.932 203.64 228.009C202.387 227.085 201.002 226.293 199.552 225.699C198.233 225.171 196.848 224.775 195.265 224.643C195.067 224.181 194.869 223.719 194.672 223.191C196.584 223.191 198.167 223.653 199.683 224.247C201.2 224.841 202.519 225.633 203.772 226.557C205.025 227.481 206.146 228.537 207.201 229.79Z" fill="black"/>
<path d="M183.263 223.257C185.175 223.125 186.758 222.597 188.209 221.937C189.66 221.277 190.979 220.419 192.166 219.429C193.353 218.439 194.474 217.318 195.397 216.064C196.32 214.744 197.177 213.358 197.639 211.444C195.727 211.576 194.144 212.104 192.693 212.764C191.242 213.424 189.923 214.282 188.736 215.272C187.549 216.262 186.428 217.384 185.505 218.703C184.582 219.957 183.725 221.409 183.263 223.257Z" fill="#455A64"/>
<path d="M196.452 212.5C195.397 213.226 194.408 214.018 193.419 214.81C192.429 215.602 191.44 216.394 190.451 217.186C189.462 217.977 188.473 218.835 187.483 219.627C186.494 220.485 185.571 221.277 184.582 222.135C185.637 221.409 186.626 220.617 187.615 219.825C188.604 219.033 189.594 218.241 190.583 217.45C191.572 216.658 192.561 215.8 193.55 215.008C194.54 214.216 195.529 213.358 196.452 212.5Z" fill="black"/>
<path opacity="0.1" d="M192.759 212.764C194.21 212.104 195.793 211.576 197.705 211.444C197.639 211.708 197.573 211.906 197.507 212.17C196.254 212.434 195.133 212.83 194.144 213.292C192.693 213.952 191.374 214.81 190.187 215.8C189 216.79 187.879 217.911 186.956 219.231C186.165 220.353 185.373 221.607 184.912 223.125C184.384 223.191 183.922 223.257 183.329 223.323C183.79 221.475 184.648 220.023 185.637 218.703C186.56 217.384 187.681 216.262 188.868 215.272C189.989 214.282 191.308 213.424 192.759 212.764Z" fill="black"/>
<path d="M183.593 223.191C184.054 225.039 184.846 226.491 185.769 227.811C186.692 229.13 187.747 230.252 188.934 231.308C190.121 232.298 191.44 233.222 192.825 233.882C194.276 234.608 195.859 235.136 197.771 235.334C197.309 233.486 196.518 232.034 195.595 230.648C194.672 229.328 193.617 228.207 192.429 227.151C191.242 226.161 189.924 225.237 188.539 224.577C187.022 223.917 185.505 223.323 183.593 223.191Z" fill="#455A64"/>
<path d="M196.518 234.278C195.595 233.354 194.672 232.496 193.749 231.638C192.825 230.78 191.836 229.922 190.913 229.13C189.924 228.338 189 227.481 188.011 226.689C187.022 225.897 186.033 225.105 185.044 224.313C185.967 225.237 186.89 226.095 187.813 226.953C188.737 227.811 189.726 228.668 190.649 229.46C191.638 230.252 192.562 231.11 193.551 231.902C194.474 232.694 195.463 233.552 196.518 234.278Z" fill="black"/>
<path opacity="0.1" d="M195.595 230.714C196.518 232.034 197.309 233.486 197.771 235.4C197.507 235.4 197.309 235.334 197.046 235.334C196.584 234.146 195.991 233.156 195.331 232.166C194.408 230.846 193.353 229.724 192.166 228.669C190.979 227.679 189.66 226.755 188.275 226.095C187.022 225.501 185.703 224.973 184.12 224.709C183.922 224.247 183.791 223.719 183.659 223.191C185.571 223.323 187.088 223.917 188.605 224.643C190.055 225.369 191.308 226.227 192.495 227.217C193.616 228.207 194.672 229.394 195.595 230.714Z" fill="black"/>
<path d="M170.206 220.155C172.118 220.485 173.767 220.287 175.35 219.957C176.932 219.627 178.383 219.099 179.768 218.374C181.153 217.648 182.472 216.79 183.659 215.734C184.846 214.678 185.967 213.424 186.89 211.708C184.978 211.378 183.329 211.576 181.746 211.906C180.164 212.236 178.713 212.764 177.328 213.49C175.943 214.216 174.624 215.074 173.437 216.13C172.25 217.252 171.063 218.44 170.206 220.155Z" fill="#455A64"/>
<path d="M185.439 212.5C184.252 213.028 183.131 213.556 181.944 214.084C180.823 214.612 179.636 215.206 178.515 215.8C177.394 216.394 176.273 216.988 175.152 217.582C174.031 218.176 172.91 218.77 171.789 219.429C172.976 218.902 174.097 218.374 175.284 217.846C176.405 217.318 177.592 216.724 178.713 216.13C179.834 215.536 180.955 214.942 182.076 214.348C183.197 213.754 184.318 213.16 185.439 212.5Z" fill="black"/>
<path opacity="0.1" d="M181.746 211.972C183.329 211.642 184.978 211.444 186.89 211.774C186.758 211.972 186.626 212.236 186.56 212.434C185.307 212.368 184.12 212.566 182.999 212.764C181.417 213.094 179.966 213.622 178.581 214.348C177.196 215.074 175.877 215.932 174.69 216.988C173.635 217.912 172.646 218.968 171.854 220.353C171.327 220.353 170.799 220.287 170.272 220.221C171.129 218.506 172.25 217.318 173.503 216.196C174.69 215.14 176.009 214.282 177.394 213.556C178.713 212.83 180.164 212.302 181.746 211.972Z" fill="black"/>
<path d="M170.535 220.155C170.535 222.069 171.063 223.653 171.656 225.171C172.25 226.623 173.041 228.009 173.965 229.263C174.888 230.516 176.009 231.638 177.196 232.628C178.449 233.618 179.834 234.542 181.68 235.07C181.68 233.156 181.153 231.572 180.559 230.054C179.966 228.603 179.174 227.217 178.251 225.963C177.328 224.709 176.207 223.587 174.954 222.597C173.767 221.607 172.382 220.749 170.535 220.155Z" fill="#455A64"/>
<path d="M180.757 233.816C180.032 232.76 179.306 231.704 178.581 230.648C177.855 229.592 177.064 228.603 176.339 227.547C175.547 226.557 174.822 225.501 174.031 224.511C173.239 223.521 172.448 222.531 171.591 221.541C172.316 222.597 173.041 223.653 173.767 224.709C174.492 225.765 175.284 226.755 176.009 227.811C176.8 228.801 177.526 229.856 178.317 230.846C179.174 231.836 179.966 232.826 180.757 233.816Z" fill="black"/>
<path opacity="0.1" d="M180.625 230.054C181.219 231.572 181.68 233.156 181.746 235.07C181.482 235.004 181.285 234.938 181.021 234.806C180.823 233.552 180.493 232.43 180.032 231.374C179.438 229.922 178.647 228.537 177.724 227.283C176.8 226.029 175.679 224.907 174.426 223.917C173.305 223.059 172.118 222.267 170.601 221.673C170.535 221.145 170.469 220.617 170.469 220.089C172.316 220.683 173.701 221.541 174.954 222.531C176.207 223.521 177.262 224.643 178.251 225.897C179.24 227.217 180.032 228.603 180.625 230.054Z" fill="black"/>
<path d="M186.428 230.12C186.428 235.268 182.208 239.491 177.064 239.491H71.7488C66.605 239.491 62.3845 235.268 62.3845 230.12V44.2158C62.3845 39.0683 66.605 34.8447 71.7488 34.8447H177.064C182.208 34.8447 186.428 39.0683 186.428 44.2158V230.12Z" fill="#515151"/>
<path d="M149.037 42.302C147.982 45.9977 137.365 48.9014 124.439 48.9014C111.514 48.9014 100.831 45.9977 99.8416 42.302H71.8147V218.637H177.13V42.302H149.037Z" fill="#3B3B3B"/>
<path d="M238.525 22.9658H151.082V88.8936H238.525V22.9658Z" fill="#2E2E2E"/>
<path d="M233.448 27.1234H156.225V37.6824H233.448V27.1234Z" fill="#787878"/>
<path d="M230.876 29.4992L229.755 28.3113L226.919 31.083L224.149 28.3113L222.962 29.4992L225.798 32.2709L222.962 35.0426L224.149 36.2305L226.919 33.4588L229.755 36.2305L230.876 35.0426L228.106 32.2709L230.876 29.4992Z" fill="#2E2E2E"/>
<path d="M194.54 76.8168C188.67 76.8168 183.263 75.8929 178.053 74.177C175.349 73.2531 172.58 72.0652 169.81 70.5474C168.557 69.8214 167.172 68.9635 165.655 67.9076C164.271 66.9177 162.886 65.7958 161.501 64.4759L160.578 63.552L161.501 62.6281C162.886 61.3082 164.271 60.1203 165.655 59.1304C167.106 58.0745 168.557 57.2166 169.744 56.4907C172.514 54.9728 175.284 53.7189 177.987 52.795C183.197 51.0132 188.605 50.1553 194.408 50.1553C194.408 50.1553 194.408 50.1553 194.474 50.1553C200.277 50.1553 205.619 51.0132 210.894 52.795C213.598 53.7189 216.368 54.9068 219.137 56.4247C220.39 57.1506 221.841 58.0085 223.292 59.0644C224.677 60.0543 226.062 61.1762 227.447 62.5621L228.37 63.486L227.447 64.4099C226.062 65.7298 224.677 66.9177 223.292 67.9076C221.841 68.9635 220.39 69.8214 219.203 70.5474C216.434 72.0652 213.664 73.3191 210.96 74.243C205.684 75.9588 200.343 76.8168 194.54 76.8168Z" fill="#787878"/>
<path d="M200.541 64.674C196.518 64.674 193.287 61.4403 193.287 57.4146C193.287 56.4247 193.485 55.4348 193.88 54.5769C189.264 54.9069 185.571 58.7345 185.571 63.4861C185.571 68.4356 189.528 72.3952 194.474 72.3952C199.156 72.3952 203.047 68.7656 203.376 64.08C202.519 64.476 201.596 64.674 200.541 64.674Z" fill="#A48346"/>
<path d="M209.446 47.1462L178.204 78.4113L179.649 79.8578L210.891 48.5928L209.446 47.1462Z" fill="#BABABA"/>
<path d="M61.1372 102C44.5189 102 31 115.529 31 132.159C31 148.79 44.5189 162.318 61.1372 162.318C77.7555 162.318 91.2743 148.79 91.2743 132.159C91.2743 115.529 77.7555 102 61.1372 102Z" fill="#DAB269"/>
<path d="M61.1372 111.305C49.6626 111.305 40.2983 120.676 40.2983 132.159C40.2983 143.642 49.6626 153.013 61.1372 153.013C72.6117 153.013 81.976 143.642 81.976 132.159C81.976 120.676 72.6117 111.305 61.1372 111.305ZM61.1372 115.199C65.0939 115.199 68.7209 116.585 71.6225 118.828L47.8821 142.586C45.574 139.683 44.2551 136.053 44.2551 132.093C44.1891 122.788 51.7729 115.199 61.1372 115.199ZM61.1372 149.054C57.1804 149.054 53.5534 147.668 50.6518 145.424L74.3922 121.666C76.7003 124.57 78.0193 128.2 78.0193 132.159C78.0193 141.464 70.4355 149.054 61.1372 149.054Z" fill="white"/>
<path d="M65.418 73.913H62.5164C62.4505 73.583 62.3846 73.319 62.2527 72.9891L64.7586 71.5372C66.0116 70.8113 66.4732 69.1614 65.7478 67.9076L65.418 67.3796C64.6926 66.1257 63.044 65.6638 61.791 66.3897L59.2851 67.8416C59.0213 67.5776 58.8235 67.3136 58.5597 67.1156L60.0105 64.6079C60.7359 63.354 60.2743 61.7041 59.0213 60.9782L58.4938 60.6482C57.2408 59.9223 55.5921 60.3843 54.8667 61.6381L53.4159 64.1459C53.1522 64.0799 52.8224 64.0139 52.4927 63.8819V60.9782C52.4927 59.5263 51.3057 58.2725 49.7889 58.2725H49.1954C47.7446 58.2725 46.4916 59.4603 46.4916 60.9782V63.8819C46.1619 63.9479 45.8981 64.0139 45.5684 64.1459L44.1835 61.6381C43.4581 60.3843 41.8095 59.9223 40.5565 60.6482L40.029 60.9782C38.776 61.7041 38.3144 63.354 39.0398 64.6079L40.4906 67.1156C40.2268 67.3796 39.963 67.5776 39.7652 67.8416L37.2592 66.3897C36.0063 65.6638 34.3576 66.1257 33.6322 67.3796L33.3025 67.9076C32.5771 69.1614 33.0387 70.8113 34.2917 71.5372L36.7976 72.9891C36.7317 73.253 36.6657 73.583 36.5338 73.913H33.6322C32.1814 73.913 30.9285 75.1009 30.9285 76.6187V77.2127C30.9285 78.6645 32.1155 79.9184 33.6322 79.9184H36.5338C36.5998 80.2484 36.6657 80.5124 36.7976 80.8423L34.2917 82.2942C33.0387 83.0201 32.5771 84.67 33.3025 85.9239L33.6322 86.4518C34.3576 87.7057 36.0063 88.1676 37.2592 87.4417L39.7652 85.9899C40.029 86.2538 40.2268 86.5178 40.4906 86.7158L39.0398 89.2235C38.3144 90.4774 38.776 92.1273 40.029 92.8532L40.5565 93.1832C41.8095 93.9091 43.4581 93.4471 44.1835 92.1933L45.6343 89.6855C45.8981 89.7515 46.2279 89.8175 46.5576 89.9495V92.8532C46.5576 94.3051 47.7446 95.559 49.2614 95.559H49.8549C51.3057 95.559 52.5586 94.3711 52.5586 92.8532V89.9495C52.8884 89.8835 53.1522 89.8175 53.4819 89.6855L54.9327 92.1933C55.6581 93.4471 57.3067 93.9091 58.5597 93.1832L59.0873 92.8532C60.3402 92.1273 60.8019 90.4774 60.0765 89.2235L58.6256 86.7158C58.8894 86.4518 59.1532 86.2538 59.351 85.9899L61.857 87.4417C63.11 88.1676 64.7586 87.7057 65.484 86.4518L65.8137 85.9239C66.5391 84.67 66.0775 83.0201 64.8245 82.2942L62.3186 80.8423C62.3845 80.5784 62.4505 80.2484 62.5824 79.9184H65.484C66.9348 79.9184 68.1878 78.7305 68.1878 77.2127V76.6187C68.0559 75.1669 66.8689 73.913 65.418 73.913ZM49.5251 86.1218C44.4473 86.1218 40.3587 82.0302 40.3587 76.9487C40.3587 71.8672 44.4473 67.7756 49.5251 67.7756C54.603 67.7756 58.6916 71.8672 58.6916 76.9487C58.6916 82.0302 54.603 86.1218 49.5251 86.1218Z" fill="#BABABA"/>
<path d="M43.5241 42.302L41.6117 42.7639C41.5458 42.566 41.4139 42.368 41.3479 42.17L42.7987 40.8501C43.5241 40.1902 43.5901 39.0023 42.9306 38.2764L42.6668 37.9464C42.0074 37.2205 40.8204 37.1545 40.095 37.8144L38.6441 39.1343C38.4463 39.0023 38.2485 38.8703 38.0506 38.7383L38.6441 36.8905C38.9079 35.9666 38.3804 34.9107 37.4571 34.6467L36.9296 34.5147C36.0063 34.2507 34.9512 34.7787 34.6874 35.7026L34.0939 37.6164C33.8961 37.6164 33.6982 37.6164 33.4344 37.6164L32.9728 35.7026C32.775 34.7127 31.7858 34.1188 30.7966 34.3167L30.4009 34.3827C29.4118 34.5807 28.8182 35.5706 29.0161 36.5605L29.4777 38.4744C29.2799 38.5403 29.082 38.6723 28.8842 38.7383L27.5653 37.2865C26.9058 36.5605 25.7188 36.4945 24.9934 37.1545L24.6637 37.4185C23.9383 38.0784 23.8723 39.2663 24.5318 39.9922L25.8507 41.4441C25.7188 41.6421 25.5869 41.84 25.455 42.038L23.7404 41.5761C22.8172 41.3121 21.7621 41.84 21.4983 42.7639L21.3664 43.1599C21.1026 44.0838 21.6302 45.1397 22.5534 45.4037L24.3999 45.9976C24.3999 46.1956 24.3999 46.3936 24.3999 46.6576L22.4875 47.1195C21.4983 47.3175 20.9048 48.3074 21.1026 49.2973L21.1685 49.6933C21.3664 50.6832 22.3556 51.2771 23.3448 51.0792L25.2572 50.6172C25.3231 50.8152 25.455 51.0132 25.521 51.2112L24.0702 52.531C23.3448 53.191 23.2788 54.3789 23.9383 55.1048L24.202 55.4348C24.8615 56.1607 26.0485 56.2267 26.7739 55.5667L28.2247 54.2469C28.4226 54.3789 28.6204 54.5108 28.8182 54.6428L28.2247 56.4907C27.961 57.4146 28.4885 58.4705 29.4118 58.7344L29.8074 58.8664C30.7307 59.1304 31.7858 58.6025 32.0496 57.6785L32.6431 55.8307C32.8409 55.8307 33.0388 55.8307 33.3026 55.8307L33.7642 57.7445C33.962 58.7344 34.9512 59.3284 35.9404 59.1304L36.336 59.0644C37.3252 58.8664 37.9187 57.8765 37.7209 56.8866L37.3912 54.7748C37.589 54.7088 37.7869 54.5768 37.9847 54.5108L39.3036 55.9627C39.9631 56.6886 41.1501 56.7546 41.8755 56.0947L42.2052 55.8307C42.9306 55.1708 42.9966 53.9829 42.3371 53.257L41.0182 51.8051C41.1501 51.6071 41.282 51.4091 41.4139 51.2112L43.2603 51.8051C44.1836 52.0691 45.2387 51.5411 45.5025 50.6172L45.6344 50.2212C45.8982 49.2973 45.3706 48.2414 44.4474 47.9775L42.6009 47.3835C42.6009 47.1855 42.6009 46.9876 42.6009 46.7236L44.5133 46.2616C45.5025 46.0636 46.096 45.0737 45.8982 44.0838L45.8322 43.6879C45.5025 42.698 44.5133 42.038 43.5241 42.302ZM34.8852 52.729C31.522 53.5209 28.1588 51.4091 27.4334 48.0435C26.642 44.6778 28.7523 41.3121 32.1155 40.5862C35.4788 39.7942 38.842 41.906 39.5674 45.2717C40.2928 48.6374 38.1825 51.9371 34.8852 52.729Z" fill="#444444"/>
<path d="M217.884 91.5993L216.038 91.9953C215.972 91.7973 215.84 91.5993 215.774 91.4673L217.159 90.1475C217.884 89.4875 217.95 88.3656 217.291 87.6397L217.027 87.3097C216.368 86.5838 215.246 86.5178 214.521 87.1777L213.136 88.4976C212.938 88.3656 212.741 88.2336 212.543 88.1017L213.136 86.2538C213.4 85.3299 212.872 84.34 211.949 84.01L211.554 83.878C210.63 83.6141 209.641 84.142 209.311 85.0659L208.784 86.9138C208.586 86.9138 208.388 86.9138 208.19 86.9138L207.795 85.0659C207.597 84.076 206.608 83.4821 205.684 83.7461L205.289 83.8121C204.299 84.01 203.706 84.9999 203.97 85.9239L204.365 87.7717C204.168 87.8377 203.97 87.9697 203.838 88.0357L202.519 86.6498C201.86 85.9239 200.738 85.8579 200.013 86.5178L199.683 86.7818C198.958 87.4417 198.892 88.5636 199.551 89.2895L200.87 90.6754C200.738 90.8734 200.607 91.0714 200.475 91.2694L198.628 90.6754C197.705 90.4114 196.716 90.9394 196.386 91.8633L196.254 92.2593C195.99 93.1832 196.518 94.1731 197.441 94.503L199.288 95.031C199.288 95.229 199.288 95.427 199.288 95.6249L197.441 96.0209C196.452 96.2189 195.858 97.2088 196.122 98.1327L196.188 98.5287C196.386 99.5186 197.375 100.113 198.298 99.8485L200.145 99.4526C200.211 99.6506 200.343 99.8485 200.409 99.9805L199.024 101.3C198.298 101.96 198.233 103.082 198.892 103.808L199.156 104.138C199.815 104.864 200.936 104.93 201.662 104.27L203.047 102.95C203.244 103.082 203.442 103.214 203.64 103.346L203.047 105.194C202.783 106.118 203.31 107.108 204.234 107.438L204.629 107.57C205.552 107.834 206.542 107.306 206.871 106.382L207.399 104.534C207.597 104.534 207.795 104.534 207.992 104.534L208.388 106.382C208.586 107.372 209.575 107.966 210.498 107.702L210.894 107.636C211.883 107.438 212.477 106.448 212.213 105.524L211.817 103.676C212.015 103.61 212.213 103.478 212.345 103.412L213.664 104.798C214.323 105.524 215.444 105.59 216.17 104.93L216.499 104.666C217.225 104.006 217.291 102.884 216.631 102.158L215.312 100.772C215.444 100.574 215.576 100.376 215.708 100.179L217.555 100.772C218.478 101.036 219.467 100.508 219.797 99.5846L219.929 99.1886C220.192 98.2647 219.665 97.2748 218.742 96.9448L216.895 96.4169C216.895 96.2189 216.895 96.0209 216.895 95.8229L218.742 95.427C219.731 95.229 220.324 94.2391 220.061 93.3152L219.995 92.9192C219.797 91.9293 218.808 91.3354 217.884 91.5993ZM209.377 101.828C206.08 102.554 202.783 100.508 202.057 97.2088C201.332 93.9091 203.376 90.6094 206.674 89.8835C209.971 89.1576 213.268 91.2034 213.994 94.503C214.719 97.8027 212.675 101.102 209.377 101.828Z" fill="#444444"/>
<path d="M215.247 239.491H125.956V244.573H215.247V239.491Z" fill="#303F46"/>
<path d="M206.674 239.491H134.529L165.656 162.543H175.482L206.674 239.491Z" fill="#455A64"/>
<mask id="mask0_2029_58256" style="mask-type:luminance" maskUnits="userSpaceOnUse" x="134" y="162" width="73" height="78">
<path d="M206.674 239.491H134.529L165.656 162.543H175.482L206.674 239.491Z" fill="white"/>
</mask>
<g mask="url(#mask0_2029_58256)">
<path d="M219.665 211.18H121.472V229.592H219.665V211.18Z" fill="#303F46"/>
<path d="M219.665 174.554H121.472V192.966H219.665V174.554Z" fill="#303F46"/>
</g>
<path opacity="0.1" d="M182.142 190.062C187.945 207.748 188.473 225.303 184.648 239.491H206.608L175.415 162.543H167.964C173.833 170.33 178.713 179.635 182.142 190.062Z" fill="#0046A0"/>
<g opacity="0.3">
<path d="M164.337 177.985C162.292 183.331 160.314 188.61 158.27 193.956C155.038 202.469 151.807 210.916 148.576 219.429C147.85 221.409 147.059 223.389 146.334 225.303C145.674 227.085 148.51 227.811 149.169 226.095C151.214 220.749 153.192 215.47 155.236 210.124C158.468 201.611 161.699 193.164 164.93 184.651C165.656 182.671 166.447 180.691 167.172 178.777C167.832 176.995 164.996 176.203 164.337 177.985Z" fill="white"/>
</g>
<path d="M111.118 19.9961C111.118 20.788 110.525 21.382 109.733 21.382C108.942 21.382 108.349 20.788 108.349 19.9961C108.349 19.2042 108.942 18.6102 109.733 18.6102C110.525 18.6102 111.118 19.2702 111.118 19.9961Z" fill="#A48346"/>
<path d="M234.305 121.429C234.305 122.88 233.118 124.068 231.667 124.068C230.216 124.068 229.029 122.88 229.029 121.429C229.029 119.977 230.216 118.789 231.667 118.789C233.118 118.855 234.305 120.043 234.305 121.429Z" fill="#A48346"/>
<path d="M2.76972 111.727C2.76972 112.519 2.17621 113.113 1.38486 113.113C0.593511 113.113 0 112.519 0 111.727C0 110.936 0.593511 110.342 1.38486 110.342C2.11026 110.342 2.76972 110.936 2.76972 111.727Z" fill="#A48346"/>
<path d="M82.9597 7.65525C82.9597 9.10712 81.7727 10.295 80.3219 10.295C78.8711 10.295 77.6841 9.10712 77.6841 7.65525C77.6841 6.20339 78.8711 5.0155 80.3219 5.0155C81.7727 5.0155 82.9597 6.20339 82.9597 7.65525Z" fill="#A48346"/>
<path d="M5.86908 43.424C5.86908 44.2159 5.27557 44.8098 4.48422 44.8098C3.69288 44.8098 3.09937 44.2159 3.09937 43.424C3.09937 42.632 3.69288 42.0381 4.48422 42.0381C5.27557 42.0381 5.86908 42.632 5.86908 43.424Z" fill="#A48346"/>
<path d="M12.9912 222.267C12.9912 223.719 11.8042 224.907 10.3534 224.907C8.9026 224.907 7.71558 223.719 7.71558 222.267C7.71558 220.815 8.9026 219.627 10.3534 219.627C11.8042 219.693 12.9912 220.815 12.9912 222.267Z" fill="#A48346"/>
<path d="M199.618 148.882C199.618 149.674 199.024 150.268 198.233 150.268C197.441 150.268 196.848 149.674 196.848 148.882C196.848 148.09 197.441 147.496 198.233 147.496C198.958 147.496 199.618 148.09 199.618 148.882Z" fill="#A48346"/>
<path d="M202.321 5.01551C202.321 5.80743 201.728 6.40138 200.936 6.40138C200.145 6.40138 199.552 5.80743 199.552 5.01551C199.552 4.22358 200.145 3.62964 200.936 3.62964C201.662 3.62964 202.321 4.22358 202.321 5.01551Z" fill="#A48346"/>
<path d="M21.1026 140.369C21.1026 141.821 19.9155 143.009 18.4647 143.009C17.0139 143.009 15.8269 141.821 15.8269 140.369C15.8269 138.917 17.0139 137.729 18.4647 137.729C19.9155 137.729 21.1026 138.917 21.1026 140.369Z" fill="#A48346"/>
<path d="M92.8515 30.7531C92.5217 31.2151 92.5217 31.479 92.5877 31.545C92.5877 31.545 92.8515 31.743 93.379 31.743H121.274C121.802 31.743 122.065 31.611 122.065 31.545C122.065 31.479 122.065 31.2151 121.736 30.7531L108.217 9.89907C107.953 9.50311 107.623 9.23914 107.36 9.23914C107.096 9.23914 106.766 9.50311 106.502 9.89907L92.8515 30.7531Z" fill="#DAB269"/>
<path d="M121.274 34.6467H93.3791C91.7964 34.6467 90.5434 33.9868 89.9499 32.9309C89.3564 31.809 89.4883 30.4231 90.3456 29.1033L103.93 8.24922C104.788 6.99534 105.975 6.26941 107.294 6.26941C108.613 6.26941 109.8 6.99534 110.657 8.24922L124.242 29.1033C125.099 30.4231 125.231 31.809 124.637 32.9309C124.11 34.0528 122.857 34.6467 121.274 34.6467ZM92.8515 30.7531C92.5218 31.2151 92.5218 31.479 92.5877 31.545C92.5877 31.545 92.8515 31.743 93.3791 31.743H121.274C121.802 31.743 122.065 31.611 122.065 31.545C122.065 31.479 122.065 31.2151 121.736 30.7531L108.217 9.89907C107.953 9.5031 107.623 9.23913 107.36 9.23913C107.096 9.23913 106.766 9.5031 106.502 9.89907L92.8515 30.7531Z" fill="#A48346"/>
<path d="M106.568 28.5753C106.37 28.3773 106.238 28.1133 106.238 27.7833C106.238 27.4534 106.37 27.1894 106.568 26.9914C106.766 26.7934 107.03 26.6614 107.359 26.6614C107.689 26.6614 107.953 26.7934 108.151 26.9914C108.349 27.1894 108.481 27.4534 108.481 27.7833C108.481 28.1133 108.349 28.3773 108.151 28.5753C107.953 28.7732 107.689 28.9052 107.359 28.9052C107.03 28.8392 106.766 28.7732 106.568 28.5753ZM105.909 15.7725H108.744L108.217 24.9456H106.436L105.909 15.7725Z" fill="white"/>
<path d="M106.3 139.04C106.3 139.88 106.093 140.613 105.68 141.24C105.267 141.867 104.667 142.353 103.88 142.7C103.107 143.033 102.16 143.2 101.04 143.2C100.547 143.2 100.06 143.167 99.58 143.1C99.1133 143.033 98.66 142.94 98.22 142.82C97.7933 142.687 97.3867 142.527 97 142.34V139.52C97.68 139.813 98.38 140.087 99.1 140.34C99.8333 140.58 100.56 140.7 101.28 140.7C101.773 140.7 102.167 140.633 102.46 140.5C102.767 140.367 102.987 140.187 103.12 139.96C103.267 139.733 103.34 139.473 103.34 139.18C103.34 138.82 103.213 138.513 102.96 138.26C102.72 138.007 102.393 137.773 101.98 137.56C101.567 137.333 101.093 137.093 100.56 136.84C100.227 136.68 99.8667 136.493 99.48 136.28C99.0933 136.053 98.72 135.78 98.36 135.46C98.0133 135.127 97.7267 134.727 97.5 134.26C97.2733 133.793 97.16 133.233 97.16 132.58C97.16 131.727 97.3533 131 97.74 130.4C98.14 129.787 98.7 129.32 99.42 129C100.153 128.68 101.013 128.52 102 128.52C102.747 128.52 103.453 128.607 104.12 128.78C104.8 128.953 105.507 129.2 106.24 129.52L105.26 131.88C104.607 131.613 104.02 131.407 103.5 131.26C102.98 131.113 102.447 131.04 101.9 131.04C101.527 131.04 101.207 131.1 100.94 131.22C100.673 131.34 100.467 131.507 100.32 131.72C100.187 131.933 100.12 132.187 100.12 132.48C100.12 132.813 100.22 133.1 100.42 133.34C100.62 133.567 100.92 133.787 101.32 134C101.72 134.213 102.22 134.467 102.82 134.76C103.553 135.107 104.173 135.467 104.68 135.84C105.2 136.213 105.6 136.653 105.88 137.16C106.16 137.667 106.3 138.293 106.3 139.04Z" fill="#656565"/>
<path d="M121.856 135.84C121.856 136.947 121.716 137.953 121.436 138.86C121.169 139.753 120.756 140.527 120.196 141.18C119.649 141.833 118.942 142.333 118.076 142.68C117.222 143.027 116.216 143.2 115.056 143.2C113.896 143.2 112.882 143.027 112.016 142.68C111.162 142.32 110.456 141.82 109.896 141.18C109.349 140.527 108.936 139.747 108.656 138.84C108.389 137.933 108.256 136.927 108.256 135.82C108.256 134.34 108.496 133.053 108.976 131.96C109.469 130.867 110.216 130.02 111.216 129.42C112.229 128.807 113.516 128.5 115.076 128.5C116.622 128.5 117.896 128.807 118.896 129.42C119.896 130.02 120.636 130.873 121.116 131.98C121.609 133.073 121.856 134.36 121.856 135.84ZM111.436 135.84C111.436 136.84 111.562 137.7 111.816 138.42C112.069 139.14 112.462 139.693 112.996 140.08C113.529 140.467 114.216 140.66 115.056 140.66C115.922 140.66 116.616 140.467 117.136 140.08C117.669 139.693 118.056 139.14 118.296 138.42C118.549 137.7 118.676 136.84 118.676 135.84C118.676 134.333 118.396 133.153 117.836 132.3C117.276 131.447 116.356 131.02 115.076 131.02C114.222 131.02 113.529 131.213 112.996 131.6C112.462 131.987 112.069 132.54 111.816 133.26C111.562 133.98 111.436 134.84 111.436 135.84Z" fill="#656565"/>
<path d="M137.774 135.84C137.774 136.947 137.634 137.953 137.354 138.86C137.087 139.753 136.674 140.527 136.114 141.18C135.567 141.833 134.86 142.333 133.994 142.68C133.14 143.027 132.134 143.2 130.974 143.2C129.814 143.2 128.8 143.027 127.934 142.68C127.08 142.32 126.374 141.82 125.814 141.18C125.267 140.527 124.854 139.747 124.574 138.84C124.307 137.933 124.174 136.927 124.174 135.82C124.174 134.34 124.414 133.053 124.894 131.96C125.387 130.867 126.134 130.02 127.134 129.42C128.147 128.807 129.434 128.5 130.994 128.5C132.54 128.5 133.814 128.807 134.814 129.42C135.814 130.02 136.554 130.873 137.034 131.98C137.527 133.073 137.774 134.36 137.774 135.84ZM127.354 135.84C127.354 136.84 127.48 137.7 127.734 138.42C127.987 139.14 128.38 139.693 128.914 140.08C129.447 140.467 130.134 140.66 130.974 140.66C131.84 140.66 132.534 140.467 133.054 140.08C133.587 139.693 133.974 139.14 134.214 138.42C134.467 137.7 134.594 136.84 134.594 135.84C134.594 134.333 134.314 133.153 133.754 132.3C133.194 131.447 132.274 131.02 130.994 131.02C130.14 131.02 129.447 131.213 128.914 131.6C128.38 131.987 127.987 132.54 127.734 133.26C127.48 133.98 127.354 134.84 127.354 135.84Z" fill="#656565"/>
<path d="M153.392 143H149.552L143.332 132.2H143.252C143.265 132.533 143.278 132.873 143.292 133.22C143.305 133.553 143.318 133.893 143.332 134.24C143.358 134.573 143.378 134.913 143.392 135.26C143.405 135.593 143.418 135.933 143.432 136.28V143H140.732V128.72H144.552L150.752 139.42H150.812C150.798 139.087 150.785 138.76 150.772 138.44C150.758 138.107 150.745 137.78 150.732 137.46C150.732 137.127 150.725 136.8 150.712 136.48C150.698 136.147 150.685 135.813 150.672 135.48V128.72H153.392V143Z" fill="#656565"/>
</svg>
