<svg width="54" height="54" viewBox="0 0 54 54" fill="none" xmlns="http://www.w3.org/2000/svg">
<path d="M1.47737 50.6534L4.09904 41.0708C1.56777 37.0027 0.121338 32.2113 0.121338 27.0584C0.121338 12.3228 12.0545 0.299316 26.8804 0.299316C41.616 0.299316 53.6395 12.2324 53.6395 27.0584C53.6395 41.794 41.7064 53.8175 26.8804 53.8175C20.7331 53.8175 15.0377 51.7383 10.5176 48.2126L1.47737 50.6534Z" fill="#3E3E3E"/>
<path d="M1.47772 50.6535C1.47772 50.6535 1.65851 50.5631 2.11052 50.4727C2.56253 50.3823 3.10497 50.2015 3.82819 50.0207C5.36503 49.5687 7.62508 48.9359 10.518 48.1223L10.4275 48.3031C10.4275 48.2127 10.4275 48.2127 10.4275 48.1223H10.518C13.3204 50.2919 17.3885 52.552 22.7223 53.3656C25.3439 53.8176 28.3272 53.8176 31.3105 53.2752C34.2938 52.7328 37.4579 51.648 40.3507 49.9303C43.2436 48.2127 45.9557 45.7718 48.2157 42.7885C50.3854 39.8053 52.103 36.2796 52.8263 32.3923C53.5495 28.505 53.4591 24.3465 52.4646 20.2783C52.0126 18.2895 51.1086 16.3006 50.1142 14.4022C49.0294 12.5941 47.8541 10.7861 46.3173 9.15886C44.8709 7.53161 43.2436 6.17558 41.526 5.00035C39.7179 3.91552 37.9099 2.83069 35.921 2.19788C32.0337 0.751438 27.9656 0.299426 24.0783 0.661035C20.191 1.02264 16.4845 2.28828 13.3204 4.18673C10.1564 6.08518 7.53467 8.52604 5.45542 11.1477C1.38731 16.5718 -0.0591196 22.9 0.121685 28.2338C0.30249 33.5675 2.11053 37.9068 4.00898 40.9805V41.0709C3.10495 44.1446 2.47215 46.495 2.02014 48.1223C1.74893 48.9359 1.56812 49.5687 1.47772 49.9303C1.47772 50.4727 1.47772 50.6535 1.47772 50.6535C1.47772 50.6535 1.4777 50.4727 1.65851 50.0207C1.74891 49.5687 1.92972 49.0263 2.11052 48.2127C2.56253 46.5854 3.19535 44.1446 4.00898 40.9805V41.0709C2.11053 37.9972 0.302484 33.6579 0.0312772 28.2338C-0.23993 22.9 1.2065 16.4814 5.36501 10.8765C7.44427 8.16443 10.066 5.63317 13.3204 3.73472C16.4845 1.83627 20.2814 0.570634 24.2591 0.118623C28.2368 -0.242987 32.3953 0.209024 36.373 1.65546C38.3619 2.28828 40.2603 3.37311 42.0684 4.54834C43.786 5.81397 45.5037 7.17 46.9501 8.79725C48.4869 10.4245 49.6622 12.2325 50.747 14.131C51.7414 16.0294 52.5551 18.0183 53.0975 20.0975C54.1823 24.1656 54.2727 28.4146 53.4591 32.3923C52.6455 36.37 50.9278 39.9861 48.7581 42.9693C46.4981 45.9526 43.786 48.3935 40.8027 50.2015C37.8195 51.9192 34.6554 53.004 31.5817 53.5464C28.508 54.0888 25.5247 54.0888 22.9031 53.6368C17.5693 52.8232 13.4108 50.4727 10.6084 48.3031L10.7892 48.1223C10.7892 48.1223 10.7892 48.2127 10.7892 48.3031C7.80587 49.1167 5.54582 49.6591 4.00898 50.1111C3.28576 50.2919 2.65295 50.4727 2.29134 50.5631C1.65852 50.6535 1.47772 50.6535 1.47772 50.6535Z" fill="#263238"/>
<path d="M14.9478 27.6917L18.0214 24.5276L24.0784 29.9517L35.9211 18.561L38.814 21.6347L23.6264 36.0087L14.9478 27.6917Z" fill="#A48346"/>
</svg>
