<svg width="20" height="16" viewBox="0 0 20 16" fill="none" xmlns="http://www.w3.org/2000/svg">
<path fill-rule="evenodd" clip-rule="evenodd" d="M17.8 0.8L17.8 0.800038C18 1.06753 18.2 1.33501 18.4 1.6C17.7287 2.10855 16.9379 2.69985 16.199 3.25234L16.1987 3.25256L16.1972 3.25371C15.847 3.51553 15.5085 3.76861 15.2 4C15.0001 3.73512 14.8002 3.46774 14.6003 3.20036L14.6002 3.20033L14.6 3.2L14.5998 3.19967L14.5997 3.19964C14.3998 2.93226 14.1999 2.66488 14 2.4C14.3089 2.1683 14.6479 1.91382 14.9986 1.65055L14.9991 1.65013L14.9998 1.64966C15.7384 1.09508 16.5289 0.501595 17.2 0C17.4 0.265 17.6 0.5325 17.8 0.8ZM16 7V9H20V7H16ZM14 13.61C14.6804 14.1132 15.5064 14.7319 16.2823 15.3131C16.6012 15.5519 16.9116 15.7845 17.2 16C17.4 15.735 17.6 15.4675 17.8 15.2C18 14.9325 18.2 14.665 18.4 14.4C17.7285 13.8981 16.9374 13.3041 16.1982 12.7492L16.1946 12.7465L16.192 12.7445C15.8436 12.483 15.507 12.2302 15.2 12C14.8 12.54 14.4 13.08 14 13.61ZM2 5C0.9 5 0 5.9 0 7V9C0 10.1 0.9 11 2 11H3V15H5V11H6L11 14V2L6 5H2ZM7.03 6.71L9 5.53V10.47L7.03 9.29L6.55 9H6H2V7H6H6.55L7.03 6.71ZM12 4.6499C12.92 5.4699 13.5 6.6699 13.5 7.9999C13.5 9.3299 12.92 10.5299 12 11.3399V4.6499Z" fill="#DAB269"/>
</svg>
