<svg width="32" height="30" viewBox="0 0 32 30" fill="none" xmlns="http://www.w3.org/2000/svg">
<path d="M0.0532227 3.37325C0.0798893 3.21325 0.133223 3.05325 0.159889 2.89325C0.559889 1.34659 1.81322 0.333252 3.51989 0.333252C9.06656 0.333252 14.6399 0.333252 20.1866 0.333252C21.8932 0.333252 23.1732 1.37325 23.5199 2.97325C23.5732 3.26659 23.5732 3.55992 23.5732 3.85325C23.5732 4.99992 23.5732 6.14659 23.5732 7.29325C23.5732 7.42659 23.5999 7.55992 23.5999 7.71992C23.7599 7.71992 23.8666 7.71992 23.9999 7.71992C25.5199 7.71992 27.0399 7.71992 28.5599 7.71992C30.5332 7.71992 31.9732 9.13325 31.9732 11.1066C31.9732 14.3066 31.9732 17.5333 31.9732 20.7333C31.9732 22.6266 30.6399 23.9866 28.7732 24.0933C28.3999 24.1199 28.0266 24.1199 27.6532 24.0933C27.3599 24.0666 27.2532 24.1733 27.2532 24.4666C27.2799 25.8266 27.2532 27.1866 27.2532 28.5466C27.2532 28.7333 27.2532 28.9199 27.1732 29.1066C26.9332 29.7466 26.1332 29.9066 25.5999 29.4266C24.9332 28.8399 24.2932 28.2266 23.6266 27.6399C22.3999 26.5199 21.1732 25.3999 19.9466 24.2799C19.8132 24.1733 19.5999 24.0933 19.4132 24.0933C17.6799 24.0666 15.9732 24.0933 14.2399 24.0933C13.7066 24.0933 13.3599 23.8799 13.1999 23.4533C12.9866 22.8399 13.4132 22.1733 14.0532 22.1733C16.0799 22.1733 18.1066 22.1466 20.1332 22.1733C20.3732 22.1733 20.6666 22.3333 20.8532 22.5199C22.2132 23.7466 23.5732 24.9999 24.9332 26.2266C25.0132 26.3066 25.1199 26.3866 25.2532 26.4933C25.2532 26.3066 25.2799 26.1999 25.2799 26.0933C25.2799 25.1333 25.2799 24.1466 25.2799 23.1866C25.2799 22.5199 25.6532 22.1466 26.3199 22.1466C27.0666 22.1466 27.7866 22.1466 28.5332 22.1466C29.4132 22.1466 29.9732 21.5866 29.9732 20.7066C29.9732 17.5066 29.9732 14.2799 29.9732 11.0799C29.9732 10.1733 29.4399 9.63992 28.5332 9.63992C26.9866 9.63992 25.4399 9.63992 23.8932 9.63992C23.7866 9.63992 23.6799 9.63992 23.5732 9.63992C23.5732 9.82659 23.5466 9.98659 23.5466 10.1199C23.5466 12.1999 23.5732 14.2533 23.5199 16.3333C23.4932 17.9066 22.0799 19.2933 20.5066 19.3199C17.9199 19.3466 15.3332 19.3466 12.7466 19.3466C12.3999 19.3466 12.1599 19.4266 11.9199 19.6666C10.1599 21.3199 8.34656 22.9466 6.53322 24.5999C6.37322 24.7599 6.15989 24.8933 5.94656 24.9466C5.30656 25.0799 4.79989 24.6799 4.77322 24.0133C4.77322 22.6266 4.77322 21.2399 4.77322 19.8266C4.77322 19.3733 4.77322 19.3733 4.31989 19.3733C3.78656 19.3733 3.25322 19.3999 2.74656 19.2933C1.33322 18.9999 0.373223 17.9866 0.133223 16.5466C0.133223 16.4666 0.0798893 16.4133 0.0532227 16.3333C0.0532227 12.0133 0.0532227 7.69325 0.0532227 3.37325ZM6.71989 21.6666C6.74656 21.6933 6.77322 21.6933 6.79989 21.7199C6.87989 21.6399 6.98656 21.5599 7.06656 21.4799C8.42656 20.2533 9.75989 19.0266 11.1199 17.7733C11.4132 17.5066 11.7066 17.3999 12.1066 17.3999C14.7999 17.3999 17.4932 17.3999 20.1866 17.3999C21.0932 17.3999 21.6532 16.8399 21.6532 15.9333C21.6532 11.8799 21.6532 7.79992 21.6532 3.74659C21.6532 2.83992 21.0932 2.30659 20.1866 2.27992C14.6132 2.27992 9.03989 2.27992 3.46656 2.27992C2.71989 2.27992 1.99989 2.83992 1.99989 3.74659C2.02656 7.79992 2.02656 11.8799 1.99989 15.9333C1.99989 16.8399 2.66656 17.4266 3.46656 17.3999C4.21322 17.3733 4.98656 17.3999 5.73322 17.3999C6.15989 17.3999 6.53322 17.6933 6.63989 18.1199C6.66656 18.2533 6.66656 18.3866 6.66656 18.5199C6.71989 19.5866 6.71989 20.6266 6.71989 21.6666Z" fill="white"/>
<path d="M11.8667 8.43983C9.91999 8.43983 7.97332 8.43983 6.02665 8.43983C5.38665 8.43983 5.03999 8.17316 4.93332 7.63983C4.82665 7.1065 5.22665 6.5465 5.75999 6.49316C5.83999 6.49316 5.91999 6.49316 5.99999 6.49316C9.89332 6.49316 13.8133 6.49316 17.7067 6.49316C18.0267 6.49316 18.32 6.57316 18.5333 6.81316C18.7733 7.1065 18.8533 7.4265 18.72 7.79983C18.5867 8.1465 18.32 8.3865 17.92 8.41316C17.6 8.43983 17.2533 8.43983 16.9333 8.43983C15.2533 8.43983 13.5467 8.43983 11.8667 8.43983Z" fill="white"/>
<path d="M10.5599 11.24C12.0799 11.24 13.6266 11.24 15.1466 11.24C15.7599 11.24 16.1866 11.6133 16.2132 12.1733C16.2399 12.76 15.8399 13.16 15.2266 13.1867C14.8532 13.2133 14.4532 13.1867 14.0799 13.1867C11.3866 13.1867 8.69323 13.1867 5.9999 13.1867C5.4399 13.1867 5.0399 12.8933 4.93323 12.44C4.77323 11.8 5.25323 11.24 5.94657 11.24C7.49323 11.24 9.0399 11.24 10.5599 11.24Z" fill="white"/>
</svg>
