<svg width="355" height="289" viewBox="0 0 355 289" fill="none" xmlns="http://www.w3.org/2000/svg">
<path d="M30 10C30 4.47715 34.4772 0 40 0H84.5C88.9183 0 92.5 3.58172 92.5 8V8C92.5 12.4183 88.9183 16 84.5 16H55C49.4772 16 45 20.4772 45 26V55C45 59.1421 41.6421 62.5 37.5 62.5V62.5C33.3579 62.5 30 59.1421 30 55V10Z" fill="#DAB269"/>
<path d="M312.5 0C318.023 0 322.5 4.47715 322.5 10V54.5C322.5 58.9183 318.918 62.5 314.5 62.5V62.5C310.082 62.5 306.5 58.9183 306.5 54.5V25C306.5 19.4772 302.023 15 296.5 15L267.5 15C263.358 15 260 11.6421 260 7.5V7.5C260 3.35786 263.358 0 267.5 0L312.5 0Z" fill="#DAB269"/>
<path d="M30 279C30 284.523 34.4772 289 40 289H84.936C89.3896 289 93 285.39 93 280.936V280.936C93 276.482 89.3896 272.872 84.936 272.872H55.12C49.5972 272.872 45.12 268.395 45.12 262.872V233.56C45.12 229.385 41.7353 226 37.56 226V226C33.3847 226 30 229.385 30 233.56V279Z" fill="#DAB269"/>
<path d="M313 289C318.523 289 323 284.523 323 279V234.064C323 229.61 319.39 226 314.936 226V226C310.482 226 306.872 229.61 306.872 234.064V263.88C306.872 269.403 302.395 273.88 296.872 273.88H267.56C263.385 273.88 260 277.265 260 281.44V281.44C260 285.615 263.385 289 267.56 289H313Z" fill="#DAB269"/>
<rect y="141" width="355" height="6" rx="3" fill="#DAB269"/>
</svg>
