<svg width="16" height="22" viewBox="0 0 16 22" fill="none" xmlns="http://www.w3.org/2000/svg">
<path d="M15.48 11.3702C13.82 7.05023 7.65 7.00023 9.99 -0.00976562C5.52 2.00023 1.98 7.17023 5.48 14.0002C0.53 11.9202 2.7 6.71023 2.7 6.71023C2.7 6.71023 0 8.37024 0 13.3902C0.38 18.9902 5.11 20.7102 6.81 20.9302C9.24 21.2402 11.87 20.7902 13.76 19.0602C15.84 17.1302 16.6 14.0502 15.48 11.3702ZM6.2 16.4002C7.64 16.0502 8.38 15.0102 8.58 14.0902C8.91 12.6602 7.62 11.2602 8.49 9.00023C8.82 10.8702 11.76 12.0402 11.76 14.0802C11.84 16.6102 9.1 18.7802 6.2 16.4002Z" fill="#DAB269"/>
</svg>
